<svg width="161" height="24" viewBox="0 0 161 24" fill="none" xmlns="http://www.w3.org/2000/svg">
<path d="M39.906 12.736L39.492 14.176H42.498L42.084 12.736C41.892 12.112 41.706 11.47 41.526 10.81C41.358 10.15 41.19 9.496 41.022 8.848H40.95C40.782 9.508 40.614 10.168 40.446 10.828C40.278 11.476 40.098 12.112 39.906 12.736ZM35.964 19L39.798 7.228H42.246L46.08 19H43.884L42.966 15.814H39.006L38.088 19H35.964ZM52.9533 19V11.8H49.6053V19H47.5353V11.8H46.3473V10.252L47.5353 10.162V9.388C47.5353 8.932 47.5953 8.512 47.7153 8.128C47.8353 7.744 48.0153 7.414 48.2553 7.138C48.5073 6.862 48.8253 6.646 49.2093 6.49C49.5933 6.334 50.0553 6.256 50.5953 6.256C50.9313 6.256 51.2493 6.286 51.5493 6.346C51.8493 6.406 52.1073 6.484 52.3233 6.58L51.9273 8.128C51.7593 8.044 51.5913 7.984 51.4233 7.948C51.2553 7.912 51.0513 7.894 50.8113 7.894C50.4393 7.894 50.1453 8.02 49.9293 8.272C49.7133 8.512 49.6053 8.884 49.6053 9.388V10.162H52.9533V9.244C52.9533 8.788 53.0073 8.368 53.1153 7.984C53.2233 7.588 53.3913 7.252 53.6193 6.976C53.8593 6.688 54.1593 6.466 54.5193 6.31C54.8913 6.154 55.3413 6.076 55.8693 6.076C56.1933 6.076 56.4933 6.106 56.7693 6.166C57.0453 6.226 57.2853 6.298 57.4893 6.382L57.0933 7.93C56.7813 7.786 56.4633 7.714 56.1393 7.714C55.3953 7.714 55.0233 8.212 55.0233 9.208V10.162H56.7513V11.8H55.0233V19H52.9533ZM58.3023 19V10.162H60.3723V19H58.3023ZM59.3463 8.614C58.9743 8.614 58.6683 8.506 58.4283 8.29C58.1883 8.074 58.0683 7.792 58.0683 7.444C58.0683 7.096 58.1883 6.814 58.4283 6.598C58.6683 6.37 58.9743 6.256 59.3463 6.256C59.7183 6.256 60.0243 6.37 60.2643 6.598C60.5043 6.814 60.6243 7.096 60.6243 7.444C60.6243 7.792 60.5043 8.074 60.2643 8.29C60.0243 8.506 59.7183 8.614 59.3463 8.614ZM65.0292 19.216C64.2852 19.216 63.7632 18.994 63.4632 18.55C63.1632 18.106 63.0132 17.5 63.0132 16.732V6.292H65.0832V16.84C65.0832 17.092 65.1312 17.272 65.2272 17.38C65.3232 17.476 65.4252 17.524 65.5332 17.524C65.5812 17.524 65.6232 17.524 65.6592 17.524C65.7072 17.524 65.7732 17.512 65.8572 17.488L66.1272 19.036C65.8512 19.156 65.4852 19.216 65.0292 19.216ZM67.8999 19V10.162H69.9699V19H67.8999ZM68.9439 8.614C68.5719 8.614 68.2659 8.506 68.0259 8.29C67.7859 8.074 67.6659 7.792 67.6659 7.444C67.6659 7.096 67.7859 6.814 68.0259 6.598C68.2659 6.37 68.5719 6.256 68.9439 6.256C69.3159 6.256 69.6219 6.37 69.8619 6.598C70.1019 6.814 70.2219 7.096 70.2219 7.444C70.2219 7.792 70.1019 8.074 69.8619 8.29C69.6219 8.506 69.3159 8.614 68.9439 8.614ZM74.7529 19.216C73.9729 19.216 73.3429 18.982 72.8629 18.514C72.3829 18.034 72.1429 17.404 72.1429 16.624C72.1429 16.156 72.2389 15.742 72.4309 15.382C72.6349 15.01 72.9469 14.692 73.3669 14.428C73.7989 14.164 74.3389 13.942 74.9869 13.762C75.6469 13.582 76.4329 13.444 77.3449 13.348C77.3329 13.12 77.2969 12.904 77.2369 12.7C77.1889 12.484 77.0989 12.298 76.9669 12.142C76.8469 11.974 76.6849 11.848 76.4809 11.764C76.2769 11.668 76.0249 11.62 75.7249 11.62C75.2929 11.62 74.8669 11.704 74.4469 11.872C74.0389 12.04 73.6369 12.244 73.2409 12.484L72.4849 11.098C72.9769 10.786 73.5289 10.516 74.1409 10.288C74.7529 10.06 75.4129 9.946 76.1209 9.946C77.2249 9.946 78.0469 10.276 78.5869 10.936C79.1389 11.584 79.4149 12.526 79.4149 13.762V19H77.7049L77.5609 18.028H77.4889C77.0929 18.364 76.6669 18.646 76.2109 18.874C75.7669 19.102 75.2809 19.216 74.7529 19.216ZM75.4189 17.596C75.7789 17.596 76.1029 17.512 76.3909 17.344C76.6909 17.176 77.0089 16.936 77.3449 16.624V14.644C76.7449 14.716 76.2409 14.812 75.8329 14.932C75.4249 15.052 75.0949 15.19 74.8429 15.346C74.5909 15.49 74.4109 15.658 74.3029 15.85C74.1949 16.042 74.1409 16.246 74.1409 16.462C74.1409 16.858 74.2609 17.146 74.5009 17.326C74.7409 17.506 75.0469 17.596 75.4189 17.596ZM84.7249 19.216C84.2089 19.216 83.7709 19.138 83.4109 18.982C83.0629 18.826 82.7749 18.61 82.5469 18.334C82.3309 18.046 82.1689 17.71 82.0609 17.326C81.9649 16.93 81.9169 16.492 81.9169 16.012V11.8H80.6569V10.252L82.0249 10.162L82.2769 7.75H84.0049V10.162H86.2549V11.8H84.0049V16.012C84.0049 17.044 84.4189 17.56 85.2469 17.56C85.4029 17.56 85.5589 17.542 85.7149 17.506C85.8829 17.47 86.0329 17.422 86.1649 17.362L86.5249 18.892C86.2849 18.976 86.0089 19.048 85.6969 19.108C85.3969 19.18 85.0729 19.216 84.7249 19.216ZM91.6135 19.216C91.0015 19.216 90.4315 19.114 89.9035 18.91C89.3755 18.694 88.9135 18.388 88.5175 17.992C88.1215 17.596 87.8095 17.116 87.5815 16.552C87.3655 15.976 87.2575 15.322 87.2575 14.59C87.2575 13.87 87.3715 13.222 87.5995 12.646C87.8275 12.07 88.1275 11.584 88.4995 11.188C88.8835 10.792 89.3215 10.486 89.8135 10.27C90.3055 10.054 90.8095 9.946 91.3255 9.946C91.9255 9.946 92.4535 10.048 92.9095 10.252C93.3655 10.456 93.7435 10.744 94.0435 11.116C94.3555 11.488 94.5895 11.932 94.7455 12.448C94.9015 12.964 94.9795 13.528 94.9795 14.14C94.9795 14.344 94.9675 14.536 94.9435 14.716C94.9315 14.896 94.9135 15.04 94.8895 15.148H89.2735C89.3695 15.94 89.6455 16.552 90.1015 16.984C90.5695 17.404 91.1635 17.614 91.8835 17.614C92.2675 17.614 92.6215 17.56 92.9455 17.452C93.2815 17.332 93.6115 17.17 93.9355 16.966L94.6375 18.262C94.2175 18.538 93.7495 18.766 93.2335 18.946C92.7175 19.126 92.1775 19.216 91.6135 19.216ZM89.2555 13.744H93.1795C93.1795 13.06 93.0295 12.526 92.7295 12.142C92.4415 11.746 91.9915 11.548 91.3795 11.548C90.8515 11.548 90.3895 11.734 89.9935 12.106C89.5975 12.478 89.3515 13.024 89.2555 13.744ZM102.018 19L99.6781 10.162H101.766L102.828 14.752C102.924 15.172 103.002 15.592 103.062 16.012C103.134 16.432 103.212 16.858 103.296 17.29H103.368C103.452 16.858 103.536 16.432 103.62 16.012C103.716 15.592 103.818 15.172 103.926 14.752L105.078 10.162H106.968L108.138 14.752C108.246 15.172 108.348 15.592 108.444 16.012C108.54 16.432 108.636 16.858 108.732 17.29H108.804C108.888 16.858 108.966 16.432 109.038 16.012C109.11 15.592 109.188 15.172 109.272 14.752L110.334 10.162H112.278L110.028 19H107.562L106.536 14.878C106.44 14.458 106.35 14.044 106.266 13.636C106.182 13.216 106.092 12.772 105.996 12.304H105.924C105.84 12.772 105.756 13.216 105.672 13.636C105.588 14.056 105.498 14.476 105.402 14.896L104.394 19H102.018ZM114.025 19V10.162H116.095V19H114.025ZM115.069 8.614C114.697 8.614 114.391 8.506 114.151 8.29C113.911 8.074 113.791 7.792 113.791 7.444C113.791 7.096 113.911 6.814 114.151 6.598C114.391 6.37 114.697 6.256 115.069 6.256C115.441 6.256 115.747 6.37 115.987 6.598C116.227 6.814 116.347 7.096 116.347 7.444C116.347 7.792 116.227 8.074 115.987 8.29C115.747 8.506 115.441 8.614 115.069 8.614ZM121.85 19.216C121.334 19.216 120.896 19.138 120.536 18.982C120.188 18.826 119.9 18.61 119.672 18.334C119.456 18.046 119.294 17.71 119.186 17.326C119.09 16.93 119.042 16.492 119.042 16.012V11.8H117.782V10.252L119.15 10.162L119.402 7.75H121.13V10.162H123.38V11.8H121.13V16.012C121.13 17.044 121.544 17.56 122.372 17.56C122.528 17.56 122.684 17.542 122.84 17.506C123.008 17.47 123.158 17.422 123.29 17.362L123.65 18.892C123.41 18.976 123.134 19.048 122.822 19.108C122.522 19.18 122.198 19.216 121.85 19.216ZM125.24 19V6.292H127.31V9.568L127.238 11.278C127.61 10.93 128.018 10.624 128.462 10.36C128.918 10.084 129.452 9.946 130.064 9.946C131.012 9.946 131.702 10.252 132.134 10.864C132.566 11.464 132.782 12.328 132.782 13.456V19H130.712V13.726C130.712 12.994 130.604 12.478 130.388 12.178C130.172 11.878 129.818 11.728 129.326 11.728C128.942 11.728 128.6 11.824 128.3 12.016C128.012 12.196 127.682 12.466 127.31 12.826V19H125.24ZM141.508 19.216C140.56 19.216 139.87 18.916 139.438 18.316C139.006 17.704 138.79 16.834 138.79 15.706V10.162H140.86V15.436C140.86 16.168 140.968 16.684 141.184 16.984C141.4 17.284 141.748 17.434 142.228 17.434C142.612 17.434 142.948 17.338 143.236 17.146C143.536 16.954 143.854 16.642 144.19 16.21V10.162H146.26V19H144.568L144.406 17.704H144.352C143.968 18.16 143.548 18.526 143.092 18.802C142.648 19.078 142.12 19.216 141.508 19.216ZM151.348 19.216C150.736 19.216 150.13 19.102 149.53 18.874C148.942 18.634 148.432 18.34 148 17.992L148.972 16.66C149.368 16.972 149.758 17.218 150.142 17.398C150.538 17.566 150.964 17.65 151.42 17.65C151.9 17.65 152.254 17.554 152.482 17.362C152.71 17.158 152.824 16.9 152.824 16.588C152.824 16.408 152.77 16.252 152.662 16.12C152.554 15.976 152.41 15.85 152.23 15.742C152.05 15.634 151.846 15.538 151.618 15.454C151.39 15.358 151.162 15.262 150.934 15.166C150.646 15.058 150.352 14.932 150.052 14.788C149.752 14.644 149.482 14.47 149.242 14.266C149.014 14.062 148.822 13.828 148.666 13.564C148.522 13.288 148.45 12.964 148.45 12.592C148.45 11.812 148.738 11.176 149.314 10.684C149.89 10.192 150.676 9.946 151.672 9.946C152.284 9.946 152.836 10.054 153.328 10.27C153.82 10.486 154.246 10.732 154.606 11.008L153.652 12.268C153.34 12.04 153.022 11.86 152.698 11.728C152.386 11.584 152.056 11.512 151.708 11.512C151.264 11.512 150.934 11.608 150.718 11.8C150.514 11.98 150.412 12.208 150.412 12.484C150.412 12.664 150.46 12.82 150.556 12.952C150.664 13.072 150.802 13.18 150.97 13.276C151.138 13.372 151.33 13.462 151.546 13.546C151.774 13.63 152.008 13.714 152.248 13.798C152.548 13.906 152.848 14.032 153.148 14.176C153.448 14.308 153.718 14.476 153.958 14.68C154.21 14.884 154.408 15.136 154.552 15.436C154.708 15.724 154.786 16.072 154.786 16.48C154.786 16.864 154.708 17.224 154.552 17.56C154.408 17.884 154.192 18.172 153.904 18.424C153.616 18.664 153.256 18.856 152.824 19C152.392 19.144 151.9 19.216 151.348 19.216ZM157.462 15.13L157.174 8.992L157.12 6.94H159.208L159.136 8.992L158.848 15.13H157.462ZM158.164 19.216C157.78 19.216 157.456 19.084 157.192 18.82C156.94 18.556 156.814 18.22 156.814 17.812C156.814 17.404 156.94 17.068 157.192 16.804C157.456 16.54 157.78 16.408 158.164 16.408C158.548 16.408 158.866 16.54 159.118 16.804C159.37 17.068 159.496 17.404 159.496 17.812C159.496 18.22 159.37 18.556 159.118 18.82C158.866 19.084 158.548 19.216 158.164 19.216Z" fill="#FDF0DD"/>
<path fill-rule="evenodd" clip-rule="evenodd" d="M12 24C18.6274 24 24 18.6274 24 12C24 5.37258 18.6274 0 12 0C5.37258 0 0 5.37258 0 12C0 18.6274 5.37258 24 12 24ZM12.0013 21.3333C17.156 21.3333 21.3346 17.1547 21.3346 12C21.3346 6.84534 17.156 2.66667 12.0013 2.66667C6.84664 2.66667 2.66797 6.84534 2.66797 12C2.66797 17.1547 6.84664 21.3333 12.0013 21.3333Z" fill="#FDF0DD"/>
</svg>
