<svg width="1440" height="2309" viewBox="0 0 1440 2309" fill="none" xmlns="http://www.w3.org/2000/svg">
<path fill-rule="evenodd" clip-rule="evenodd" d="M0 920.589C59.1612 986.749 132.151 1043.59 209.285 1088.39C354.503 1172.72 523.766 1193.46 684.014 1180.04C834.859 1167.4 977.262 1114.41 1079.62 1015.46C1175.55 922.718 1210.59 789.037 1227.28 654.838C1242.7 530.918 1233 401.327 1170.62 283.928C1110.86 171.452 1007.32 84.1589 891.516 22.9493C873.991 13.686 856.174 6.17503 838.117 0H0V920.589Z" fill="#040605"/>
<path fill-rule="evenodd" clip-rule="evenodd" d="M1440 362.07C1427.72 349.126 1414.02 337.449 1398.98 327.336C1347.04 292.41 1279.66 295.57 1219.07 311.253C1190.37 318.68 1171.61 340.284 1152.36 362.438C1140.32 376.293 1128.1 390.363 1113.14 401.316C1093.39 415.784 1069.7 425.482 1046.41 435.016C1005.99 451.561 966.786 467.611 951.443 507.243C921.248 585.24 910.594 699.327 979.321 746.993C1019.75 775.037 1065.07 752.043 1112.55 727.951C1147.25 710.343 1183.11 692.148 1219.07 692.861C1256.53 693.605 1293.24 713.43 1328.81 732.633C1367.4 753.474 1404.64 773.583 1440 767.77V362.07Z" fill="#447BAA"/>
<path fill-rule="evenodd" clip-rule="evenodd" d="M139.874 93.039C167.274 95.5048 191.986 108.435 209.129 130.055C226.261 151.662 234.593 178.961 229.534 206.116C224.211 234.691 209.248 263.501 182.3 274.078C156.858 284.064 131.535 266.21 106.962 254.227C82.538 242.317 55.16 232.654 45.2604 207.252C33.6057 177.347 32.6485 140.697 53.0962 116.013C73.2307 91.7078 108.528 90.218 139.874 93.039Z" fill="#66B8FF"/>
<path fill-rule="evenodd" clip-rule="evenodd" d="M0 0V190.534C30.3702 201.132 61.5039 201.689 90.1268 184.061C152.765 145.485 197.362 70.2641 186.317 0H0Z" fill="#B2DBFF"/>
<rect y="1371" width="1440" height="938" fill="url(#paint0_linear)"/>
<path fill-rule="evenodd" clip-rule="evenodd" d="M178.052 1460.32C234.467 1453.08 293.122 1476.08 328.357 1518.55C363.38 1560.78 372.877 1620.16 352.121 1670.17C333.994 1713.84 281.72 1729.71 234.709 1744.19C197.482 1755.66 158.148 1757.36 123.179 1740.67C88.9615 1724.34 65.6629 1694.09 56.0033 1658.89C45.916 1622.13 51.1176 1584.34 71.2822 1551.54C96.6748 1510.22 128.146 1466.72 178.052 1460.32Z" fill="#C099FF"/>
<path fill-rule="evenodd" clip-rule="evenodd" d="M0 2217.39C9.22878 2216.8 18.6323 2215.77 28.0868 2214.74C50.8424 2212.26 73.8932 2209.75 95.513 2213.11C115.222 2216.18 133.869 2223.13 152.378 2230.04C178.226 2239.68 203.806 2249.22 231.631 2247.93C287.936 2245.31 351.099 2240.15 390.034 2199.39C415.596 2172.63 419.205 2135.37 422.871 2097.54C424.823 2077.38 426.792 2057.06 432.103 2038.08C438.33 2015.82 450.86 1993.35 463.28 1971.08C487.083 1928.4 510.481 1886.44 488.323 1848.09C467.052 1811.27 422.176 1809.06 375.827 1806.78C346.072 1805.32 315.711 1803.82 290.597 1793.12C269.325 1784.06 251.679 1768.26 234.225 1752.62C211.248 1732.04 188.605 1711.76 158.461 1707.55C103.037 1699.81 47.1604 1722.04 0.24823 1752.55C0.165453 1752.6 0.0827098 1752.66 0 1752.71V2217.39Z" fill="#5A4280"/>
<path fill-rule="evenodd" clip-rule="evenodd" d="M1440 1394.29C1386.16 1387.01 1329.3 1396.55 1278.26 1421.88C1165.95 1477.62 1066.26 1584.31 1092.49 1706.92C1117.14 1822.18 1254.74 1853.82 1372.34 1861.76C1395.71 1863.34 1418.44 1861.25 1440 1855.91V1394.29Z" fill="#241B33"/>
<path fill-rule="evenodd" clip-rule="evenodd" d="M1440 1801.24C1417.76 1787.78 1391.87 1780 1363.76 1780C1272.19 1780 1198 1854.59 1198 1946.54C1198 2047.1 1263.62 2143 1363.76 2143C1392.88 2143 1418.46 2134.22 1440 2119.29V1801.24Z" fill="#D9C2FF"/>
<defs>
<linearGradient id="paint0_linear" x1="720" y1="1371" x2="720" y2="2309" gradientUnits="userSpaceOnUse">
<stop stop-color="#66B8FF"/>
<stop offset="0.710039" stop-color="#B485FF"/>
<stop offset="1" stop-color="#966FD4"/>
</linearGradient>
</defs>
</svg>
