<svg width="1440" height="1184" viewBox="0 0 1440 1184" fill="none" xmlns="http://www.w3.org/2000/svg">
<path fill-rule="evenodd" clip-rule="evenodd" d="M0 920.589C59.1612 986.749 132.151 1043.59 209.285 1088.39C354.503 1172.72 523.766 1193.46 684.014 1180.04C834.859 1167.4 977.262 1114.41 1079.62 1015.46C1175.55 922.718 1210.59 789.037 1227.28 654.838C1242.7 530.918 1233 401.327 1170.62 283.928C1110.86 171.452 1007.32 84.1589 891.516 22.9493C873.991 13.686 856.174 6.17503 838.117 0H0V920.589Z" fill="#040605"/>
<path fill-rule="evenodd" clip-rule="evenodd" d="M1440 362.07C1427.72 349.126 1414.02 337.449 1398.98 327.336C1347.04 292.41 1279.66 295.57 1219.07 311.253C1190.37 318.68 1171.61 340.284 1152.36 362.438C1140.32 376.293 1128.1 390.363 1113.14 401.316C1093.39 415.784 1069.7 425.482 1046.41 435.016C1005.99 451.561 966.786 467.611 951.444 507.243C921.248 585.24 910.594 699.327 979.321 746.993C1019.75 775.037 1065.07 752.043 1112.55 727.951C1147.25 710.343 1183.11 692.148 1219.07 692.861C1256.53 693.605 1293.24 713.43 1328.81 732.633C1367.4 753.474 1404.64 773.583 1440 767.77V362.07Z" fill="#447BAA"/>
<path fill-rule="evenodd" clip-rule="evenodd" d="M139.874 93.039C167.274 95.5048 191.986 108.435 209.129 130.055C226.261 151.662 234.593 178.961 229.534 206.116C224.211 234.691 209.248 263.501 182.3 274.078C156.858 284.064 131.535 266.21 106.962 254.227C82.538 242.317 55.16 232.654 45.2604 207.252C33.6057 177.347 32.6485 140.697 53.0962 116.013C73.2307 91.7078 108.528 90.218 139.874 93.039Z" fill="#66B8FF"/>
<path fill-rule="evenodd" clip-rule="evenodd" d="M0 0V190.534C30.3702 201.132 61.5039 201.689 90.1268 184.061C152.765 145.485 197.362 70.2641 186.317 0H0Z" fill="#B2DBFF"/>
</svg>
