<svg width="414" height="1670" viewBox="0 0 414 1670" fill="none" xmlns="http://www.w3.org/2000/svg">
<circle cx="282" cy="151" r="63" fill="url(#paint0_linear)" style="mix-blend-mode:hard-light"/>
<circle cx="139" cy="706" r="18" fill="url(#paint1_linear)"/>
<circle cx="236" cy="587" r="63" fill="url(#paint2_linear)" style="mix-blend-mode:hard-light"/>
<circle cx="367" cy="440" r="32" fill="url(#paint3_linear)" style="mix-blend-mode:hard-light"/>
<circle cx="221" cy="1139" r="18" fill="url(#paint4_linear)"/>
<path fill-rule="evenodd" clip-rule="evenodd" d="M414 1345.64C403.51 1341.36 392.031 1339 380 1339C330.294 1339 290 1379.29 290 1429C290 1478.71 330.294 1519 380 1519C392.031 1519 403.51 1516.64 414 1512.36V1345.64Z" fill="url(#paint5_linear)"/>
<path fill-rule="evenodd" clip-rule="evenodd" d="M414 705.699C327.649 758.37 270 853.453 270 962C270 1070.55 327.649 1165.63 414 1218.3V705.699Z" fill="url(#paint6_linear)"/>
<path fill-rule="evenodd" clip-rule="evenodd" d="M0 1060.45C3.95151 1060.82 7.95417 1061 12 1061C83.797 1061 142 1002.8 142 931C142 859.203 83.797 801 12 801C7.95417 801 3.95151 801.185 0 801.546V1060.45Z" fill="url(#paint7_linear)"/>
<path fill-rule="evenodd" clip-rule="evenodd" d="M0 578.356C112.848 535.261 193 425.991 193 298C193 170.009 112.848 60.7385 0 17.6438V578.356Z" fill="url(#paint8_linear)"/>
<path fill-rule="evenodd" clip-rule="evenodd" d="M414 0H381.248C381.084 1.31038 381 2.64536 381 4C381 21.6731 395.327 36 413 36C413.335 36 413.668 35.9949 414 35.9847V0Z" fill="url(#paint9_linear)" style="mix-blend-mode:hard-light"/>
<defs>
<linearGradient id="paint0_linear" x1="345" y1="214" x2="219" y2="88" gradientUnits="userSpaceOnUse">
<stop stop-color="#66B8FF"/>
<stop offset="0.59595" stop-color="#FDF0DD"/>
</linearGradient>
<linearGradient id="paint1_linear" x1="157" y1="724" x2="121" y2="688" gradientUnits="userSpaceOnUse">
<stop stop-color="#FDF0DD"/>
<stop offset="1" stop-color="#66B8FF"/>
</linearGradient>
<linearGradient id="paint2_linear" x1="299" y1="650" x2="173" y2="524" gradientUnits="userSpaceOnUse">
<stop stop-color="#66B8FF"/>
<stop offset="0.59595" stop-color="#FDF0DD"/>
</linearGradient>
<linearGradient id="paint3_linear" x1="335" y1="472" x2="399" y2="408" gradientUnits="userSpaceOnUse">
<stop stop-color="#66B8FF"/>
<stop offset="0.811669" stop-color="#FDF0DD"/>
</linearGradient>
<linearGradient id="paint4_linear" x1="239" y1="1157" x2="203" y2="1121" gradientUnits="userSpaceOnUse">
<stop stop-color="#FDF0DD"/>
<stop offset="1" stop-color="#66B8FF"/>
</linearGradient>
<linearGradient id="paint5_linear" x1="470" y1="1339" x2="290" y2="1519" gradientUnits="userSpaceOnUse">
<stop offset="0.614583" stop-color="#FDF0DD"/>
<stop offset="1" stop-color="#66B8FF"/>
</linearGradient>
<linearGradient id="paint6_linear" x1="870" y1="962" x2="352.5" y2="1278" gradientUnits="userSpaceOnUse">
<stop offset="0.153611" stop-color="#FDF0DD"/>
<stop offset="1" stop-color="#FDF0DD" stop-opacity="0"/>
</linearGradient>
<linearGradient id="paint7_linear" x1="142" y1="801" x2="-118" y2="931" gradientUnits="userSpaceOnUse">
<stop offset="0.256898" stop-color="#FDF0DD"/>
<stop offset="1" stop-color="#66B8FF"/>
</linearGradient>
<linearGradient id="paint8_linear" x1="-107" y1="-2.00025" x2="281.5" y2="273.5" gradientUnits="userSpaceOnUse">
<stop stop-color="#66B8FF"/>
<stop offset="1" stop-color="#66B8FF" stop-opacity="0"/>
</linearGradient>
<linearGradient id="paint9_linear" x1="381" y1="36" x2="445" y2="-28" gradientUnits="userSpaceOnUse">
<stop stop-color="#66B8FF"/>
<stop offset="0.811669" stop-color="#FDF0DD"/>
</linearGradient>
</defs>
</svg>
