<svg width="1440" height="2289" viewBox="0 0 1440 2289" fill="none" xmlns="http://www.w3.org/2000/svg">
<circle cx="221" cy="1603" r="130" fill="url(#paint0_linear)"/>
<circle cx="869" cy="2229" r="60" fill="url(#paint1_linear)"/>
<circle cx="348" cy="1378" r="18" fill="url(#paint2_linear)"/>
<circle cx="1034" cy="1067" r="63" fill="url(#paint3_linear)" style="mix-blend-mode:hard-light"/>
<circle cx="1165" cy="920" r="32" fill="url(#paint4_linear)" style="mix-blend-mode:hard-light"/>
<path fill-rule="evenodd" clip-rule="evenodd" d="M131 1218C84.0305 1218 39.582 1207.21 0 1187.96V648.037C39.582 628.794 84.0305 618 131 618C296.685 618 431 752.315 431 918C431 1083.69 296.685 1218 131 1218Z" fill="#66B8FF"/>
<circle cx="1120" cy="1959" r="90" fill="url(#paint5_linear)"/>
<path fill-rule="evenodd" clip-rule="evenodd" d="M1440 1150.7C1416.93 1145.01 1392.82 1142 1368 1142C1202.31 1142 1068 1276.31 1068 1442C1068 1607.69 1202.31 1742 1368 1742C1392.82 1742 1416.93 1738.99 1440 1733.3V1150.7Z" fill="#FDF0DD"/>
<circle cx="1074" cy="317" r="12" fill="#66B8FF"/>
<circle cx="1252" cy="174" r="82" fill="#FDF0DD"/>
<circle cx="270" cy="313" r="62" fill="#66B8FF"/>
<path fill-rule="evenodd" clip-rule="evenodd" d="M0 0V234.876C15.5226 239.511 31.9706 242 49 242C143.441 242 220 165.441 220 71C220 45.6696 214.492 21.6255 204.609 0H0Z" fill="#FDF0DD"/>
<path fill-rule="evenodd" clip-rule="evenodd" d="M1440 487.326C1423.48 480.043 1405.21 476 1386 476C1311.99 476 1252 535.994 1252 610C1252 684.006 1311.99 744 1386 744C1405.21 744 1423.48 739.957 1440 732.674V487.326Z" fill="#FDF0DD"/>
<defs>
<linearGradient id="paint0_linear" x1="351" y1="1473" x2="91" y2="1603" gradientUnits="userSpaceOnUse">
<stop offset="0.370915" stop-color="#FDF0DD"/>
<stop offset="0.921557" stop-color="#66B8FF"/>
</linearGradient>
<linearGradient id="paint1_linear" x1="869" y1="2169" x2="869" y2="2289" gradientUnits="userSpaceOnUse">
<stop offset="0.266776" stop-color="#FDF0DD"/>
<stop offset="1" stop-color="#66B8FF"/>
</linearGradient>
<linearGradient id="paint2_linear" x1="366" y1="1396" x2="330" y2="1360" gradientUnits="userSpaceOnUse">
<stop offset="0.25" stop-color="#FDF0DD"/>
<stop offset="0.84375" stop-color="#66B8FF"/>
</linearGradient>
<linearGradient id="paint3_linear" x1="1097" y1="1130" x2="971" y2="1004" gradientUnits="userSpaceOnUse">
<stop stop-color="#66B8FF"/>
<stop offset="0.59595" stop-color="#FDF0DD"/>
</linearGradient>
<linearGradient id="paint4_linear" x1="1133" y1="952" x2="1197" y2="888" gradientUnits="userSpaceOnUse">
<stop stop-color="#66B8FF"/>
<stop offset="0.811669" stop-color="#FDF0DD"/>
</linearGradient>
<linearGradient id="paint5_linear" x1="1210" y1="1869" x2="1030" y2="2049" gradientUnits="userSpaceOnUse">
<stop offset="0.359817" stop-color="#FDF0DD"/>
<stop offset="0.82127" stop-color="#66B8FF"/>
</linearGradient>
</defs>
</svg>
