<svg width="414" height="2244" viewBox="0 0 414 2244" fill="none" xmlns="http://www.w3.org/2000/svg">
<circle cx="139" cy="694" r="18" fill="url(#paint0_linear)"/>
<circle cx="236" cy="575" r="63" fill="url(#paint1_linear)" style="mix-blend-mode:hard-light"/>
<circle cx="136" cy="2047" r="63" fill="url(#paint2_linear)" style="mix-blend-mode:hard-light"/>
<circle cx="367" cy="428" r="32" fill="url(#paint3_linear)" style="mix-blend-mode:hard-light"/>
<circle cx="221" cy="1127" r="18" fill="url(#paint4_linear)"/>
<path fill-rule="evenodd" clip-rule="evenodd" d="M0 1048.45C3.95151 1048.82 7.95417 1049 12 1049C83.797 1049 142 990.797 142 919C142 847.203 83.797 789 12 789C7.95417 789 3.95151 789.185 0 789.546V1048.45Z" fill="url(#paint5_linear)"/>
<path fill-rule="evenodd" clip-rule="evenodd" d="M414 -0.000244141H381.248C381.084 1.12814 381 2.27771 381 3.4442C381 18.6627 395.327 30.9998 413 30.9998C413.335 30.9998 413.668 30.9953 414 30.9866V-0.000244141Z" fill="url(#paint6_linear)" style="mix-blend-mode:hard-light"/>
<circle cx="80" cy="1550" r="62" fill="#66B8FF"/>
<circle cx="85" cy="1887" r="12" fill="#66B8FF"/>
<circle cx="303" cy="1694" r="82" fill="#FDF0DD"/>
<circle cx="337" cy="2227" r="17" fill="#66B8FF"/>
<circle cx="103" cy="1278" r="32" fill="#FDF0DD"/>
<path fill-rule="evenodd" clip-rule="evenodd" d="M0 156.211C3.25781 156.73 6.59766 157 10 157C44.793 157 73 128.794 73 94C73 59.2061 44.793 31 10 31C6.59766 31 3.25781 31.2698 0 31.7893V156.211Z" fill="url(#paint7_linear)" style="mix-blend-mode:hard-light"/>
<defs>
<linearGradient id="paint0_linear" x1="157" y1="712" x2="121" y2="676" gradientUnits="userSpaceOnUse">
<stop stop-color="#FDF0DD"/>
<stop offset="1" stop-color="#66B8FF"/>
</linearGradient>
<linearGradient id="paint1_linear" x1="299" y1="638" x2="173" y2="512" gradientUnits="userSpaceOnUse">
<stop stop-color="#66B8FF"/>
<stop offset="0.59595" stop-color="#FDF0DD"/>
</linearGradient>
<linearGradient id="paint2_linear" x1="199" y1="2110" x2="73" y2="1984" gradientUnits="userSpaceOnUse">
<stop stop-color="#66B8FF"/>
<stop offset="0.59595" stop-color="#FDF0DD"/>
</linearGradient>
<linearGradient id="paint3_linear" x1="335" y1="460" x2="399" y2="396" gradientUnits="userSpaceOnUse">
<stop stop-color="#66B8FF"/>
<stop offset="0.811669" stop-color="#FDF0DD"/>
</linearGradient>
<linearGradient id="paint4_linear" x1="239" y1="1145" x2="203" y2="1109" gradientUnits="userSpaceOnUse">
<stop stop-color="#FDF0DD"/>
<stop offset="1" stop-color="#66B8FF"/>
</linearGradient>
<linearGradient id="paint5_linear" x1="142" y1="789" x2="-118" y2="919" gradientUnits="userSpaceOnUse">
<stop offset="0.256898" stop-color="#FDF0DD"/>
<stop offset="1" stop-color="#66B8FF"/>
</linearGradient>
<linearGradient id="paint6_linear" x1="381" y1="30.9998" x2="435.501" y2="-32.2913" gradientUnits="userSpaceOnUse">
<stop stop-color="#66B8FF"/>
<stop offset="0.811669" stop-color="#FDF0DD"/>
</linearGradient>
<linearGradient id="paint7_linear" x1="73" y1="157" x2="-53" y2="31" gradientUnits="userSpaceOnUse">
<stop stop-color="#66B8FF"/>
<stop offset="0.59595" stop-color="#FDF0DD"/>
</linearGradient>
</defs>
</svg>
