<svg width="1440" height="1671" viewBox="0 0 1440 1671" fill="none" xmlns="http://www.w3.org/2000/svg">
<circle cx="221" cy="985" r="130" fill="url(#paint0_linear)"/>
<circle cx="869" cy="1611" r="60" fill="url(#paint1_linear)"/>
<circle cx="348" cy="760" r="18" fill="url(#paint2_linear)"/>
<circle cx="1034" cy="449" r="63" fill="url(#paint3_linear)" style="mix-blend-mode:hard-light"/>
<circle cx="1165" cy="302" r="32" fill="url(#paint4_linear)" style="mix-blend-mode:hard-light"/>
<path fill-rule="evenodd" clip-rule="evenodd" d="M131 600C84.0305 600 39.582 589.206 0 569.963V30.0371C39.582 10.7941 84.0305 0 131 0C296.685 0 431 134.315 431 300C431 465.685 296.685 600 131 600Z" fill="url(#paint5_linear)"/>
<circle cx="1120" cy="1341" r="90" fill="url(#paint6_linear)"/>
<path fill-rule="evenodd" clip-rule="evenodd" d="M1440 532.696C1416.93 527.014 1392.82 524 1368 524C1202.31 524 1068 658.315 1068 824C1068 989.685 1202.31 1124 1368 1124C1392.82 1124 1416.93 1120.99 1440 1115.3V532.696Z" fill="url(#paint7_linear)"/>
<defs>
<linearGradient id="paint0_linear" x1="351" y1="855" x2="91" y2="985" gradientUnits="userSpaceOnUse">
<stop offset="0.256898" stop-color="#FDF0DD"/>
<stop offset="1" stop-color="#66B8FF"/>
</linearGradient>
<linearGradient id="paint1_linear" x1="869" y1="1551" x2="869" y2="1671" gradientUnits="userSpaceOnUse">
<stop stop-color="#FDF0DD"/>
<stop offset="1" stop-color="#66B8FF"/>
</linearGradient>
<linearGradient id="paint2_linear" x1="366" y1="778" x2="330" y2="742" gradientUnits="userSpaceOnUse">
<stop stop-color="#FDF0DD"/>
<stop offset="1" stop-color="#66B8FF"/>
</linearGradient>
<linearGradient id="paint3_linear" x1="1097" y1="512" x2="971" y2="386" gradientUnits="userSpaceOnUse">
<stop stop-color="#66B8FF"/>
<stop offset="0.59595" stop-color="#FDF0DD"/>
</linearGradient>
<linearGradient id="paint4_linear" x1="1133" y1="334" x2="1197" y2="270" gradientUnits="userSpaceOnUse">
<stop stop-color="#66B8FF"/>
<stop offset="0.811669" stop-color="#FDF0DD"/>
</linearGradient>
<linearGradient id="paint5_linear" x1="131" y1="9.19225e-06" x2="519.5" y2="275.5" gradientUnits="userSpaceOnUse">
<stop stop-color="#66B8FF"/>
<stop offset="1" stop-color="#66B8FF" stop-opacity="0"/>
</linearGradient>
<linearGradient id="paint6_linear" x1="1210" y1="1251" x2="1030" y2="1431" gradientUnits="userSpaceOnUse">
<stop offset="0.331472" stop-color="#FDF0DD"/>
<stop offset="1" stop-color="#66B8FF"/>
</linearGradient>
<linearGradient id="paint7_linear" x1="1668" y1="824" x2="1150.5" y2="1140" gradientUnits="userSpaceOnUse">
<stop offset="0.153611" stop-color="#FDF0DD"/>
<stop offset="1" stop-color="#FDF0DD" stop-opacity="0"/>
</linearGradient>
</defs>
</svg>
