<svg width="161" height="24" viewBox="0 0 161 24" fill="none" xmlns="http://www.w3.org/2000/svg">
<path d="M42.192 19.216C41.448 19.216 40.752 19.084 40.104 18.82C39.456 18.556 38.892 18.166 38.412 17.65C37.944 17.134 37.572 16.498 37.296 15.742C37.02 14.986 36.882 14.122 36.882 13.15C36.882 12.19 37.02 11.332 37.296 10.576C37.584 9.808 37.968 9.16 38.448 8.632C38.94 8.104 39.51 7.702 40.158 7.426C40.818 7.15 41.52 7.012 42.264 7.012C43.008 7.012 43.668 7.162 44.244 7.462C44.82 7.762 45.294 8.11 45.666 8.506L44.55 9.856C44.238 9.544 43.902 9.298 43.542 9.118C43.182 8.926 42.774 8.83 42.318 8.83C41.838 8.83 41.394 8.932 40.986 9.136C40.59 9.328 40.242 9.61 39.942 9.982C39.654 10.342 39.426 10.786 39.258 11.314C39.102 11.842 39.024 12.436 39.024 13.096C39.024 14.44 39.312 15.496 39.888 16.264C40.476 17.02 41.268 17.398 42.264 17.398C42.792 17.398 43.26 17.29 43.668 17.074C44.076 16.846 44.448 16.552 44.784 16.192L45.9 17.506C45.42 18.058 44.868 18.484 44.244 18.784C43.632 19.072 42.948 19.216 42.192 19.216ZM47.6851 19V10.162H49.3951L49.5391 11.728H49.6111C49.9231 11.152 50.3011 10.714 50.7451 10.414C51.1891 10.102 51.6451 9.946 52.1131 9.946C52.5331 9.946 52.8691 10.006 53.1211 10.126L52.7611 11.926C52.6051 11.878 52.4611 11.842 52.3291 11.818C52.1971 11.794 52.0351 11.782 51.8431 11.782C51.4951 11.782 51.1291 11.92 50.7451 12.196C50.3611 12.46 50.0311 12.928 49.7551 13.6V19H47.6851ZM58.0042 19.216C57.3922 19.216 56.8222 19.114 56.2942 18.91C55.7662 18.694 55.3042 18.388 54.9082 17.992C54.5122 17.596 54.2002 17.116 53.9722 16.552C53.7562 15.976 53.6482 15.322 53.6482 14.59C53.6482 13.87 53.7622 13.222 53.9902 12.646C54.2182 12.07 54.5182 11.584 54.8902 11.188C55.2742 10.792 55.7122 10.486 56.2042 10.27C56.6962 10.054 57.2002 9.946 57.7162 9.946C58.3162 9.946 58.8442 10.048 59.3002 10.252C59.7562 10.456 60.1342 10.744 60.4342 11.116C60.7462 11.488 60.9802 11.932 61.1362 12.448C61.2922 12.964 61.3702 13.528 61.3702 14.14C61.3702 14.344 61.3582 14.536 61.3342 14.716C61.3222 14.896 61.3042 15.04 61.2802 15.148H55.6642C55.7602 15.94 56.0362 16.552 56.4922 16.984C56.9602 17.404 57.5542 17.614 58.2742 17.614C58.6582 17.614 59.0122 17.56 59.3362 17.452C59.6722 17.332 60.0022 17.17 60.3262 16.966L61.0282 18.262C60.6082 18.538 60.1402 18.766 59.6242 18.946C59.1082 19.126 58.5682 19.216 58.0042 19.216ZM55.6462 13.744H59.5702C59.5702 13.06 59.4202 12.526 59.1202 12.142C58.8322 11.746 58.3822 11.548 57.7702 11.548C57.2422 11.548 56.7802 11.734 56.3842 12.106C55.9882 12.478 55.7422 13.024 55.6462 13.744ZM65.2783 19.216C64.4983 19.216 63.8683 18.982 63.3883 18.514C62.9083 18.034 62.6683 17.404 62.6683 16.624C62.6683 16.156 62.7643 15.742 62.9563 15.382C63.1603 15.01 63.4723 14.692 63.8923 14.428C64.3243 14.164 64.8643 13.942 65.5123 13.762C66.1723 13.582 66.9583 13.444 67.8703 13.348C67.8583 13.12 67.8223 12.904 67.7623 12.7C67.7143 12.484 67.6243 12.298 67.4923 12.142C67.3723 11.974 67.2103 11.848 67.0063 11.764C66.8023 11.668 66.5503 11.62 66.2503 11.62C65.8183 11.62 65.3923 11.704 64.9723 11.872C64.5643 12.04 64.1623 12.244 63.7663 12.484L63.0103 11.098C63.5023 10.786 64.0543 10.516 64.6663 10.288C65.2783 10.06 65.9383 9.946 66.6463 9.946C67.7503 9.946 68.5723 10.276 69.1123 10.936C69.6643 11.584 69.9403 12.526 69.9403 13.762V19H68.2303L68.0863 18.028H68.0143C67.6183 18.364 67.1923 18.646 66.7363 18.874C66.2923 19.102 65.8063 19.216 65.2783 19.216ZM65.9443 17.596C66.3043 17.596 66.6283 17.512 66.9163 17.344C67.2163 17.176 67.5343 16.936 67.8703 16.624V14.644C67.2703 14.716 66.7663 14.812 66.3583 14.932C65.9503 15.052 65.6203 15.19 65.3683 15.346C65.1163 15.49 64.9363 15.658 64.8283 15.85C64.7203 16.042 64.6663 16.246 64.6663 16.462C64.6663 16.858 64.7863 17.146 65.0263 17.326C65.2663 17.506 65.5723 17.596 65.9443 17.596ZM75.2503 19.216C74.7343 19.216 74.2963 19.138 73.9363 18.982C73.5883 18.826 73.3003 18.61 73.0723 18.334C72.8563 18.046 72.6943 17.71 72.5863 17.326C72.4903 16.93 72.4423 16.492 72.4423 16.012V11.8H71.1823V10.252L72.5503 10.162L72.8023 7.75H74.5303V10.162H76.7803V11.8H74.5303V16.012C74.5303 17.044 74.9443 17.56 75.7723 17.56C75.9283 17.56 76.0843 17.542 76.2403 17.506C76.4083 17.47 76.5583 17.422 76.6903 17.362L77.0503 18.892C76.8103 18.976 76.5343 19.048 76.2223 19.108C75.9223 19.18 75.5983 19.216 75.2503 19.216ZM81.9769 19.216C81.4249 19.216 80.8969 19.114 80.3929 18.91C79.8889 18.706 79.4389 18.406 79.0429 18.01C78.6589 17.614 78.3529 17.128 78.1249 16.552C77.8969 15.976 77.7829 15.322 77.7829 14.59C77.7829 13.858 77.8969 13.204 78.1249 12.628C78.3529 12.052 78.6589 11.566 79.0429 11.17C79.4389 10.774 79.8889 10.474 80.3929 10.27C80.8969 10.054 81.4249 9.946 81.9769 9.946C82.5289 9.946 83.0569 10.054 83.5609 10.27C84.0769 10.474 84.5269 10.774 84.9109 11.17C85.2949 11.566 85.6009 12.052 85.8289 12.628C86.0689 13.204 86.1889 13.858 86.1889 14.59C86.1889 15.322 86.0689 15.976 85.8289 16.552C85.6009 17.128 85.2949 17.614 84.9109 18.01C84.5269 18.406 84.0769 18.706 83.5609 18.91C83.0569 19.114 82.5289 19.216 81.9769 19.216ZM81.9769 17.524C82.6249 17.524 83.1349 17.26 83.5069 16.732C83.8789 16.192 84.0649 15.478 84.0649 14.59C84.0649 13.69 83.8789 12.976 83.5069 12.448C83.1349 11.908 82.6249 11.638 81.9769 11.638C81.3289 11.638 80.8189 11.908 80.4469 12.448C80.0869 12.976 79.9069 13.69 79.9069 14.59C79.9069 15.478 80.0869 16.192 80.4469 16.732C80.8189 17.26 81.3289 17.524 81.9769 17.524ZM88.2378 19V10.162H89.9478L90.0918 11.728H90.1638C90.4758 11.152 90.8538 10.714 91.2978 10.414C91.7418 10.102 92.1978 9.946 92.6658 9.946C93.0858 9.946 93.4218 10.006 93.6738 10.126L93.3138 11.926C93.1578 11.878 93.0138 11.842 92.8818 11.818C92.7498 11.794 92.5878 11.782 92.3958 11.782C92.0478 11.782 91.6818 11.92 91.2978 12.196C90.9138 12.46 90.5838 12.928 90.3078 13.6V19H88.2378ZM102.84 19.216C102.432 19.216 102.018 19.12 101.598 18.928C101.19 18.724 100.8 18.436 100.428 18.064H100.374L100.194 19H98.5562V6.292H100.626V9.568L100.572 11.044C100.944 10.72 101.346 10.456 101.778 10.252C102.222 10.048 102.672 9.946 103.128 9.946C103.68 9.946 104.172 10.054 104.604 10.27C105.036 10.474 105.402 10.774 105.702 11.17C106.002 11.554 106.23 12.022 106.386 12.574C106.542 13.126 106.62 13.744 106.62 14.428C106.62 15.184 106.512 15.862 106.296 16.462C106.092 17.05 105.816 17.548 105.468 17.956C105.12 18.364 104.718 18.676 104.262 18.892C103.806 19.108 103.332 19.216 102.84 19.216ZM102.408 17.506C102.996 17.506 103.488 17.254 103.884 16.75C104.28 16.234 104.478 15.472 104.478 14.464C104.478 13.576 104.328 12.886 104.028 12.394C103.728 11.902 103.242 11.656 102.57 11.656C101.946 11.656 101.298 11.986 100.626 12.646V16.768C100.938 17.044 101.244 17.236 101.544 17.344C101.856 17.452 102.144 17.506 102.408 17.506ZM112.479 19.216C111.867 19.216 111.297 19.114 110.769 18.91C110.241 18.694 109.779 18.388 109.383 17.992C108.987 17.596 108.675 17.116 108.447 16.552C108.231 15.976 108.123 15.322 108.123 14.59C108.123 13.87 108.237 13.222 108.465 12.646C108.693 12.07 108.993 11.584 109.365 11.188C109.749 10.792 110.187 10.486 110.679 10.27C111.171 10.054 111.675 9.946 112.191 9.946C112.791 9.946 113.319 10.048 113.775 10.252C114.231 10.456 114.609 10.744 114.909 11.116C115.221 11.488 115.455 11.932 115.611 12.448C115.767 12.964 115.845 13.528 115.845 14.14C115.845 14.344 115.833 14.536 115.809 14.716C115.797 14.896 115.779 15.04 115.755 15.148H110.139C110.235 15.94 110.511 16.552 110.967 16.984C111.435 17.404 112.029 17.614 112.749 17.614C113.133 17.614 113.487 17.56 113.811 17.452C114.147 17.332 114.477 17.17 114.801 16.966L115.503 18.262C115.083 18.538 114.615 18.766 114.099 18.946C113.583 19.126 113.043 19.216 112.479 19.216ZM110.121 13.744H114.045C114.045 13.06 113.895 12.526 113.595 12.142C113.307 11.746 112.857 11.548 112.245 11.548C111.717 11.548 111.255 11.734 110.859 12.106C110.463 12.478 110.217 13.024 110.121 13.744ZM117.822 19V10.162H119.532L119.676 11.35H119.748C120.144 10.966 120.57 10.636 121.026 10.36C121.494 10.084 122.034 9.946 122.646 9.946C123.594 9.946 124.284 10.252 124.716 10.864C125.148 11.464 125.364 12.328 125.364 13.456V19H123.294V13.726C123.294 12.994 123.186 12.478 122.97 12.178C122.754 11.878 122.4 11.728 121.908 11.728C121.524 11.728 121.182 11.824 120.882 12.016C120.594 12.196 120.264 12.466 119.892 12.826V19H117.822ZM131.674 19.216C131.062 19.216 130.492 19.114 129.964 18.91C129.436 18.694 128.974 18.388 128.578 17.992C128.182 17.596 127.87 17.116 127.642 16.552C127.426 15.976 127.318 15.322 127.318 14.59C127.318 13.87 127.432 13.222 127.66 12.646C127.888 12.07 128.188 11.584 128.56 11.188C128.944 10.792 129.382 10.486 129.874 10.27C130.366 10.054 130.87 9.946 131.386 9.946C131.986 9.946 132.514 10.048 132.97 10.252C133.426 10.456 133.804 10.744 134.104 11.116C134.416 11.488 134.65 11.932 134.806 12.448C134.962 12.964 135.04 13.528 135.04 14.14C135.04 14.344 135.028 14.536 135.004 14.716C134.992 14.896 134.974 15.04 134.95 15.148H129.334C129.43 15.94 129.706 16.552 130.162 16.984C130.63 17.404 131.224 17.614 131.944 17.614C132.328 17.614 132.682 17.56 133.006 17.452C133.342 17.332 133.672 17.17 133.996 16.966L134.698 18.262C134.278 18.538 133.81 18.766 133.294 18.946C132.778 19.126 132.238 19.216 131.674 19.216ZM129.316 13.744H133.24C133.24 13.06 133.09 12.526 132.79 12.142C132.502 11.746 132.052 11.548 131.44 11.548C130.912 11.548 130.45 11.734 130.054 12.106C129.658 12.478 129.412 13.024 129.316 13.744ZM137.307 19V11.8H136.119V10.252L137.307 10.162V9.244C137.307 8.788 137.361 8.368 137.469 7.984C137.577 7.588 137.751 7.252 137.991 6.976C138.231 6.688 138.531 6.466 138.891 6.31C139.263 6.154 139.713 6.076 140.241 6.076C140.553 6.076 140.847 6.106 141.123 6.166C141.411 6.226 141.657 6.298 141.861 6.382L141.465 7.93C141.141 7.786 140.817 7.714 140.493 7.714C139.749 7.714 139.377 8.212 139.377 9.208V10.162H141.105V11.8H139.377V19H137.307ZM142.66 19V10.162H144.73V19H142.66ZM143.704 8.614C143.332 8.614 143.026 8.506 142.786 8.29C142.546 8.074 142.426 7.792 142.426 7.444C142.426 7.096 142.546 6.814 142.786 6.598C143.026 6.37 143.332 6.256 143.704 6.256C144.076 6.256 144.382 6.37 144.622 6.598C144.862 6.814 144.982 7.096 144.982 7.444C144.982 7.792 144.862 8.074 144.622 8.29C144.382 8.506 144.076 8.614 143.704 8.614ZM150.485 19.216C149.969 19.216 149.531 19.138 149.171 18.982C148.823 18.826 148.535 18.61 148.307 18.334C148.091 18.046 147.929 17.71 147.821 17.326C147.725 16.93 147.677 16.492 147.677 16.012V11.8H146.417V10.252L147.785 10.162L148.037 7.75H149.765V10.162H152.015V11.8H149.765V16.012C149.765 17.044 150.179 17.56 151.007 17.56C151.163 17.56 151.319 17.542 151.475 17.506C151.643 17.47 151.793 17.422 151.925 17.362L152.285 18.892C152.045 18.976 151.769 19.048 151.457 19.108C151.157 19.18 150.833 19.216 150.485 19.216ZM156.165 19.216C155.553 19.216 154.947 19.102 154.347 18.874C153.759 18.634 153.249 18.34 152.817 17.992L153.789 16.66C154.185 16.972 154.575 17.218 154.959 17.398C155.355 17.566 155.781 17.65 156.237 17.65C156.717 17.65 157.071 17.554 157.299 17.362C157.527 17.158 157.641 16.9 157.641 16.588C157.641 16.408 157.587 16.252 157.479 16.12C157.371 15.976 157.227 15.85 157.047 15.742C156.867 15.634 156.663 15.538 156.435 15.454C156.207 15.358 155.979 15.262 155.751 15.166C155.463 15.058 155.169 14.932 154.869 14.788C154.569 14.644 154.299 14.47 154.059 14.266C153.831 14.062 153.639 13.828 153.483 13.564C153.339 13.288 153.267 12.964 153.267 12.592C153.267 11.812 153.555 11.176 154.131 10.684C154.707 10.192 155.493 9.946 156.489 9.946C157.101 9.946 157.653 10.054 158.145 10.27C158.637 10.486 159.063 10.732 159.423 11.008L158.469 12.268C158.157 12.04 157.839 11.86 157.515 11.728C157.203 11.584 156.873 11.512 156.525 11.512C156.081 11.512 155.751 11.608 155.535 11.8C155.331 11.98 155.229 12.208 155.229 12.484C155.229 12.664 155.277 12.82 155.373 12.952C155.481 13.072 155.619 13.18 155.787 13.276C155.955 13.372 156.147 13.462 156.363 13.546C156.591 13.63 156.825 13.714 157.065 13.798C157.365 13.906 157.665 14.032 157.965 14.176C158.265 14.308 158.535 14.476 158.775 14.68C159.027 14.884 159.225 15.136 159.369 15.436C159.525 15.724 159.603 16.072 159.603 16.48C159.603 16.864 159.525 17.224 159.369 17.56C159.225 17.884 159.009 18.172 158.721 18.424C158.433 18.664 158.073 18.856 157.641 19C157.209 19.144 156.717 19.216 156.165 19.216Z" fill="#B485FF"/>
<path d="M0 21.3981C5.504 21.8541 3.533 16.0061 8.626 15.9531L10.832 17.7941C11.381 24.4391 3.253 25.9211 0 21.3981H0ZM16.878 12.8601C18.591 10.1731 23.894 1.16206 23.894 1.16206C24.317 0.415057 23.379 -0.365943 22.724 0.186057C22.724 0.186057 14.837 7.04306 12.511 9.21606C10.673 10.9351 10.665 11.7201 10.07 14.5521L12.086 16.2331C14.756 15.1351 15.525 14.9851 16.878 12.8601Z" fill="#B485FF"/>
</svg>
