<svg width="25" height="24" viewBox="0 0 25 24" fill="none" xmlns="http://www.w3.org/2000/svg">
<path d="M18.6769 21.2584C20.0088 18.0344 16.2057 18.1186 17.1602 15.0459L18.6643 14.066C22.6586 14.987 21.9529 20.1538 18.6769 21.2584ZM16.9473 9.50115C15.7066 7.96511 11.4604 3.07949 11.4604 3.07949C11.1052 2.68447 10.4667 3.10149 10.6629 3.59931C10.6629 3.59931 13.1488 9.63327 13.9701 11.4412C14.6203 12.8701 15.078 13.0227 16.6199 13.9138L17.9936 13.0179C17.8678 11.2056 17.9289 10.7149 16.9473 9.50115Z" fill="#0BDBFE"/>
<path d="M0 21.3981C5.504 21.8541 3.533 16.0061 8.626 15.9531L10.832 17.7941C11.381 24.4391 3.253 25.9211 0 21.3981ZM16.878 12.8601C18.591 10.1731 23.894 1.16206 23.894 1.16206C24.317 0.415057 23.379 -0.365944 22.724 0.186057C22.724 0.186057 14.837 7.04306 12.511 9.21606C10.673 10.9351 10.665 11.7201 10.07 14.5521L12.086 16.2331C14.756 15.1351 15.525 14.9851 16.878 12.8601Z" fill="#7B39FD"/>
</svg>
