<svg width="72" height="72" viewBox="0 0 72 72" fill="none" xmlns="http://www.w3.org/2000/svg">
<g filter="url(#filter0_d)">
<rect x="12" y="12" width="48" height="48" rx="16" fill="#040605"/>
</g>
<path d="M42.6769 45.2584C44.0088 42.0344 40.2057 42.1186 41.1602 39.0459L42.6643 38.066C46.6586 38.987 45.9529 44.1538 42.6769 45.2584ZM40.9473 33.5012C39.7066 31.9651 35.4604 27.0795 35.4604 27.0795C35.1052 26.6845 34.4667 27.1015 34.6629 27.5993C34.6629 27.5993 37.1488 33.6333 37.9701 35.4412C38.6203 36.8701 39.078 37.0227 40.6199 37.9138L41.9936 37.0179C41.8678 35.2056 41.9289 34.7149 40.9473 33.5012Z" fill="#0BDBFE"/>
<path d="M24 45.3981C29.504 45.8541 27.533 40.0061 32.626 39.9531L34.832 41.7941C35.381 48.4391 27.253 49.9211 24 45.3981ZM40.878 36.8601C42.591 34.1731 47.894 25.1621 47.894 25.1621C48.317 24.4151 47.379 23.6341 46.724 24.1861C46.724 24.1861 38.837 31.0431 36.511 33.2161C34.673 34.9351 34.665 35.7201 34.07 38.5521L36.086 40.2331C38.756 39.1351 39.525 38.9851 40.878 36.8601Z" fill="#7B39FD"/>
<defs>
<filter id="filter0_d" x="0" y="0" width="72" height="72" filterUnits="userSpaceOnUse" color-interpolation-filters="sRGB">
<feFlood flood-opacity="0" result="BackgroundImageFix"/>
<feColorMatrix in="SourceAlpha" type="matrix" values="0 0 0 0 0 0 0 0 0 0 0 0 0 0 0 0 0 0 127 0" result="hardAlpha"/>
<feOffset/>
<feGaussianBlur stdDeviation="6"/>
<feComposite in2="hardAlpha" operator="out"/>
<feColorMatrix type="matrix" values="0 0 0 0 0 0 0 0 0 0 0 0 0 0 0 0 0 0 0.3 0"/>
<feBlend mode="normal" in2="BackgroundImageFix" result="effect1_dropShadow"/>
<feBlend mode="normal" in="SourceGraphic" in2="effect1_dropShadow" result="shape"/>
</filter>
</defs>
</svg>
