<svg width="220" height="220" viewBox="0 0 220 220" fill="none" xmlns="http://www.w3.org/2000/svg">
<path d="M220 124.813V95.1867C204.866 89.8058 195.305 88.2933 190.493 76.6792V76.67C185.662 65.0192 191.409 57.1083 198.257 42.6892L177.311 21.7433C163.002 28.545 155.008 34.3475 143.33 29.5075H143.321C131.688 24.6858 130.167 15.0608 124.813 0H95.1867C89.8517 14.9875 88.3208 24.6767 76.6792 29.5075H76.67C65.0192 34.3475 57.1267 28.6092 42.6892 21.7433L21.7433 42.6892C28.5725 57.0625 34.3475 65.0008 29.5075 76.67C24.6767 88.3208 14.9875 89.8517 0 95.1867V124.813C14.96 130.13 24.6767 131.679 29.5075 143.321C34.3658 155.073 28.4625 163.176 21.7433 177.302L42.6892 198.257C57.0075 191.446 65.0008 185.653 76.67 190.493H76.6792C88.3208 195.314 89.8425 204.967 95.1867 220H124.813C130.148 205.003 131.688 195.342 143.394 190.465H143.403C154.972 185.662 162.837 191.391 177.302 198.266L198.248 177.311C191.428 162.983 185.643 155.008 190.474 143.339C195.305 131.688 205.031 130.139 220 124.813ZM110 146.667C89.7508 146.667 73.3333 130.249 73.3333 110C73.3333 89.7508 89.7508 73.3333 110 73.3333C130.249 73.3333 146.667 89.7508 146.667 110C146.667 130.249 130.249 146.667 110 146.667Z" fill="url(#paint0_radial)"/>
<defs>
<radialGradient id="paint0_radial" cx="0" cy="0" r="1" gradientUnits="userSpaceOnUse" gradientTransform="translate(110 110) rotate(90) scale(110)">
<stop offset="0.662948" stop-color="#66B8FF"/>
<stop offset="1" stop-color="#33A0FF"/>
</radialGradient>
</defs>
</svg>
