<svg width="110" height="110" viewBox="0 0 110 110" fill="none" xmlns="http://www.w3.org/2000/svg">
<path d="M110 62.4067V47.5933C102.433 44.9029 97.6525 44.1467 95.2463 38.3396V38.335C92.8308 32.5096 95.7046 28.5542 99.1283 21.3446L88.6554 10.8717C81.5008 14.2725 77.5042 17.1738 71.665 14.7538H71.6604C65.8442 12.3429 65.0833 7.53042 62.4067 0H47.5933C44.9258 7.49375 44.1604 12.3383 38.3396 14.7538H38.335C32.5096 17.1738 28.5633 14.3046 21.3446 10.8717L10.8717 21.3446C14.2863 28.5312 17.1738 32.5004 14.7538 38.335C12.3383 44.1604 7.49375 44.9258 0 47.5933V62.4067C7.48 65.065 12.3383 65.8396 14.7538 71.6604C17.1829 77.5363 14.2313 81.5879 10.8717 88.6508L21.3446 99.1283C28.5037 95.7229 32.5004 92.8263 38.335 95.2463H38.3396C44.1604 97.6571 44.9212 102.483 47.5933 110H62.4067C65.0742 102.502 65.8442 97.6708 71.6971 95.2325H71.7017C77.4858 92.8308 81.4183 95.6954 88.6508 99.1329L99.1238 88.6554C95.7138 81.4917 92.8217 77.5042 95.2371 71.6696C97.6525 65.8442 102.515 65.0696 110 62.4067ZM55 73.3333C44.8754 73.3333 36.6667 65.1246 36.6667 55C36.6667 44.8754 44.8754 36.6667 55 36.6667C65.1246 36.6667 73.3333 44.8754 73.3333 55C73.3333 65.1246 65.1246 73.3333 55 73.3333Z" fill="url(#paint0_radial)"/>
<defs>
<radialGradient id="paint0_radial" cx="0" cy="0" r="1" gradientUnits="userSpaceOnUse" gradientTransform="translate(55 55) rotate(90) scale(55)">
<stop offset="0.635417" stop-color="#66B8FF"/>
<stop offset="1" stop-color="#33A0FF"/>
</radialGradient>
</defs>
</svg>
