<svg width="80" height="80" viewBox="0 0 80 80" fill="none" xmlns="http://www.w3.org/2000/svg">
<path d="M80 45.3867V34.6133C74.4967 32.6567 71.02 32.1067 69.27 27.8833V27.88C67.5133 23.6433 69.6033 20.7667 72.0933 15.5233L64.4767 7.90667C59.2733 10.38 56.3667 12.49 52.12 10.73H52.1167C47.8867 8.97667 47.3333 5.47667 45.3867 0H34.6133C32.6733 5.45 32.1167 8.97333 27.8833 10.73H27.88C23.6433 12.49 20.7733 10.4033 15.5233 7.90667L7.90667 15.5233C10.39 20.75 12.49 23.6367 10.73 27.88C8.97333 32.1167 5.45 32.6733 0 34.6133V45.3867C5.44 47.32 8.97333 47.8833 10.73 52.1167C12.4967 56.39 10.35 59.3367 7.90667 64.4733L15.5233 72.0933C20.73 69.6167 23.6367 67.51 27.88 69.27H27.8833C32.1167 71.0233 32.67 74.5333 34.6133 80H45.3867C47.3267 74.5467 47.8867 71.0333 52.1433 69.26H52.1467C56.3533 67.5133 59.2133 69.5967 64.4733 72.0967L72.09 64.4767C69.61 59.2667 67.5067 56.3667 69.2633 52.1233C71.02 47.8867 74.5567 47.3233 80 45.3867ZM40 53.3333C32.6367 53.3333 26.6667 47.3633 26.6667 40C26.6667 32.6367 32.6367 26.6667 40 26.6667C47.3633 26.6667 53.3333 32.6367 53.3333 40C53.3333 47.3633 47.3633 53.3333 40 53.3333Z" fill="#FDF0DD"/>
</svg>
