<svg width="187" height="39" viewBox="0 0 187 39" fill="none" xmlns="http://www.w3.org/2000/svg">
<g filter="url(#filter0_dd)">
<path d="M35.2 1H2.8C1.80589 1 1 1.80589 1 2.8V35.2C1 36.1941 1.80589 37 2.8 37H35.2C36.1941 37 37 36.1941 37 35.2V2.8C37 1.80589 36.1941 1 35.2 1Z" fill="white"/>
</g>
<path fill-rule="evenodd" clip-rule="evenodd" d="M26.776 19.1841C26.776 18.6097 26.7245 18.0575 26.6287 17.5273H19V20.6605H23.3593C23.1715 21.673 22.6008 22.5309 21.743 23.1052V25.1376H24.3607C25.8924 23.7275 26.776 21.6509 26.776 19.1841Z" fill="#4285F4"/>
<path fill-rule="evenodd" clip-rule="evenodd" d="M19.0002 27.1C21.1872 27.1 23.0207 26.3747 24.3609 25.1376L21.7431 23.1052C21.0178 23.5912 20.09 23.8784 19.0002 23.8784C16.8905 23.8784 15.1048 22.4535 14.4679 20.539H11.7617V22.6376C13.0945 25.2849 15.8338 27.1 19.0002 27.1Z" fill="#34A853"/>
<path fill-rule="evenodd" clip-rule="evenodd" d="M14.4681 20.539C14.3061 20.053 14.214 19.5339 14.214 19C14.214 18.4661 14.3061 17.947 14.4681 17.461V15.3624H11.7619C11.2133 16.4559 10.9004 17.693 10.9004 19C10.9004 20.307 11.2133 21.5441 11.7619 22.6376L14.4681 20.539Z" fill="#FBBC05"/>
<path fill-rule="evenodd" clip-rule="evenodd" d="M19.0002 14.1216C20.1894 14.1216 21.2571 14.5303 22.0966 15.3329L24.4198 13.0097C23.017 11.7027 21.1835 10.9 19.0002 10.9C15.8338 10.9 13.0945 12.7152 11.7617 15.3624L14.4679 17.461C15.1048 15.5465 16.8905 14.1216 19.0002 14.1216Z" fill="#EA4335"/>
<path d="M57.352 25.192C56.616 25.192 55.9333 25.0533 55.304 24.776C54.6747 24.4987 54.1307 24.12 53.672 23.64L54.472 22.712C54.8453 23.1067 55.2827 23.4267 55.784 23.672C56.296 23.9067 56.824 24.024 57.368 24.024C58.0613 24.024 58.6 23.8693 58.984 23.56C59.368 23.24 59.56 22.824 59.56 22.312C59.56 22.0453 59.512 21.8213 59.416 21.64C59.3307 21.448 59.208 21.288 59.048 21.16C58.8987 21.0213 58.7173 20.8987 58.504 20.792C58.2907 20.6853 58.0613 20.5733 57.816 20.456L56.312 19.8C56.0667 19.6933 55.816 19.5653 55.56 19.416C55.304 19.2667 55.0747 19.0853 54.872 18.872C54.6693 18.6587 54.504 18.408 54.376 18.12C54.248 17.8213 54.184 17.48 54.184 17.096C54.184 16.7013 54.264 16.3333 54.424 15.992C54.5947 15.6507 54.824 15.3573 55.112 15.112C55.4107 14.856 55.7573 14.6587 56.152 14.52C56.5573 14.3813 57 14.312 57.48 14.312C58.1093 14.312 58.6907 14.4347 59.224 14.68C59.7573 14.9147 60.2107 15.224 60.584 15.608L59.864 16.472C59.544 16.1627 59.1867 15.9227 58.792 15.752C58.408 15.5707 57.9707 15.48 57.48 15.48C56.8933 15.48 56.4187 15.6187 56.056 15.896C55.704 16.1627 55.528 16.536 55.528 17.016C55.528 17.272 55.576 17.4907 55.672 17.672C55.7787 17.8427 55.9173 17.9973 56.088 18.136C56.2587 18.264 56.4453 18.3813 56.648 18.488C56.8507 18.584 57.0587 18.6747 57.272 18.76L58.76 19.4C59.0587 19.528 59.3413 19.6773 59.608 19.848C59.8747 20.008 60.104 20.2 60.296 20.424C60.488 20.6373 60.6373 20.8933 60.744 21.192C60.8613 21.48 60.92 21.816 60.92 22.2C60.92 22.616 60.8347 23.0053 60.664 23.368C60.504 23.7307 60.2693 24.0507 59.96 24.328C59.6507 24.5947 59.2773 24.808 58.84 24.968C58.4027 25.1173 57.9067 25.192 57.352 25.192ZM62.8589 25V17.224H64.1709V25H62.8589ZM63.5309 15.624C63.2749 15.624 63.0562 15.544 62.8749 15.384C62.7042 15.224 62.6189 15.0213 62.6189 14.776C62.6189 14.52 62.7042 14.3173 62.8749 14.168C63.0562 14.008 63.2749 13.928 63.5309 13.928C63.7869 13.928 64.0002 14.008 64.1709 14.168C64.3522 14.3173 64.4429 14.52 64.4429 14.776C64.4429 15.0213 64.3522 15.224 64.1709 15.384C64.0002 15.544 63.7869 15.624 63.5309 15.624ZM69.4204 28.584C68.9404 28.584 68.503 28.536 68.1084 28.44C67.7137 28.3547 67.3724 28.2213 67.0844 28.04C66.807 27.8587 66.5884 27.64 66.4284 27.384C66.279 27.128 66.2044 26.8293 66.2044 26.488C66.2044 26.1573 66.3057 25.8427 66.5084 25.544C66.711 25.2453 66.9884 24.9733 67.3404 24.728V24.664C67.1484 24.5467 66.983 24.3867 66.8444 24.184C66.7164 23.9707 66.6524 23.7093 66.6524 23.4C66.6524 23.0693 66.743 22.7813 66.9244 22.536C67.1057 22.2907 67.2977 22.0987 67.5004 21.96V21.896C67.2444 21.6827 67.0097 21.4 66.7964 21.048C66.5937 20.6853 66.4924 20.2693 66.4924 19.8C66.4924 19.3733 66.567 18.9893 66.7164 18.648C66.8764 18.3067 67.0897 18.0187 67.3564 17.784C67.623 17.5387 67.9324 17.352 68.2844 17.224C68.647 17.096 69.0257 17.032 69.4204 17.032C69.6337 17.032 69.831 17.0533 70.0124 17.096C70.2044 17.128 70.375 17.1707 70.5244 17.224H73.2284V18.232H71.6284C71.8097 18.4133 71.959 18.6427 72.0764 18.92C72.2044 19.1973 72.2684 19.5013 72.2684 19.832C72.2684 20.248 72.1937 20.6267 72.0444 20.968C71.895 21.2987 71.6924 21.5813 71.4364 21.816C71.1804 22.04 70.8764 22.216 70.5244 22.344C70.183 22.472 69.815 22.536 69.4204 22.536C69.2284 22.536 69.031 22.5147 68.8284 22.472C68.6257 22.4187 68.4337 22.3493 68.2524 22.264C68.1137 22.3813 67.9964 22.5147 67.9004 22.664C67.8044 22.8027 67.7564 22.9787 67.7564 23.192C67.7564 23.4373 67.8524 23.64 68.0444 23.8C68.2364 23.96 68.599 24.04 69.1324 24.04H70.6364C71.543 24.04 72.2204 24.1893 72.6684 24.488C73.127 24.776 73.3564 25.2453 73.3564 25.896C73.3564 26.2587 73.2657 26.6 73.0844 26.92C72.903 27.2507 72.6417 27.5387 72.3004 27.784C71.959 28.0293 71.543 28.2213 71.0524 28.36C70.5724 28.5093 70.0284 28.584 69.4204 28.584ZM69.4204 21.656C69.6444 21.656 69.8524 21.6133 70.0444 21.528C70.247 21.4427 70.423 21.32 70.5724 21.16C70.7324 21 70.855 20.808 70.9404 20.584C71.0257 20.3493 71.0684 20.088 71.0684 19.8C71.0684 19.224 70.9084 18.7813 70.5884 18.472C70.2684 18.152 69.879 17.992 69.4204 17.992C68.9617 17.992 68.5724 18.152 68.2524 18.472C67.9324 18.7813 67.7724 19.224 67.7724 19.8C67.7724 20.088 67.815 20.3493 67.9004 20.584C67.9857 20.808 68.103 21 68.2524 21.16C68.4124 21.32 68.5884 21.4427 68.7804 21.528C68.983 21.6133 69.1964 21.656 69.4204 21.656ZM69.6124 27.672C69.9857 27.672 70.3217 27.624 70.6204 27.528C70.9297 27.4427 71.191 27.3253 71.4044 27.176C71.6177 27.0373 71.783 26.872 71.9004 26.68C72.0177 26.488 72.0764 26.2907 72.0764 26.088C72.0764 25.7253 71.943 25.4747 71.6764 25.336C71.4097 25.1973 71.0204 25.128 70.5084 25.128H69.1644C69.015 25.128 68.8497 25.1173 68.6684 25.096C68.4977 25.0853 68.327 25.0533 68.1564 25C67.879 25.2027 67.6764 25.416 67.5484 25.64C67.4204 25.864 67.3564 26.088 67.3564 26.312C67.3564 26.728 67.5537 27.0587 67.9484 27.304C68.3537 27.5493 68.9084 27.672 69.6124 27.672ZM74.8589 25V17.224H75.9469L76.0589 18.344H76.1069C76.4802 17.9707 76.8695 17.6613 77.2749 17.416C77.6909 17.16 78.1709 17.032 78.7149 17.032C79.5362 17.032 80.1335 17.288 80.5069 17.8C80.8909 18.312 81.0829 19.0693 81.0829 20.072V25H79.7709V20.248C79.7709 19.512 79.6535 18.984 79.4189 18.664C79.1842 18.3333 78.8109 18.168 78.2989 18.168C77.8935 18.168 77.5362 18.2693 77.2269 18.472C76.9175 18.6747 76.5655 18.9733 76.1709 19.368V25H74.8589ZM89.084 25.192C88.252 25.192 87.644 24.936 87.26 24.424C86.8867 23.912 86.7 23.1547 86.7 22.152V17.224H88.028V21.976C88.028 22.712 88.14 23.2453 88.364 23.576C88.5987 23.896 88.972 24.056 89.484 24.056C89.8893 24.056 90.2467 23.9547 90.556 23.752C90.8653 23.5387 91.2067 23.2027 91.58 22.744V17.224H92.892V25H91.804L91.692 23.784H91.644C91.2813 24.2107 90.8973 24.552 90.492 24.808C90.0973 25.064 89.628 25.192 89.084 25.192ZM95.5151 28.28V17.224H96.6031L96.7151 18.12H96.7631C97.1151 17.8213 97.4991 17.5653 97.9151 17.352C98.3418 17.1387 98.7845 17.032 99.2431 17.032C99.7445 17.032 100.187 17.128 100.571 17.32C100.955 17.5013 101.275 17.768 101.531 18.12C101.787 18.4613 101.979 18.8773 102.107 19.368C102.246 19.848 102.315 20.392 102.315 21C102.315 21.6613 102.224 22.2533 102.043 22.776C101.862 23.288 101.616 23.7253 101.307 24.088C100.998 24.4507 100.64 24.728 100.235 24.92C99.8298 25.1013 99.4031 25.192 98.9551 25.192C98.5925 25.192 98.2298 25.112 97.8671 24.952C97.5151 24.792 97.1578 24.5733 96.7951 24.296L96.8271 25.656V28.28H95.5151ZM98.7311 24.088C99.0511 24.088 99.3445 24.0187 99.6111 23.88C99.8885 23.7307 100.123 23.528 100.315 23.272C100.518 23.0053 100.672 22.68 100.779 22.296C100.896 21.912 100.955 21.48 100.955 21C100.955 20.5733 100.918 20.184 100.843 19.832C100.768 19.48 100.646 19.1813 100.475 18.936C100.315 18.68 100.102 18.4827 99.8351 18.344C99.5791 18.2053 99.2698 18.136 98.9071 18.136C98.5765 18.136 98.2405 18.2267 97.8991 18.408C97.5685 18.5893 97.2111 18.8507 96.8271 19.192V23.272C97.1791 23.5707 97.5205 23.784 97.8511 23.912C98.1818 24.0293 98.4751 24.088 98.7311 24.088ZM108.825 25L106.665 17.224H108.009L109.161 21.72C109.247 22.0933 109.327 22.456 109.401 22.808C109.476 23.16 109.551 23.5173 109.625 23.88H109.689C109.775 23.5173 109.86 23.16 109.945 22.808C110.031 22.4453 110.121 22.0827 110.217 21.72L111.417 17.224H112.697L113.913 21.72C114.009 22.0933 114.1 22.456 114.185 22.808C114.281 23.16 114.372 23.5173 114.457 23.88H114.521C114.607 23.5173 114.687 23.16 114.761 22.808C114.836 22.456 114.916 22.0933 115.001 21.72L116.137 17.224H117.385L115.305 25H113.705L112.585 20.824C112.489 20.4507 112.399 20.0827 112.313 19.72C112.239 19.3573 112.153 18.9787 112.057 18.584H111.993C111.908 18.9787 111.823 19.3627 111.737 19.736C111.652 20.0987 111.556 20.4667 111.449 20.84L110.361 25H108.825ZM119.078 25V17.224H120.39V25H119.078ZM119.75 15.624C119.494 15.624 119.275 15.544 119.094 15.384C118.923 15.224 118.838 15.0213 118.838 14.776C118.838 14.52 118.923 14.3173 119.094 14.168C119.275 14.008 119.494 13.928 119.75 13.928C120.006 13.928 120.219 14.008 120.39 14.168C120.571 14.3173 120.662 14.52 120.662 14.776C120.662 15.0213 120.571 15.224 120.39 15.384C120.219 15.544 120.006 15.624 119.75 15.624ZM125.463 25.192C125.047 25.192 124.695 25.128 124.407 25C124.13 24.872 123.9 24.696 123.719 24.472C123.548 24.248 123.426 23.976 123.351 23.656C123.276 23.336 123.239 22.984 123.239 22.6V18.296H122.087V17.304L123.303 17.224L123.463 15.048H124.567V17.224H126.663V18.296H124.567V22.616C124.567 23.096 124.652 23.4693 124.823 23.736C125.004 23.992 125.319 24.12 125.767 24.12C125.906 24.12 126.055 24.0987 126.215 24.056C126.375 24.0133 126.519 23.9653 126.647 23.912L126.903 24.904C126.69 24.9787 126.455 25.0427 126.199 25.096C125.954 25.16 125.708 25.192 125.463 25.192ZM128.421 25V13.608H129.733V16.712L129.685 18.312C130.059 17.96 130.448 17.6613 130.853 17.416C131.259 17.16 131.733 17.032 132.277 17.032C133.099 17.032 133.696 17.288 134.069 17.8C134.453 18.312 134.645 19.0693 134.645 20.072V25H133.333V20.248C133.333 19.512 133.216 18.984 132.981 18.664C132.747 18.3333 132.373 18.168 131.861 18.168C131.456 18.168 131.099 18.2693 130.789 18.472C130.48 18.6747 130.128 18.9733 129.733 19.368V25H128.421ZM144.584 25.192C143.89 25.192 143.25 25.0693 142.664 24.824C142.088 24.5787 141.592 24.2267 141.176 23.768C140.76 23.2987 140.434 22.728 140.2 22.056C139.965 21.3733 139.848 20.6053 139.848 19.752C139.848 18.9093 139.965 18.152 140.2 17.48C140.445 16.808 140.781 16.2373 141.208 15.768C141.634 15.2987 142.141 14.9413 142.728 14.696C143.325 14.44 143.97 14.312 144.664 14.312C145.026 14.312 145.357 14.3493 145.656 14.424C145.965 14.4987 146.242 14.6 146.488 14.728C146.744 14.8453 146.968 14.984 147.16 15.144C147.362 15.2933 147.538 15.448 147.688 15.608L146.952 16.472C146.685 16.1947 146.376 15.96 146.024 15.768C145.672 15.576 145.229 15.48 144.696 15.48C144.162 15.48 143.682 15.5813 143.256 15.784C142.829 15.976 142.466 16.2587 142.168 16.632C141.869 16.9947 141.634 17.4373 141.464 17.96C141.304 18.4827 141.224 19.0693 141.224 19.72C141.224 20.3813 141.298 20.9787 141.448 21.512C141.608 22.0347 141.832 22.4827 142.12 22.856C142.418 23.2293 142.781 23.5173 143.208 23.72C143.645 23.9227 144.146 24.024 144.712 24.024C145.085 24.024 145.437 23.9707 145.768 23.864C146.109 23.7467 146.386 23.592 146.6 23.4V20.664H144.376V19.56H147.816V23.976C147.474 24.328 147.026 24.6213 146.472 24.856C145.917 25.08 145.288 25.192 144.584 25.192ZM153.227 25.192C152.747 25.192 152.288 25.1013 151.851 24.92C151.424 24.7387 151.045 24.4773 150.715 24.136C150.384 23.784 150.117 23.3573 149.915 22.856C149.723 22.344 149.627 21.768 149.627 21.128C149.627 20.4773 149.723 19.9013 149.915 19.4C150.117 18.888 150.384 18.456 150.715 18.104C151.045 17.752 151.424 17.4853 151.851 17.304C152.288 17.1227 152.747 17.032 153.227 17.032C153.707 17.032 154.16 17.1227 154.587 17.304C155.024 17.4853 155.408 17.752 155.739 18.104C156.069 18.456 156.331 18.888 156.523 19.4C156.725 19.9013 156.827 20.4773 156.827 21.128C156.827 21.768 156.725 22.344 156.523 22.856C156.331 23.3573 156.069 23.784 155.739 24.136C155.408 24.4773 155.024 24.7387 154.587 24.92C154.16 25.1013 153.707 25.192 153.227 25.192ZM153.227 24.104C153.557 24.104 153.861 24.0347 154.139 23.896C154.416 23.7467 154.651 23.544 154.843 23.288C155.045 23.0213 155.2 22.7067 155.307 22.344C155.413 21.9813 155.467 21.576 155.467 21.128C155.467 20.68 155.413 20.2747 155.307 19.912C155.2 19.5387 155.045 19.2187 154.843 18.952C154.651 18.6853 154.416 18.4827 154.139 18.344C153.861 18.1947 153.557 18.12 153.227 18.12C152.896 18.12 152.592 18.1947 152.315 18.344C152.037 18.4827 151.797 18.6853 151.595 18.952C151.403 19.2187 151.253 19.5387 151.147 19.912C151.04 20.2747 150.987 20.68 150.987 21.128C150.987 21.576 151.04 21.9813 151.147 22.344C151.253 22.7067 151.403 23.0213 151.595 23.288C151.797 23.544 152.037 23.7467 152.315 23.896C152.592 24.0347 152.896 24.104 153.227 24.104ZM161.899 25.192C161.419 25.192 160.96 25.1013 160.523 24.92C160.096 24.7387 159.717 24.4773 159.387 24.136C159.056 23.784 158.789 23.3573 158.587 22.856C158.395 22.344 158.299 21.768 158.299 21.128C158.299 20.4773 158.395 19.9013 158.587 19.4C158.789 18.888 159.056 18.456 159.387 18.104C159.717 17.752 160.096 17.4853 160.523 17.304C160.96 17.1227 161.419 17.032 161.899 17.032C162.379 17.032 162.832 17.1227 163.259 17.304C163.696 17.4853 164.08 17.752 164.411 18.104C164.741 18.456 165.003 18.888 165.195 19.4C165.397 19.9013 165.499 20.4773 165.499 21.128C165.499 21.768 165.397 22.344 165.195 22.856C165.003 23.3573 164.741 23.784 164.411 24.136C164.08 24.4773 163.696 24.7387 163.259 24.92C162.832 25.1013 162.379 25.192 161.899 25.192ZM161.899 24.104C162.229 24.104 162.533 24.0347 162.811 23.896C163.088 23.7467 163.323 23.544 163.515 23.288C163.717 23.0213 163.872 22.7067 163.979 22.344C164.085 21.9813 164.139 21.576 164.139 21.128C164.139 20.68 164.085 20.2747 163.979 19.912C163.872 19.5387 163.717 19.2187 163.515 18.952C163.323 18.6853 163.088 18.4827 162.811 18.344C162.533 18.1947 162.229 18.12 161.899 18.12C161.568 18.12 161.264 18.1947 160.987 18.344C160.709 18.4827 160.469 18.6853 160.267 18.952C160.075 19.2187 159.925 19.5387 159.819 19.912C159.712 20.2747 159.659 20.68 159.659 21.128C159.659 21.576 159.712 21.9813 159.819 22.344C159.925 22.7067 160.075 23.0213 160.267 23.288C160.469 23.544 160.709 23.7467 160.987 23.896C161.264 24.0347 161.568 24.104 161.899 24.104ZM170.17 28.584C169.69 28.584 169.253 28.536 168.858 28.44C168.464 28.3547 168.122 28.2213 167.834 28.04C167.557 27.8587 167.338 27.64 167.178 27.384C167.029 27.128 166.954 26.8293 166.954 26.488C166.954 26.1573 167.056 25.8427 167.258 25.544C167.461 25.2453 167.738 24.9733 168.09 24.728V24.664C167.898 24.5467 167.733 24.3867 167.594 24.184C167.466 23.9707 167.402 23.7093 167.402 23.4C167.402 23.0693 167.493 22.7813 167.674 22.536C167.856 22.2907 168.048 22.0987 168.25 21.96V21.896C167.994 21.6827 167.76 21.4 167.546 21.048C167.344 20.6853 167.242 20.2693 167.242 19.8C167.242 19.3733 167.317 18.9893 167.466 18.648C167.626 18.3067 167.84 18.0187 168.106 17.784C168.373 17.5387 168.682 17.352 169.034 17.224C169.397 17.096 169.776 17.032 170.17 17.032C170.384 17.032 170.581 17.0533 170.762 17.096C170.954 17.128 171.125 17.1707 171.274 17.224H173.978V18.232H172.378C172.56 18.4133 172.709 18.6427 172.826 18.92C172.954 19.1973 173.018 19.5013 173.018 19.832C173.018 20.248 172.944 20.6267 172.794 20.968C172.645 21.2987 172.442 21.5813 172.186 21.816C171.93 22.04 171.626 22.216 171.274 22.344C170.933 22.472 170.565 22.536 170.17 22.536C169.978 22.536 169.781 22.5147 169.578 22.472C169.376 22.4187 169.184 22.3493 169.002 22.264C168.864 22.3813 168.746 22.5147 168.65 22.664C168.554 22.8027 168.506 22.9787 168.506 23.192C168.506 23.4373 168.602 23.64 168.794 23.8C168.986 23.96 169.349 24.04 169.882 24.04H171.386C172.293 24.04 172.97 24.1893 173.418 24.488C173.877 24.776 174.106 25.2453 174.106 25.896C174.106 26.2587 174.016 26.6 173.834 26.92C173.653 27.2507 173.392 27.5387 173.05 27.784C172.709 28.0293 172.293 28.2213 171.802 28.36C171.322 28.5093 170.778 28.584 170.17 28.584ZM170.17 21.656C170.394 21.656 170.602 21.6133 170.794 21.528C170.997 21.4427 171.173 21.32 171.322 21.16C171.482 21 171.605 20.808 171.69 20.584C171.776 20.3493 171.818 20.088 171.818 19.8C171.818 19.224 171.658 18.7813 171.338 18.472C171.018 18.152 170.629 17.992 170.17 17.992C169.712 17.992 169.322 18.152 169.002 18.472C168.682 18.7813 168.522 19.224 168.522 19.8C168.522 20.088 168.565 20.3493 168.65 20.584C168.736 20.808 168.853 21 169.002 21.16C169.162 21.32 169.338 21.4427 169.53 21.528C169.733 21.6133 169.946 21.656 170.17 21.656ZM170.362 27.672C170.736 27.672 171.072 27.624 171.37 27.528C171.68 27.4427 171.941 27.3253 172.154 27.176C172.368 27.0373 172.533 26.872 172.65 26.68C172.768 26.488 172.826 26.2907 172.826 26.088C172.826 25.7253 172.693 25.4747 172.426 25.336C172.16 25.1973 171.77 25.128 171.258 25.128H169.914C169.765 25.128 169.6 25.1173 169.418 25.096C169.248 25.0853 169.077 25.0533 168.906 25C168.629 25.2027 168.426 25.416 168.298 25.64C168.17 25.864 168.106 26.088 168.106 26.312C168.106 26.728 168.304 27.0587 168.698 27.304C169.104 27.5493 169.658 27.672 170.362 27.672ZM177.001 25.192C176.5 25.192 176.142 25.0427 175.929 24.744C175.716 24.4453 175.609 24.008 175.609 23.432V13.608H176.921V23.528C176.921 23.7413 176.958 23.8907 177.033 23.976C177.108 24.0613 177.193 24.104 177.289 24.104C177.332 24.104 177.369 24.104 177.401 24.104C177.444 24.104 177.502 24.0933 177.577 24.072L177.753 25.064C177.668 25.1067 177.566 25.1387 177.449 25.16C177.332 25.1813 177.182 25.192 177.001 25.192ZM182.839 25.192C182.316 25.192 181.826 25.1013 181.367 24.92C180.919 24.728 180.524 24.4613 180.183 24.12C179.852 23.768 179.591 23.3413 179.399 22.84C179.207 22.3387 179.111 21.768 179.111 21.128C179.111 20.488 179.207 19.9173 179.399 19.416C179.602 18.904 179.863 18.472 180.183 18.12C180.514 17.768 180.887 17.5013 181.303 17.32C181.719 17.128 182.151 17.032 182.599 17.032C183.09 17.032 183.527 17.1173 183.911 17.288C184.306 17.4587 184.631 17.704 184.887 18.024C185.154 18.344 185.356 18.728 185.495 19.176C185.634 19.624 185.703 20.1253 185.703 20.68C185.703 20.8187 185.698 20.9573 185.687 21.096C185.687 21.224 185.676 21.336 185.655 21.432H180.407C180.46 22.264 180.716 22.9253 181.175 23.416C181.644 23.896 182.252 24.136 182.999 24.136C183.372 24.136 183.714 24.0827 184.023 23.976C184.343 23.8587 184.647 23.7093 184.935 23.528L185.399 24.392C185.058 24.6053 184.679 24.792 184.263 24.952C183.847 25.112 183.372 25.192 182.839 25.192ZM180.391 20.488H184.551C184.551 19.6987 184.38 19.1013 184.039 18.696C183.708 18.28 183.239 18.072 182.631 18.072C182.354 18.072 182.087 18.1253 181.831 18.232C181.586 18.3387 181.362 18.4987 181.159 18.712C180.956 18.9147 180.786 19.1653 180.647 19.464C180.519 19.7627 180.434 20.104 180.391 20.488Z" fill="white"/>
<defs>
<filter id="filter0_dd" x="0" y="0" width="38" height="39" filterUnits="userSpaceOnUse" color-interpolation-filters="sRGB">
<feFlood flood-opacity="0" result="BackgroundImageFix"/>
<feColorMatrix in="SourceAlpha" type="matrix" values="0 0 0 0 0 0 0 0 0 0 0 0 0 0 0 0 0 0 127 0"/>
<feOffset dy="1"/>
<feGaussianBlur stdDeviation="0.5"/>
<feColorMatrix type="matrix" values="0 0 0 0 0 0 0 0 0 0 0 0 0 0 0 0 0 0 0.168 0"/>
<feBlend mode="normal" in2="BackgroundImageFix" result="effect1_dropShadow"/>
<feColorMatrix in="SourceAlpha" type="matrix" values="0 0 0 0 0 0 0 0 0 0 0 0 0 0 0 0 0 0 127 0"/>
<feOffset/>
<feGaussianBlur stdDeviation="0.5"/>
<feColorMatrix type="matrix" values="0 0 0 0 0 0 0 0 0 0 0 0 0 0 0 0 0 0 0.084 0"/>
<feBlend mode="normal" in2="effect1_dropShadow" result="effect2_dropShadow"/>
<feBlend mode="normal" in="SourceGraphic" in2="effect2_dropShadow" result="shape"/>
</filter>
</defs>
</svg>
