<svg width="92" height="92" viewBox="0 0 92 92" fill="none" xmlns="http://www.w3.org/2000/svg">
<mask id="path-1-inside-1" fill="white">
<path fill-rule="evenodd" clip-rule="evenodd" d="M0 0H92V86.968L68.7548 64.8374L51.2563 83.4189L17.428 49.1201L0 66.3092V0ZM43.3063 91.8609L0 91.9197V92H43.1754L43.3063 91.8609Z"/>
</mask>
<path fill-rule="evenodd" clip-rule="evenodd" d="M0 0H92V86.968L68.7548 64.8374L51.2563 83.4189L17.428 49.1201L0 66.3092V0ZM43.3063 91.8609L0 91.9197V92H43.1754L43.3063 91.8609Z" fill="#040605"/>
<path d="M92 0H94V-2H92V0ZM0 0V-2H-2V0H0ZM92 86.968L90.6209 88.4165L94 91.6335V86.968H92ZM68.7548 64.8374L70.1338 63.3889L68.6774 62.0023L67.2988 63.4663L68.7548 64.8374ZM51.2563 83.4189L49.8324 84.8233L51.2896 86.3008L52.7123 84.79L51.2563 83.4189ZM17.428 49.1201L18.8519 47.7157L17.4475 46.2917L16.0235 47.6962L17.428 49.1201ZM0 66.3092H-2V71.0909L1.40442 67.7332L0 66.3092ZM43.3063 91.8609L44.7624 93.232L47.9428 89.8546L43.3036 89.8609L43.3063 91.8609ZM0 91.9197L-0.00271447 89.9197L-2 89.9224V91.9197H0ZM0 92H-2V94H0V92ZM43.1754 92V94H44.0392L44.6314 93.3711L43.1754 92ZM92 -2H0V2H92V-2ZM94 86.968V0H90V86.968H94ZM67.3757 66.286L90.6209 88.4165L93.3791 85.5195L70.1338 63.3889L67.3757 66.286ZM52.7123 84.79L70.2108 66.2086L67.2988 63.4663L49.8003 82.0477L52.7123 84.79ZM16.004 50.5245L49.8324 84.8233L52.6803 82.0145L18.8519 47.7157L16.004 50.5245ZM1.40442 67.7332L18.8324 50.544L16.0235 47.6962L-1.40442 64.8853L1.40442 67.7332ZM-2 0V66.3092H2V0H-2ZM43.3036 89.8609L-0.00271447 89.9197L0.00271447 93.9197L43.309 93.8609L43.3036 89.8609ZM-2 91.9197V92H2V91.9197H-2ZM0 94H43.1754V90H0V94ZM44.6314 93.3711L44.7624 93.232L41.8503 90.4898L41.7193 90.6289L44.6314 93.3711Z" fill="#040605" mask="url(#path-1-inside-1)"/>
<circle cx="72" cy="27" r="10" fill="#FDF0DD" style="mix-blend-mode:hard-light"/>
</svg>
