<svg width="112" height="112" viewBox="0 0 112 112" fill="none" xmlns="http://www.w3.org/2000/svg">
<g filter="url(#filter0_d)">
<rect x="9" y="5" width="94" height="94" rx="15" fill="url(#paint0_linear)" stroke="#FDF0DD" stroke-width="2"/>
</g>
<path d="M51.5863 56.9359C51.5655 54.8191 50.1564 50.7616 48.1943 48.8006C46.2322 46.8395 42.1359 45.8197 40.0613 45.4104C39.77 45.3528 39.4695 45.4451 39.2614 45.6546C39.0503 45.8644 38.9585 46.1645 39.0176 46.455C39.4253 48.5316 40.4446 52.6292 42.4066 54.5895C43.8484 56.0321 46.4432 56.9624 48.5424 57.5179V72.4779C48.5424 73.3186 49.2227 74 50.0642 74C50.9054 74 51.5862 73.3184 51.5862 72.4779C51.5862 72.4779 51.592 57.5947 51.5863 56.9359Z" fill="#0BDBFE"/>
<path d="M57.6752 40.5425C57.6632 38.4256 56.2454 34.3683 54.2832 32.407C52.3212 30.4458 48.2248 29.4261 46.15 29.0168C45.8587 28.9593 45.5585 29.0515 45.3504 29.261C45.1393 29.4708 45.0471 29.7709 45.1066 30.0614C45.5138 32.1381 46.5336 36.2357 48.4956 38.196C49.937 39.6387 52.5323 40.569 54.6309 41.1245V72.4779C54.6309 73.3186 55.3117 74 56.1531 74C56.9943 74 57.675 73.3184 57.675 72.4779C57.6752 72.478 57.6809 41.6438 57.6752 40.5425Z" fill="#0BDBFE"/>
<path d="M72.7994 41.8887C72.8561 41.5982 72.7638 41.2981 72.5556 41.0884C72.3446 40.8789 72.0446 40.7867 71.7561 40.8442C69.6782 41.2535 65.5817 42.2732 63.6198 44.2344C61.6581 46.1956 60.2341 50.1386 60.2314 52.3697C60.2285 53.8136 60.2285 72.4778 60.2285 72.4778C60.2285 73.3185 60.9093 73.9999 61.7504 73.9999C62.5915 73.9999 63.2723 73.3183 63.2723 72.4778V52.9516C65.3738 52.3963 67.969 51.466 69.4111 50.0233C71.3724 48.0628 72.3921 43.9654 72.7994 41.8887Z" fill="#0BDBFE"/>
<defs>
<filter id="filter0_d" x="0" y="0" width="112" height="112" filterUnits="userSpaceOnUse" color-interpolation-filters="sRGB">
<feFlood flood-opacity="0" result="BackgroundImageFix"/>
<feColorMatrix in="SourceAlpha" type="matrix" values="0 0 0 0 0 0 0 0 0 0 0 0 0 0 0 0 0 0 127 0" result="hardAlpha"/>
<feOffset dy="4"/>
<feGaussianBlur stdDeviation="4"/>
<feComposite in2="hardAlpha" operator="out"/>
<feColorMatrix type="matrix" values="0 0 0 0 0 0 0 0 0 0 0 0 0 0 0 0 0 0 0.25 0"/>
<feBlend mode="normal" in2="BackgroundImageFix" result="effect1_dropShadow"/>
<feBlend mode="normal" in="SourceGraphic" in2="effect1_dropShadow" result="shape"/>
</filter>
<linearGradient id="paint0_linear" x1="56" y1="4" x2="56" y2="100" gradientUnits="userSpaceOnUse">
<stop stop-color="#7839FA"/>
<stop offset="1" stop-color="#4E33C4"/>
</linearGradient>
</defs>
</svg>
