<svg width="72" height="72" viewBox="0 0 72 72" fill="none" xmlns="http://www.w3.org/2000/svg">
<g filter="url(#filter0_d)">
<rect x="12" y="12" width="48" height="48" rx="16" fill="#040605"/>
</g>
<path d="M42 33.4038V30.4595C40.4866 29.9248 39.5305 29.7745 39.0493 28.6203V28.6194C38.5662 27.4615 39.1409 26.6754 39.8257 25.2424L37.7311 23.1608C36.3002 23.8368 35.5008 24.4134 34.333 23.9324H34.3321C33.1688 23.4533 33.0167 22.4967 32.4813 21H29.5187C28.9852 22.4894 28.8321 23.4523 27.6679 23.9324H27.667C26.5019 24.4134 25.7127 23.8431 24.2689 23.1608L22.1743 25.2424C22.8573 26.6708 23.4348 27.4597 22.9508 28.6194C22.4677 29.7772 21.4988 29.9294 20 30.4595V33.4038C21.496 33.9322 22.4677 34.0861 22.9508 35.2431C23.4366 36.4109 22.8463 37.2162 22.1743 38.62L24.2689 40.7025C25.7008 40.0257 26.5001 39.4499 27.667 39.9309H27.6679C28.8321 40.4101 28.9843 41.3694 29.5187 42.8634H32.4813C33.0148 41.373 33.1688 40.4128 34.3394 39.9282H34.3403C35.4972 39.4509 36.2837 40.0202 37.7302 40.7034L39.8248 38.621C39.1428 37.1971 38.5643 36.4046 39.0474 35.2449C39.5305 34.087 40.5031 33.9331 42 33.4038ZM31 35.5756C28.9751 35.5756 27.3333 33.944 27.3333 31.9317C27.3333 29.9193 28.9751 28.2878 31 28.2878C33.0249 28.2878 34.6667 29.9193 34.6667 31.9317C34.6667 33.944 33.0249 35.5756 31 35.5756Z" fill="#FDF0DD"/>
<path d="M41.2002 46.7776V45.7069C40.6499 45.5125 40.3022 45.4578 40.1272 45.0381V45.0378C39.9515 44.6167 40.1605 44.3309 40.4095 43.8098L39.6479 43.0528C39.1275 43.2986 38.8369 43.5083 38.4122 43.3334H38.4119C37.9889 43.1592 37.9335 42.8114 37.7389 42.2671H36.6615C36.4675 42.8087 36.4119 43.1588 35.9885 43.3334H35.9882C35.5645 43.5083 35.2775 43.301 34.7525 43.0528L33.9909 43.8098C34.2392 44.3292 34.4492 44.6161 34.2732 45.0378C34.0975 45.4588 33.7452 45.5141 33.2002 45.7069V46.7776C33.7442 46.9697 34.0975 47.0257 34.2732 47.4464C34.4499 47.8711 34.2352 48.1639 33.9909 48.6744L34.7525 49.4316C35.2732 49.1855 35.5639 48.9762 35.9882 49.1511H35.9885C36.4119 49.3253 36.4672 49.6741 36.6615 50.2174H37.7389C37.9329 49.6755 37.9889 49.3263 38.4145 49.1501H38.4149C38.8355 48.9765 39.1215 49.1835 39.6475 49.432L40.4092 48.6747C40.1612 48.1569 39.9509 47.8687 40.1265 47.447C40.3022 47.026 40.6559 46.97 41.2002 46.7776V46.7776ZM37.2002 47.5673C36.4639 47.5673 35.8669 46.974 35.8669 46.2422C35.8669 45.5105 36.4639 44.9172 37.2002 44.9172C37.9365 44.9172 38.5335 45.5105 38.5335 46.2422C38.5335 46.974 37.9365 47.5673 37.2002 47.5673Z" fill="#FDF0DD"/>
<path d="M52 41.91V40.4378C51.2433 40.1705 50.7653 40.0953 50.5246 39.5182V39.5178C50.2831 38.9388 50.5705 38.5458 50.9128 37.8293L49.8655 36.7885C49.1501 37.1265 48.7504 37.4148 48.1665 37.1743H48.166C47.5844 36.9347 47.5083 36.4564 47.2407 35.7081H45.7593C45.4926 36.4528 45.416 36.9342 44.834 37.1743H44.8335C44.251 37.4148 43.8563 37.1296 43.1345 36.7885L42.0872 37.8293C42.4286 38.5435 42.7174 38.9379 42.4754 39.5178C42.2338 40.0967 41.7494 40.1727 41 40.4378V41.91C41.748 42.1742 42.2338 42.2511 42.4754 42.8296C42.7183 43.4135 42.4231 43.8162 42.0872 44.5181L43.1345 45.5593C43.8504 45.2209 44.25 44.933 44.8335 45.1735H44.834C45.416 45.4131 45.4921 45.8927 45.7593 46.6397H47.2407C47.5074 45.8946 47.5844 45.4145 48.1697 45.1722H48.1702C48.7486 44.9335 49.1418 45.2182 49.8651 45.5598L50.9124 44.5185C50.5714 43.8066 50.2822 43.4103 50.5237 42.8305C50.7653 42.2516 51.2515 42.1746 52 41.91ZM46.5 42.9959C45.4875 42.9959 44.6667 42.1801 44.6667 41.1739C44.6667 40.1677 45.4875 39.352 46.5 39.352C47.5125 39.352 48.3333 40.1677 48.3333 41.1739C48.3333 42.1801 47.5125 42.9959 46.5 42.9959Z" fill="#5599D4"/>
<defs>
<filter id="filter0_d" x="0" y="0" width="72" height="72" filterUnits="userSpaceOnUse" color-interpolation-filters="sRGB">
<feFlood flood-opacity="0" result="BackgroundImageFix"/>
<feColorMatrix in="SourceAlpha" type="matrix" values="0 0 0 0 0 0 0 0 0 0 0 0 0 0 0 0 0 0 127 0" result="hardAlpha"/>
<feOffset/>
<feGaussianBlur stdDeviation="6"/>
<feComposite in2="hardAlpha" operator="out"/>
<feColorMatrix type="matrix" values="0 0 0 0 0 0 0 0 0 0 0 0 0 0 0 0 0 0 0.3 0"/>
<feBlend mode="normal" in2="BackgroundImageFix" result="effect1_dropShadow"/>
<feBlend mode="normal" in="SourceGraphic" in2="effect1_dropShadow" result="shape"/>
</filter>
</defs>
</svg>
