<svg width="133" height="23" viewBox="0 0 133 23" fill="none" xmlns="http://www.w3.org/2000/svg">
<path d="M20 13.3467V10.6533C18.6242 10.1642 17.755 10.0267 17.3175 8.97083V8.97C16.8783 7.91083 17.4008 7.19167 18.0233 5.88083L16.1192 3.97667C14.8183 4.595 14.0917 5.1225 13.03 4.6825H13.0292C11.9717 4.24417 11.8333 3.36917 11.3467 2H8.65333C8.16833 3.3625 8.02917 4.24333 6.97083 4.6825H6.97C5.91083 5.1225 5.19333 4.60083 3.88083 3.97667L1.97667 5.88083C2.5975 7.1875 3.1225 7.90917 2.6825 8.97C2.24333 10.0292 1.3625 10.1683 0 10.6533V13.3467C1.36 13.83 2.24333 13.9708 2.6825 15.0292C3.12417 16.0975 2.5875 16.8342 1.97667 18.1183L3.88083 20.0233C5.1825 19.4042 5.90917 18.8775 6.97 19.3175H6.97083C8.02917 19.7558 8.1675 20.6333 8.65333 22H11.3467C11.8317 20.6367 11.9717 19.7583 13.0358 19.315H13.0367C14.0883 18.8783 14.8033 19.3992 16.1183 20.0242L18.0225 18.1192C17.4025 16.8167 16.8767 16.0917 17.3158 15.0308C17.755 13.9717 18.6392 13.8308 20 13.3467ZM10 15.3333C8.15917 15.3333 6.66667 13.8408 6.66667 12C6.66667 10.1592 8.15917 8.66667 10 8.66667C11.8408 8.66667 13.3333 10.1592 13.3333 12C13.3333 13.8408 11.8408 15.3333 10 15.3333Z" fill="#C2E3FF"/>
<path d="M33.494 18V6.228H35.582V10.962H40.352V6.228H42.44V18H40.352V12.78H35.582V18H33.494ZM48.8675 18.216C48.3155 18.216 47.7875 18.114 47.2835 17.91C46.7795 17.706 46.3295 17.406 45.9335 17.01C45.5495 16.614 45.2435 16.128 45.0155 15.552C44.7875 14.976 44.6735 14.322 44.6735 13.59C44.6735 12.858 44.7875 12.204 45.0155 11.628C45.2435 11.052 45.5495 10.566 45.9335 10.17C46.3295 9.774 46.7795 9.474 47.2835 9.27C47.7875 9.054 48.3155 8.946 48.8675 8.946C49.4195 8.946 49.9475 9.054 50.4515 9.27C50.9675 9.474 51.4175 9.774 51.8015 10.17C52.1855 10.566 52.4915 11.052 52.7195 11.628C52.9595 12.204 53.0795 12.858 53.0795 13.59C53.0795 14.322 52.9595 14.976 52.7195 15.552C52.4915 16.128 52.1855 16.614 51.8015 17.01C51.4175 17.406 50.9675 17.706 50.4515 17.91C49.9475 18.114 49.4195 18.216 48.8675 18.216ZM48.8675 16.524C49.5155 16.524 50.0255 16.26 50.3975 15.732C50.7695 15.192 50.9555 14.478 50.9555 13.59C50.9555 12.69 50.7695 11.976 50.3975 11.448C50.0255 10.908 49.5155 10.638 48.8675 10.638C48.2195 10.638 47.7095 10.908 47.3375 11.448C46.9775 11.976 46.7975 12.69 46.7975 13.59C46.7975 14.478 46.9775 15.192 47.3375 15.732C47.7095 16.26 48.2195 16.524 48.8675 16.524ZM56.481 18L54.141 9.162H56.229L57.291 13.752C57.387 14.172 57.465 14.592 57.525 15.012C57.597 15.432 57.675 15.858 57.759 16.29H57.831C57.915 15.858 57.999 15.432 58.083 15.012C58.179 14.592 58.281 14.172 58.389 13.752L59.541 9.162H61.431L62.601 13.752C62.709 14.172 62.811 14.592 62.907 15.012C63.003 15.432 63.099 15.858 63.195 16.29H63.267C63.351 15.858 63.429 15.432 63.501 15.012C63.573 14.592 63.651 14.172 63.735 13.752L64.797 9.162H66.741L64.491 18H62.025L60.999 13.878C60.903 13.458 60.813 13.044 60.729 12.636C60.645 12.216 60.555 11.772 60.459 11.304H60.387C60.303 11.772 60.219 12.216 60.135 12.636C60.051 13.056 59.961 13.476 59.865 13.896L58.857 18H56.481ZM72.0913 18V9.162H74.1613V18H72.0913ZM73.1353 7.614C72.7633 7.614 72.4573 7.506 72.2173 7.29C71.9773 7.074 71.8573 6.792 71.8573 6.444C71.8573 6.096 71.9773 5.814 72.2173 5.598C72.4573 5.37 72.7633 5.256 73.1353 5.256C73.5073 5.256 73.8133 5.37 74.0533 5.598C74.2933 5.814 74.4133 6.096 74.4133 6.444C74.4133 6.792 74.2933 7.074 74.0533 7.29C73.8133 7.506 73.5073 7.614 73.1353 7.614ZM79.9163 18.216C79.4003 18.216 78.9623 18.138 78.6023 17.982C78.2543 17.826 77.9663 17.61 77.7383 17.334C77.5223 17.046 77.3603 16.71 77.2523 16.326C77.1563 15.93 77.1083 15.492 77.1083 15.012V10.8H75.8483V9.252L77.2163 9.162L77.4683 6.75H79.1963V9.162H81.4463V10.8H79.1963V15.012C79.1963 16.044 79.6103 16.56 80.4383 16.56C80.5943 16.56 80.7503 16.542 80.9063 16.506C81.0743 16.47 81.2243 16.422 81.3563 16.362L81.7163 17.892C81.4763 17.976 81.2003 18.048 80.8883 18.108C80.5883 18.18 80.2643 18.216 79.9163 18.216ZM88.3677 18L86.0277 9.162H88.1157L89.1777 13.752C89.2737 14.172 89.3517 14.592 89.4117 15.012C89.4837 15.432 89.5617 15.858 89.6457 16.29H89.7177C89.8017 15.858 89.8857 15.432 89.9697 15.012C90.0657 14.592 90.1677 14.172 90.2757 13.752L91.4277 9.162H93.3177L94.4877 13.752C94.5957 14.172 94.6977 14.592 94.7937 15.012C94.8897 15.432 94.9857 15.858 95.0817 16.29H95.1537C95.2377 15.858 95.3157 15.432 95.3877 15.012C95.4597 14.592 95.5377 14.172 95.6217 13.752L96.6837 9.162H98.6277L96.3777 18H93.9117L92.8857 13.878C92.7897 13.458 92.6997 13.044 92.6157 12.636C92.5317 12.216 92.4417 11.772 92.3457 11.304H92.2737C92.1897 11.772 92.1057 12.216 92.0217 12.636C91.9377 13.056 91.8477 13.476 91.7517 13.896L90.7437 18H88.3677ZM103.887 18.216C103.335 18.216 102.807 18.114 102.303 17.91C101.799 17.706 101.349 17.406 100.953 17.01C100.569 16.614 100.263 16.128 100.035 15.552C99.8071 14.976 99.6931 14.322 99.6931 13.59C99.6931 12.858 99.8071 12.204 100.035 11.628C100.263 11.052 100.569 10.566 100.953 10.17C101.349 9.774 101.799 9.474 102.303 9.27C102.807 9.054 103.335 8.946 103.887 8.946C104.439 8.946 104.967 9.054 105.471 9.27C105.987 9.474 106.437 9.774 106.821 10.17C107.205 10.566 107.511 11.052 107.739 11.628C107.979 12.204 108.099 12.858 108.099 13.59C108.099 14.322 107.979 14.976 107.739 15.552C107.511 16.128 107.205 16.614 106.821 17.01C106.437 17.406 105.987 17.706 105.471 17.91C104.967 18.114 104.439 18.216 103.887 18.216ZM103.887 16.524C104.535 16.524 105.045 16.26 105.417 15.732C105.789 15.192 105.975 14.478 105.975 13.59C105.975 12.69 105.789 11.976 105.417 11.448C105.045 10.908 104.535 10.638 103.887 10.638C103.239 10.638 102.729 10.908 102.357 11.448C101.997 11.976 101.817 12.69 101.817 13.59C101.817 14.478 101.997 15.192 102.357 15.732C102.729 16.26 103.239 16.524 103.887 16.524ZM110.148 18V9.162H111.858L112.002 10.728H112.074C112.386 10.152 112.764 9.714 113.208 9.414C113.652 9.102 114.108 8.946 114.576 8.946C114.996 8.946 115.332 9.006 115.584 9.126L115.224 10.926C115.068 10.878 114.924 10.842 114.792 10.818C114.66 10.794 114.498 10.782 114.306 10.782C113.958 10.782 113.592 10.92 113.208 11.196C112.824 11.46 112.494 11.928 112.218 12.6V18H110.148ZM116.863 18V5.292H118.897V13.23H118.951L122.227 9.162H124.495L121.471 12.762L124.801 18H122.551L120.283 14.166L118.897 15.75V18H116.863ZM128.733 18.216C128.121 18.216 127.515 18.102 126.915 17.874C126.327 17.634 125.817 17.34 125.385 16.992L126.357 15.66C126.753 15.972 127.143 16.218 127.527 16.398C127.923 16.566 128.349 16.65 128.805 16.65C129.285 16.65 129.639 16.554 129.867 16.362C130.095 16.158 130.209 15.9 130.209 15.588C130.209 15.408 130.155 15.252 130.047 15.12C129.939 14.976 129.795 14.85 129.615 14.742C129.435 14.634 129.231 14.538 129.003 14.454C128.775 14.358 128.547 14.262 128.319 14.166C128.031 14.058 127.737 13.932 127.437 13.788C127.137 13.644 126.867 13.47 126.627 13.266C126.399 13.062 126.207 12.828 126.051 12.564C125.907 12.288 125.835 11.964 125.835 11.592C125.835 10.812 126.123 10.176 126.699 9.684C127.275 9.192 128.061 8.946 129.057 8.946C129.669 8.946 130.221 9.054 130.713 9.27C131.205 9.486 131.631 9.732 131.991 10.008L131.037 11.268C130.725 11.04 130.407 10.86 130.083 10.728C129.771 10.584 129.441 10.512 129.093 10.512C128.649 10.512 128.319 10.608 128.103 10.8C127.899 10.98 127.797 11.208 127.797 11.484C127.797 11.664 127.845 11.82 127.941 11.952C128.049 12.072 128.187 12.18 128.355 12.276C128.523 12.372 128.715 12.462 128.931 12.546C129.159 12.63 129.393 12.714 129.633 12.798C129.933 12.906 130.233 13.032 130.533 13.176C130.833 13.308 131.103 13.476 131.343 13.68C131.595 13.884 131.793 14.136 131.937 14.436C132.093 14.724 132.171 15.072 132.171 15.48C132.171 15.864 132.093 16.224 131.937 16.56C131.793 16.884 131.577 17.172 131.289 17.424C131.001 17.664 130.641 17.856 130.209 18C129.777 18.144 129.285 18.216 128.733 18.216Z" fill="#C2E3FF"/>
</svg>
