<svg width="20" height="20" viewBox="0 0 20 20" fill="none" xmlns="http://www.w3.org/2000/svg">
<path d="M20 11.3467V8.65333C18.6242 8.16417 17.755 8.02667 17.3175 6.97083C16.8783 5.91167 17.4008 5.19167 18.0233 3.88083L16.1192 1.97667C14.8183 2.595 14.0917 3.1225 13.03 2.6825C11.9725 2.24417 11.8333 1.36917 11.3467 0H8.65333C8.16833 1.3625 8.02917 2.24333 6.97083 2.6825C5.91167 3.1225 5.19333 2.60083 3.88083 1.97667L1.97667 3.88083C2.5975 5.1875 3.1225 5.90917 2.6825 6.97C2.24333 8.02917 1.3625 8.16833 0 8.65333V11.3467C1.36 11.83 2.24333 11.9708 2.6825 13.0292C3.12417 14.0975 2.5875 14.8342 1.97667 16.1183L3.88083 18.0233C5.1825 17.4042 5.90917 16.8775 6.97 17.3175C8.02833 17.7558 8.1675 18.6333 8.65333 20H11.3467C11.8317 18.6367 11.9717 17.7583 13.0358 17.315C14.0875 16.8783 14.8033 17.3992 16.1183 18.0242L18.0225 16.1192C17.4025 14.8167 16.8767 14.0917 17.3158 13.0308C17.755 11.9717 18.6392 11.8308 20 11.3467ZM10 13.3333C8.15917 13.3333 6.66667 11.8408 6.66667 10C6.66667 8.15917 8.15917 6.66667 10 6.66667C11.8408 6.66667 13.3333 8.15917 13.3333 10C13.3333 11.8408 11.8408 13.3333 10 13.3333Z" fill="#C2E3FF"/>
</svg>
