<svg width="320" height="320" viewBox="0 0 320 320" fill="none" xmlns="http://www.w3.org/2000/svg">
<path d="M246.857 0H73.1429C32.7472 0 0 32.7472 0 73.1429V246.857C0 287.253 32.7472 320 73.1429 320H246.857C287.253 320 320 287.253 320 246.857V73.1429C320 32.7472 287.253 0 246.857 0Z" fill="#FDF0DD"/>
<path d="M246.856 6.09521H73.1414C36.112 6.09521 6.09375 36.1135 6.09375 73.1428V246.857C6.09375 283.886 36.112 313.905 73.1414 313.905H246.856C283.885 313.905 313.903 283.886 313.903 246.857V73.1428C313.903 36.1135 283.885 6.09521 246.856 6.09521Z" fill="#040605"/>
<path d="M265.144 35.8096H148.001C137.481 35.8096 128.953 44.3375 128.953 54.8572V172C128.953 182.52 137.481 191.048 148.001 191.048H265.144C275.663 191.048 284.191 182.52 284.191 172V54.8572C284.191 44.3375 275.663 35.8096 265.144 35.8096Z" fill="#FDF0DD"/>
<path d="M109.904 191.048H54.8562C44.3365 191.048 35.8086 199.576 35.8086 210.095V265.143C35.8086 275.663 44.3365 284.191 54.8562 284.191H109.904C120.424 284.191 128.951 275.663 128.951 265.143V210.095C128.951 199.576 120.424 191.048 109.904 191.048Z" fill="#FDF0DD"/>
<path d="M172.001 191.048H148.001C137.481 191.048 128.953 199.576 128.953 210.095V234.095C128.953 244.615 137.481 253.143 148.001 253.143H172.001C182.52 253.143 191.048 244.615 191.048 234.095V210.095C191.048 199.576 182.52 191.048 172.001 191.048Z" fill="#66B8FF"/>
<path d="M128.954 175.524C128.954 166.95 122.004 160 113.43 160C104.856 160 97.9062 166.95 97.9062 175.524C97.9062 184.097 104.856 191.048 113.43 191.048C122.004 191.048 128.954 184.097 128.954 175.524Z" fill="#66B8FF"/>
</svg>
