<svg width="273" height="184" viewBox="0 0 273 184" fill="none" xmlns="http://www.w3.org/2000/svg">
<g style="mix-blend-mode:hard-light">
<path d="M18.18 123.06H16.8C16.76 125.54 16.72 128.04 16.68 130.56C16.68 133.08 16.68 135.62 16.68 138.18V140.58H18.42C21.06 140.58 23.04 139.74 24.36 138.06C25.68 136.34 26.34 134.12 26.34 131.4C26.34 128.64 25.62 126.56 24.18 125.16C22.78 123.76 20.78 123.06 18.18 123.06ZM1.98 122.82V119.58H18.3C22.46 119.58 25.82 120.08 28.38 121.08C30.94 122.04 32.8 123.42 33.96 125.22C35.16 126.98 35.76 129.06 35.76 131.46C35.76 133.74 35.2 135.84 34.08 137.76C33 139.64 31.2 141.14 28.68 142.26C26.16 143.38 22.72 143.94 18.36 143.94H16.68C16.68 145.66 16.68 147.48 16.68 149.4C16.72 151.28 16.76 153.22 16.8 155.22L22.14 155.76V159H1.98V155.76L6.48 155.28C6.56 152.84 6.6 150.38 6.6 147.9C6.6 145.42 6.6 142.92 6.6 140.4V138.18C6.6 135.7 6.6 133.22 6.6 130.74C6.6 128.22 6.56 125.74 6.48 123.3L1.98 122.82ZM53.205 159.9C50.085 159.9 47.385 159.26 45.105 157.98C42.825 156.66 41.065 154.84 39.825 152.52C38.585 150.16 37.965 147.44 37.965 144.36C37.965 141.28 38.625 138.6 39.945 136.32C41.305 134.04 43.145 132.26 45.465 130.98C47.785 129.7 50.365 129.06 53.205 129.06C56.045 129.06 58.605 129.68 60.885 130.92C63.205 132.16 65.045 133.94 66.405 136.26C67.765 138.54 68.445 141.24 68.445 144.36C68.445 147.48 67.825 150.2 66.585 152.52C65.345 154.84 63.585 156.66 61.305 157.98C59.025 159.26 56.325 159.9 53.205 159.9ZM53.205 156.78C54.885 156.78 56.145 155.8 56.985 153.84C57.825 151.88 58.245 148.78 58.245 144.54C58.245 140.26 57.825 137.14 56.985 135.18C56.145 133.22 54.885 132.24 53.205 132.24C51.485 132.24 50.205 133.22 49.365 135.18C48.525 137.14 48.105 140.26 48.105 144.54C48.105 148.78 48.525 151.88 49.365 153.84C50.205 155.8 51.485 156.78 53.205 156.78ZM82.9908 159.9C79.1908 159.9 75.7108 158.98 72.5508 157.14L72.7308 149.82H77.5308L78.5508 155.76C79.2708 156.04 79.9908 156.26 80.7108 156.42C81.4308 156.54 82.2108 156.6 83.0508 156.6C84.7708 156.6 86.0908 156.32 87.0108 155.76C87.9308 155.16 88.3908 154.26 88.3908 153.06C88.3908 152.14 88.0508 151.34 87.3708 150.66C86.6908 149.98 85.3508 149.36 83.3508 148.8L80.1108 147.84C77.7908 147.16 75.9908 146.06 74.7108 144.54C73.4708 143.02 72.8508 141.14 72.8508 138.9C72.8508 136.14 73.9308 133.82 76.0908 131.94C78.2508 130.02 81.3508 129.06 85.3908 129.06C87.1508 129.06 88.7708 129.28 90.2508 129.72C91.7708 130.12 93.3108 130.72 94.8708 131.52L94.4508 138.06H89.6508L88.4508 132.9C87.6108 132.58 86.5108 132.42 85.1508 132.42C83.7908 132.42 82.6908 132.7 81.8508 133.26C81.0508 133.82 80.6508 134.66 80.6508 135.78C80.6508 136.58 80.9708 137.3 81.6108 137.94C82.2508 138.54 83.6108 139.16 85.6908 139.8L88.6308 140.64C91.4708 141.48 93.5108 142.68 94.7508 144.24C95.9908 145.8 96.6108 147.7 96.6108 149.94C96.6108 153.1 95.3908 155.56 92.9508 157.32C90.5508 159.04 87.2308 159.9 82.9908 159.9ZM111.735 159.9C109.055 159.9 106.955 159.26 105.435 157.98C103.915 156.66 103.155 154.52 103.155 151.56C103.155 150.52 103.155 149.56 103.155 148.68C103.195 147.76 103.215 146.72 103.215 145.56V134.1H99.3155V130.56L103.755 129.96L106.755 121.56H112.875L112.755 130.02H119.055V134.1H112.755V150.9C112.755 152.3 113.035 153.34 113.595 154.02C114.195 154.66 114.935 154.98 115.815 154.98C116.855 154.98 117.935 154.54 119.055 153.66L120.555 155.1C119.755 156.62 118.635 157.8 117.195 158.64C115.795 159.48 113.975 159.9 111.735 159.9ZM122.089 172.62V169.8L125.449 169.08C125.489 167.2 125.509 165.44 125.509 163.8C125.549 162.2 125.569 160.66 125.569 159.18V142.92C125.569 141.28 125.549 140.02 125.509 139.14C125.509 138.22 125.469 137.16 125.389 135.96L121.669 135.42V133.08L133.429 129.06L134.449 129.66L134.689 133.02C137.209 130.38 140.169 129.06 143.569 129.06C145.769 129.06 147.749 129.64 149.509 130.8C151.269 131.96 152.669 133.68 153.709 135.96C154.789 138.24 155.329 141.04 155.329 144.36C155.329 147.56 154.729 150.34 153.529 152.7C152.329 155.02 150.749 156.8 148.789 158.04C146.869 159.28 144.769 159.9 142.489 159.9C139.409 159.9 136.889 158.86 134.929 156.78V159.12C134.929 160.6 134.929 162.14 134.929 163.74C134.969 165.34 135.009 167.06 135.049 168.9L138.889 169.8V172.62H122.089ZM139.189 134.28C138.429 134.28 137.709 134.44 137.029 134.76C136.389 135.08 135.749 135.48 135.109 135.96V153.36C136.309 154.36 137.609 154.86 139.009 154.86C140.809 154.86 142.269 154.02 143.389 152.34C144.549 150.66 145.129 148.04 145.129 144.48C145.129 140.92 144.569 138.34 143.449 136.74C142.369 135.1 140.949 134.28 139.189 134.28ZM159.249 159V156.18L162.549 155.52C162.589 154.04 162.609 152.46 162.609 150.78C162.609 149.1 162.609 147.64 162.609 146.4V142.86C162.609 141.74 162.589 140.82 162.549 140.1C162.549 139.38 162.529 138.72 162.489 138.12C162.489 137.48 162.469 136.76 162.429 135.96L158.769 135.42V133.08L170.589 129.06L171.669 129.72L172.209 136.8C173.049 134.24 174.229 132.32 175.749 131.04C177.269 129.72 178.769 129.06 180.249 129.06C181.569 129.06 182.709 129.44 183.669 130.2C184.629 130.92 185.229 132.02 185.469 133.5C185.429 135.06 185.009 136.28 184.209 137.16C183.409 138 182.409 138.42 181.209 138.42C179.529 138.42 177.989 137.48 176.589 135.6L176.229 135.12C175.349 135.96 174.529 137.02 173.769 138.3C173.049 139.58 172.529 140.92 172.209 142.32V146.4C172.209 147.64 172.209 149.06 172.209 150.66C172.209 152.26 172.229 153.76 172.269 155.16L177.009 156.18V159H159.249ZM201.683 132.18C200.563 132.18 199.523 132.88 198.563 134.28C197.643 135.64 197.123 138.16 197.003 141.84H202.103C203.543 141.84 204.503 141.56 204.983 141C205.503 140.4 205.763 139.42 205.763 138.06C205.763 136.06 205.363 134.58 204.563 133.62C203.763 132.66 202.803 132.18 201.683 132.18ZM201.803 159.9C198.883 159.9 196.303 159.3 194.063 158.1C191.823 156.86 190.063 155.1 188.783 152.82C187.503 150.5 186.863 147.74 186.863 144.54C186.863 141.18 187.603 138.36 189.083 136.08C190.603 133.76 192.543 132.02 194.903 130.86C197.263 129.66 199.723 129.06 202.283 129.06C204.923 129.06 207.163 129.62 209.003 130.74C210.883 131.86 212.303 133.38 213.263 135.3C214.223 137.18 214.703 139.34 214.703 141.78C214.703 142.94 214.583 144 214.343 144.96H197.003C197.203 148.12 198.063 150.46 199.583 151.98C201.143 153.46 202.963 154.2 205.043 154.2C206.683 154.2 208.083 153.9 209.243 153.3C210.403 152.66 211.423 151.88 212.303 150.96L214.403 152.88C213.163 155.24 211.483 157 209.363 158.16C207.243 159.32 204.723 159.9 201.803 159.9ZM229.252 159.9C225.452 159.9 221.972 158.98 218.812 157.14L218.992 149.82H223.792L224.812 155.76C225.532 156.04 226.252 156.26 226.972 156.42C227.692 156.54 228.472 156.6 229.312 156.6C231.032 156.6 232.352 156.32 233.272 155.76C234.192 155.16 234.652 154.26 234.652 153.06C234.652 152.14 234.312 151.34 233.632 150.66C232.952 149.98 231.612 149.36 229.612 148.8L226.372 147.84C224.052 147.16 222.252 146.06 220.972 144.54C219.732 143.02 219.112 141.14 219.112 138.9C219.112 136.14 220.192 133.82 222.352 131.94C224.512 130.02 227.612 129.06 231.652 129.06C233.412 129.06 235.032 129.28 236.512 129.72C238.032 130.12 239.572 130.72 241.132 131.52L240.712 138.06H235.912L234.712 132.9C233.872 132.58 232.772 132.42 231.412 132.42C230.052 132.42 228.952 132.7 228.112 133.26C227.312 133.82 226.912 134.66 226.912 135.78C226.912 136.58 227.232 137.3 227.872 137.94C228.512 138.54 229.872 139.16 231.952 139.8L234.892 140.64C237.732 141.48 239.772 142.68 241.012 144.24C242.252 145.8 242.872 147.7 242.872 149.94C242.872 153.1 241.652 155.56 239.212 157.32C236.812 159.04 233.492 159.9 229.252 159.9ZM257.157 159.9C253.357 159.9 249.877 158.98 246.717 157.14L246.897 149.82H251.697L252.717 155.76C253.437 156.04 254.157 156.26 254.877 156.42C255.597 156.54 256.377 156.6 257.217 156.6C258.937 156.6 260.257 156.32 261.177 155.76C262.097 155.16 262.557 154.26 262.557 153.06C262.557 152.14 262.217 151.34 261.537 150.66C260.857 149.98 259.517 149.36 257.517 148.8L254.277 147.84C251.957 147.16 250.157 146.06 248.877 144.54C247.637 143.02 247.017 141.14 247.017 138.9C247.017 136.14 248.097 133.82 250.257 131.94C252.417 130.02 255.517 129.06 259.557 129.06C261.317 129.06 262.937 129.28 264.417 129.72C265.937 130.12 267.477 130.72 269.037 131.52L268.617 138.06H263.817L262.617 132.9C261.777 132.58 260.677 132.42 259.317 132.42C257.957 132.42 256.857 132.7 256.017 133.26C255.217 133.82 254.817 134.66 254.817 135.78C254.817 136.58 255.137 137.3 255.777 137.94C256.417 138.54 257.777 139.16 259.857 139.8L262.797 140.64C265.637 141.48 267.677 142.68 268.917 144.24C270.157 145.8 270.777 147.7 270.777 149.94C270.777 153.1 269.557 155.56 267.117 157.32C264.717 159.04 261.397 159.9 257.157 159.9Z" fill="#FDF0DD"/>
</g>
<rect style="mix-blend-mode:hard-light" x="135" width="50" height="50" rx="25" fill="#FDF0DD"/>
<rect style="mix-blend-mode:hard-light" x="105" y="50" width="30" height="30" rx="15" fill="#FDF0DD"/>
<path d="M135 60C135 54.4772 139.477 50 145 50C150.523 50 155 54.4772 155 60C155 65.5228 150.523 70 145 70C139.477 70 135 65.5228 135 60Z" fill="#66B8FF"/>
<path d="M125 45C125 42.2386 127.239 40 130 40C132.761 40 135 42.2386 135 45C135 47.7614 132.761 50 130 50C127.239 50 125 47.7614 125 45Z" fill="#66B8FF"/>
<g style="mix-blend-mode:hard-light">
<rect x="85.5" y="0.5" width="99" height="99" rx="9.5" stroke="#FDF0DD" style="mix-blend-mode:hard-light"/>
</g>
</svg>
