<svg width="184" height="184" viewBox="0 0 184 184" fill="none" xmlns="http://www.w3.org/2000/svg">
<g style="mix-blend-mode:hard-light">
<path d="M12.24 159.9C8.44 159.9 4.96 158.98 1.8 157.14L1.98 149.82H6.78L7.8 155.76C8.52 156.04 9.24 156.26 9.96 156.42C10.68 156.54 11.46 156.6 12.3 156.6C14.02 156.6 15.34 156.32 16.26 155.76C17.18 155.16 17.64 154.26 17.64 153.06C17.64 152.14 17.3 151.34 16.62 150.66C15.94 149.98 14.6 149.36 12.6 148.8L9.36 147.84C7.04 147.16 5.24 146.06 3.96 144.54C2.72 143.02 2.1 141.14 2.1 138.9C2.1 136.14 3.18 133.82 5.34 131.94C7.5 130.02 10.6 129.06 14.64 129.06C16.4 129.06 18.02 129.28 19.5 129.72C21.02 130.12 22.56 130.72 24.12 131.52L23.7 138.06H18.9L17.7 132.9C16.86 132.58 15.76 132.42 14.4 132.42C13.04 132.42 11.94 132.7 11.1 133.26C10.3 133.82 9.9 134.66 9.9 135.78C9.9 136.58 10.22 137.3 10.86 137.94C11.5 138.54 12.86 139.16 14.94 139.8L17.88 140.64C20.72 141.48 22.76 142.68 24 144.24C25.24 145.8 25.86 147.7 25.86 149.94C25.86 153.1 24.64 155.56 22.2 157.32C19.8 159.04 16.48 159.9 12.24 159.9ZM28.4588 172.62V169.8L31.8188 169.08C31.8588 167.2 31.8788 165.44 31.8788 163.8C31.9188 162.2 31.9388 160.66 31.9388 159.18V142.92C31.9388 141.28 31.9188 140.02 31.8788 139.14C31.8788 138.22 31.8388 137.16 31.7588 135.96L28.0388 135.42V133.08L39.7988 129.06L40.8188 129.66L41.0588 133.02C43.5788 130.38 46.5388 129.06 49.9388 129.06C52.1388 129.06 54.1188 129.64 55.8788 130.8C57.6388 131.96 59.0388 133.68 60.0788 135.96C61.1588 138.24 61.6988 141.04 61.6988 144.36C61.6988 147.56 61.0988 150.34 59.8988 152.7C58.6988 155.02 57.1188 156.8 55.1588 158.04C53.2388 159.28 51.1388 159.9 48.8588 159.9C45.7788 159.9 43.2588 158.86 41.2988 156.78V159.12C41.2988 160.6 41.2988 162.14 41.2988 163.74C41.3388 165.34 41.3788 167.06 41.4188 168.9L45.2588 169.8V172.62H28.4588ZM45.5588 134.28C44.7988 134.28 44.0788 134.44 43.3988 134.76C42.7588 135.08 42.1188 135.48 41.4788 135.96V153.36C42.6788 154.36 43.9788 154.86 45.3788 154.86C47.1788 154.86 48.6388 154.02 49.7588 152.34C50.9188 150.66 51.4988 148.04 51.4988 144.48C51.4988 140.92 50.9388 138.34 49.8188 136.74C48.7388 135.1 47.3188 134.28 45.5588 134.28ZM87.8883 159.84C84.4083 159.84 82.2083 158.4 81.2883 155.52C80.0083 156.88 78.7683 157.96 77.5683 158.76C76.4083 159.52 74.7883 159.9 72.7083 159.9C70.3883 159.9 68.4883 159.24 67.0083 157.92C65.5683 156.6 64.8483 154.7 64.8483 152.22C64.8483 150.78 65.1683 149.48 65.8083 148.32C66.4483 147.16 67.6083 146.08 69.2883 145.08C70.9683 144.08 73.3483 143.14 76.4283 142.26C77.0283 142.06 77.7283 141.86 78.5283 141.66C79.3283 141.46 80.1483 141.26 80.9883 141.06V139.08C80.9883 136.4 80.6483 134.58 79.9683 133.62C79.3283 132.66 78.0483 132.18 76.1283 132.18C75.8483 132.18 75.5883 132.18 75.3483 132.18C75.1083 132.18 74.8283 132.2 74.5083 132.24L74.2083 134.88C74.1683 136.84 73.7083 138.26 72.8283 139.14C71.9883 140.02 70.9883 140.46 69.8283 140.46C67.6283 140.46 66.2883 139.46 65.8083 137.46C65.9683 134.98 67.2283 132.96 69.5883 131.4C71.9483 129.84 75.2883 129.06 79.6083 129.06C83.4483 129.06 86.1883 129.94 87.8283 131.7C89.5083 133.46 90.3483 136.36 90.3483 140.4V153.84C90.3483 155 90.7883 155.58 91.6683 155.58C91.9883 155.58 92.2883 155.5 92.5683 155.34C92.8483 155.14 93.1483 154.78 93.4683 154.26L95.0883 155.34C94.3683 156.94 93.4283 158.1 92.2683 158.82C91.1483 159.5 89.6883 159.84 87.8883 159.84ZM73.7283 150.66C73.7283 152.14 74.0683 153.24 74.7483 153.96C75.4683 154.68 76.3283 155.04 77.3283 155.04C77.7683 155.04 78.2283 154.94 78.7083 154.74C79.1883 154.54 79.9483 154.08 80.9883 153.36V143.64C80.4683 143.8 79.9483 143.98 79.4283 144.18C78.9483 144.34 78.5283 144.5 78.1683 144.66C76.8083 145.22 75.7283 146.02 74.9283 147.06C74.1283 148.06 73.7283 149.26 73.7283 150.66ZM111.483 159.9C108.763 159.9 106.263 159.34 103.983 158.22C101.743 157.06 99.9433 155.34 98.5833 153.06C97.2233 150.78 96.5433 147.96 96.5433 144.6C96.5433 141.32 97.2633 138.52 98.7033 136.2C100.183 133.88 102.143 132.12 104.583 130.92C107.063 129.68 109.783 129.06 112.743 129.06C114.863 129.06 116.743 129.46 118.383 130.26C120.023 131.06 121.323 132.12 122.283 133.44C123.283 134.76 123.843 136.22 123.963 137.82C123.323 139.9 121.963 140.94 119.883 140.94C118.723 140.94 117.703 140.52 116.823 139.68C115.943 138.84 115.443 137.36 115.323 135.24L114.903 132.24C114.743 132.2 114.563 132.18 114.363 132.18C114.163 132.18 113.963 132.18 113.763 132.18C112.643 132.18 111.523 132.56 110.403 133.32C109.283 134.08 108.363 135.28 107.643 136.92C106.923 138.56 106.563 140.74 106.563 143.46C106.563 146.9 107.323 149.56 108.843 151.44C110.403 153.28 112.443 154.2 114.963 154.2C116.403 154.2 117.663 153.9 118.743 153.3C119.823 152.66 120.803 151.84 121.683 150.84L123.783 152.7C122.623 155.14 120.983 156.96 118.863 158.16C116.783 159.32 114.323 159.9 111.483 159.9ZM141.775 132.18C140.655 132.18 139.615 132.88 138.655 134.28C137.735 135.64 137.215 138.16 137.095 141.84H142.195C143.635 141.84 144.595 141.56 145.075 141C145.595 140.4 145.855 139.42 145.855 138.06C145.855 136.06 145.455 134.58 144.655 133.62C143.855 132.66 142.895 132.18 141.775 132.18ZM141.895 159.9C138.975 159.9 136.395 159.3 134.155 158.1C131.915 156.86 130.155 155.1 128.875 152.82C127.595 150.5 126.955 147.74 126.955 144.54C126.955 141.18 127.695 138.36 129.175 136.08C130.695 133.76 132.635 132.02 134.995 130.86C137.355 129.66 139.815 129.06 142.375 129.06C145.015 129.06 147.255 129.62 149.095 130.74C150.975 131.86 152.395 133.38 153.355 135.3C154.315 137.18 154.795 139.34 154.795 141.78C154.795 142.94 154.675 144 154.435 144.96H137.095C137.295 148.12 138.155 150.46 139.675 151.98C141.235 153.46 143.055 154.2 145.135 154.2C146.775 154.2 148.175 153.9 149.335 153.3C150.495 152.66 151.515 151.88 152.395 150.96L154.495 152.88C153.255 155.24 151.575 157 149.455 158.16C147.335 159.32 144.815 159.9 141.895 159.9ZM168.744 159.9C164.944 159.9 161.464 158.98 158.304 157.14L158.484 149.82H163.284L164.304 155.76C165.024 156.04 165.744 156.26 166.464 156.42C167.184 156.54 167.964 156.6 168.804 156.6C170.524 156.6 171.844 156.32 172.764 155.76C173.684 155.16 174.144 154.26 174.144 153.06C174.144 152.14 173.804 151.34 173.124 150.66C172.444 149.98 171.104 149.36 169.104 148.8L165.864 147.84C163.544 147.16 161.744 146.06 160.464 144.54C159.224 143.02 158.604 141.14 158.604 138.9C158.604 136.14 159.684 133.82 161.844 131.94C164.004 130.02 167.104 129.06 171.144 129.06C172.904 129.06 174.524 129.28 176.004 129.72C177.524 130.12 179.064 130.72 180.624 131.52L180.204 138.06H175.404L174.204 132.9C173.364 132.58 172.264 132.42 170.904 132.42C169.544 132.42 168.444 132.7 167.604 133.26C166.804 133.82 166.404 134.66 166.404 135.78C166.404 136.58 166.724 137.3 167.364 137.94C168.004 138.54 169.364 139.16 171.444 139.8L174.384 140.64C177.224 141.48 179.264 142.68 180.504 144.24C181.744 145.8 182.364 147.7 182.364 149.94C182.364 153.1 181.144 155.56 178.704 157.32C176.304 159.04 172.984 159.9 168.744 159.9Z" fill="#FDF0DD"/>
</g>
<rect style="mix-blend-mode:hard-light" x="92" width="50" height="50" rx="25" fill="#FDF0DD"/>
<rect style="mix-blend-mode:hard-light" x="62" y="50" width="30" height="30" rx="15" fill="#FDF0DD"/>
<path d="M92 60C92 54.4772 96.4772 50 102 50C107.523 50 112 54.4772 112 60C112 65.5228 107.523 70 102 70C96.4772 70 92 65.5228 92 60Z" fill="#66B8FF"/>
<path d="M82 45C82 42.2386 84.2386 40 87 40C89.7614 40 92 42.2386 92 45C92 47.7614 89.7614 50 87 50C84.2386 50 82 47.7614 82 45Z" fill="#66B8FF"/>
<g style="mix-blend-mode:hard-light">
<rect x="42.5" y="0.5" width="99" height="99" rx="9.5" stroke="#FDF0DD" style="mix-blend-mode:hard-light"/>
</g>
</svg>
