<svg width="268" height="184" viewBox="0 0 268 184" fill="none" xmlns="http://www.w3.org/2000/svg">
<g style="mix-blend-mode:hard-light">
<path d="M18.18 123.06H16.8C16.76 125.54 16.72 128.04 16.68 130.56C16.68 133.08 16.68 135.62 16.68 138.18V140.58H18.42C21.06 140.58 23.04 139.74 24.36 138.06C25.68 136.34 26.34 134.12 26.34 131.4C26.34 128.64 25.62 126.56 24.18 125.16C22.78 123.76 20.78 123.06 18.18 123.06ZM1.98 122.82V119.58H18.3C22.46 119.58 25.82 120.08 28.38 121.08C30.94 122.04 32.8 123.42 33.96 125.22C35.16 126.98 35.76 129.06 35.76 131.46C35.76 133.74 35.2 135.84 34.08 137.76C33 139.64 31.2 141.14 28.68 142.26C26.16 143.38 22.72 143.94 18.36 143.94H16.68C16.68 145.66 16.68 147.48 16.68 149.4C16.72 151.28 16.76 153.22 16.8 155.22L22.14 155.76V159H1.98V155.76L6.48 155.28C6.56 152.84 6.6 150.38 6.6 147.9C6.6 145.42 6.6 142.92 6.6 140.4V138.18C6.6 135.7 6.6 133.22 6.6 130.74C6.6 128.22 6.56 125.74 6.48 123.3L1.98 122.82ZM52.605 159.9C49.485 159.9 46.785 159.26 44.505 157.98C42.225 156.66 40.465 154.84 39.225 152.52C37.985 150.16 37.365 147.44 37.365 144.36C37.365 141.28 38.025 138.6 39.345 136.32C40.705 134.04 42.545 132.26 44.865 130.98C47.185 129.7 49.765 129.06 52.605 129.06C55.445 129.06 58.005 129.68 60.285 130.92C62.605 132.16 64.445 133.94 65.805 136.26C67.165 138.54 67.845 141.24 67.845 144.36C67.845 147.48 67.225 150.2 65.985 152.52C64.745 154.84 62.985 156.66 60.705 157.98C58.425 159.26 55.725 159.9 52.605 159.9ZM52.605 156.78C54.285 156.78 55.545 155.8 56.385 153.84C57.225 151.88 57.645 148.78 57.645 144.54C57.645 140.26 57.225 137.14 56.385 135.18C55.545 133.22 54.285 132.24 52.605 132.24C50.885 132.24 49.605 133.22 48.765 135.18C47.925 137.14 47.505 140.26 47.505 144.54C47.505 148.78 47.925 151.88 48.765 153.84C49.605 155.8 50.885 156.78 52.605 156.78ZM81.7908 159.9C77.9908 159.9 74.5108 158.98 71.3508 157.14L71.5308 149.82H76.3308L77.3508 155.76C78.0708 156.04 78.7908 156.26 79.5108 156.42C80.2308 156.54 81.0108 156.6 81.8508 156.6C83.5708 156.6 84.8908 156.32 85.8108 155.76C86.7308 155.16 87.1908 154.26 87.1908 153.06C87.1908 152.14 86.8508 151.34 86.1708 150.66C85.4908 149.98 84.1508 149.36 82.1508 148.8L78.9108 147.84C76.5908 147.16 74.7908 146.06 73.5108 144.54C72.2708 143.02 71.6508 141.14 71.6508 138.9C71.6508 136.14 72.7308 133.82 74.8908 131.94C77.0508 130.02 80.1508 129.06 84.1908 129.06C85.9508 129.06 87.5708 129.28 89.0508 129.72C90.5708 130.12 92.1108 130.72 93.6708 131.52L93.2508 138.06H88.4508L87.2508 132.9C86.4108 132.58 85.3108 132.42 83.9508 132.42C82.5908 132.42 81.4908 132.7 80.6508 133.26C79.8508 133.82 79.4508 134.66 79.4508 135.78C79.4508 136.58 79.7708 137.3 80.4108 137.94C81.0508 138.54 82.4108 139.16 84.4908 139.8L87.4308 140.64C90.2708 141.48 92.3108 142.68 93.5508 144.24C94.7908 145.8 95.4108 147.7 95.4108 149.94C95.4108 153.1 94.1908 155.56 91.7508 157.32C89.3508 159.04 86.0308 159.9 81.7908 159.9ZM109.935 159.9C107.255 159.9 105.155 159.26 103.635 157.98C102.115 156.66 101.355 154.52 101.355 151.56C101.355 150.52 101.355 149.56 101.355 148.68C101.395 147.76 101.415 146.72 101.415 145.56V134.1H97.5155V130.56L101.955 129.96L104.955 121.56H111.075L110.955 130.02H117.255V134.1H110.955V150.9C110.955 152.3 111.235 153.34 111.795 154.02C112.395 154.66 113.135 154.98 114.015 154.98C115.055 154.98 116.135 154.54 117.255 153.66L118.755 155.1C117.955 156.62 116.835 157.8 115.395 158.64C113.995 159.48 112.175 159.9 109.935 159.9ZM119.689 172.62V169.8L123.049 169.08C123.089 167.2 123.109 165.44 123.109 163.8C123.149 162.2 123.169 160.66 123.169 159.18V142.92C123.169 141.28 123.149 140.02 123.109 139.14C123.109 138.22 123.069 137.16 122.989 135.96L119.269 135.42V133.08L131.029 129.06L132.049 129.66L132.289 133.02C134.809 130.38 137.769 129.06 141.169 129.06C143.369 129.06 145.349 129.64 147.109 130.8C148.869 131.96 150.269 133.68 151.309 135.96C152.389 138.24 152.929 141.04 152.929 144.36C152.929 147.56 152.329 150.34 151.129 152.7C149.929 155.02 148.349 156.8 146.389 158.04C144.469 159.28 142.369 159.9 140.089 159.9C137.009 159.9 134.489 158.86 132.529 156.78V159.12C132.529 160.6 132.529 162.14 132.529 163.74C132.569 165.34 132.609 167.06 132.649 168.9L136.489 169.8V172.62H119.689ZM136.789 134.28C136.029 134.28 135.309 134.44 134.629 134.76C133.989 135.08 133.349 135.48 132.709 135.96V153.36C133.909 154.36 135.209 154.86 136.609 154.86C138.409 154.86 139.869 154.02 140.989 152.34C142.149 150.66 142.729 148.04 142.729 144.48C142.729 140.92 142.169 138.34 141.049 136.74C139.969 135.1 138.549 134.28 136.789 134.28ZM156.249 159V156.18L159.549 155.52C159.589 154.04 159.609 152.46 159.609 150.78C159.609 149.1 159.609 147.64 159.609 146.4V142.86C159.609 141.74 159.589 140.82 159.549 140.1C159.549 139.38 159.529 138.72 159.489 138.12C159.489 137.48 159.469 136.76 159.429 135.96L155.769 135.42V133.08L167.589 129.06L168.669 129.72L169.209 136.8C170.049 134.24 171.229 132.32 172.749 131.04C174.269 129.72 175.769 129.06 177.249 129.06C178.569 129.06 179.709 129.44 180.669 130.2C181.629 130.92 182.229 132.02 182.469 133.5C182.429 135.06 182.009 136.28 181.209 137.16C180.409 138 179.409 138.42 178.209 138.42C176.529 138.42 174.989 137.48 173.589 135.6L173.229 135.12C172.349 135.96 171.529 137.02 170.769 138.3C170.049 139.58 169.529 140.92 169.209 142.32V146.4C169.209 147.64 169.209 149.06 169.209 150.66C169.209 152.26 169.229 153.76 169.269 155.16L174.009 156.18V159H156.249ZM198.083 132.18C196.963 132.18 195.923 132.88 194.963 134.28C194.043 135.64 193.523 138.16 193.403 141.84H198.503C199.943 141.84 200.903 141.56 201.383 141C201.903 140.4 202.163 139.42 202.163 138.06C202.163 136.06 201.763 134.58 200.963 133.62C200.163 132.66 199.203 132.18 198.083 132.18ZM198.203 159.9C195.283 159.9 192.703 159.3 190.463 158.1C188.223 156.86 186.463 155.1 185.183 152.82C183.903 150.5 183.263 147.74 183.263 144.54C183.263 141.18 184.003 138.36 185.483 136.08C187.003 133.76 188.943 132.02 191.303 130.86C193.663 129.66 196.123 129.06 198.683 129.06C201.323 129.06 203.563 129.62 205.403 130.74C207.283 131.86 208.703 133.38 209.663 135.3C210.623 137.18 211.103 139.34 211.103 141.78C211.103 142.94 210.983 144 210.743 144.96H193.403C193.603 148.12 194.463 150.46 195.983 151.98C197.543 153.46 199.363 154.2 201.443 154.2C203.083 154.2 204.483 153.9 205.643 153.3C206.803 152.66 207.823 151.88 208.703 150.96L210.803 152.88C209.563 155.24 207.883 157 205.763 158.16C203.643 159.32 201.123 159.9 198.203 159.9ZM225.053 159.9C221.253 159.9 217.773 158.98 214.613 157.14L214.792 149.82H219.593L220.613 155.76C221.333 156.04 222.053 156.26 222.773 156.42C223.493 156.54 224.273 156.6 225.113 156.6C226.833 156.6 228.153 156.32 229.073 155.76C229.993 155.16 230.452 154.26 230.452 153.06C230.452 152.14 230.113 151.34 229.433 150.66C228.753 149.98 227.413 149.36 225.413 148.8L222.173 147.84C219.853 147.16 218.053 146.06 216.772 144.54C215.532 143.02 214.913 141.14 214.913 138.9C214.913 136.14 215.993 133.82 218.153 131.94C220.313 130.02 223.413 129.06 227.453 129.06C229.213 129.06 230.833 129.28 232.313 129.72C233.833 130.12 235.373 130.72 236.933 131.52L236.513 138.06H231.713L230.513 132.9C229.673 132.58 228.573 132.42 227.213 132.42C225.853 132.42 224.753 132.7 223.913 133.26C223.113 133.82 222.713 134.66 222.713 135.78C222.713 136.58 223.033 137.3 223.673 137.94C224.313 138.54 225.673 139.16 227.753 139.8L230.693 140.64C233.533 141.48 235.573 142.68 236.813 144.24C238.053 145.8 238.673 147.7 238.673 149.94C238.673 153.1 237.453 155.56 235.013 157.32C232.613 159.04 229.293 159.9 225.053 159.9ZM252.357 159.9C248.557 159.9 245.077 158.98 241.917 157.14L242.097 149.82H246.897L247.917 155.76C248.637 156.04 249.357 156.26 250.077 156.42C250.797 156.54 251.577 156.6 252.417 156.6C254.137 156.6 255.457 156.32 256.377 155.76C257.297 155.16 257.757 154.26 257.757 153.06C257.757 152.14 257.417 151.34 256.737 150.66C256.057 149.98 254.717 149.36 252.717 148.8L249.477 147.84C247.157 147.16 245.357 146.06 244.077 144.54C242.837 143.02 242.217 141.14 242.217 138.9C242.217 136.14 243.297 133.82 245.457 131.94C247.617 130.02 250.717 129.06 254.757 129.06C256.517 129.06 258.137 129.28 259.617 129.72C261.137 130.12 262.677 130.72 264.237 131.52L263.817 138.06H259.017L257.817 132.9C256.977 132.58 255.877 132.42 254.517 132.42C253.157 132.42 252.057 132.7 251.217 133.26C250.417 133.82 250.017 134.66 250.017 135.78C250.017 136.58 250.337 137.3 250.977 137.94C251.617 138.54 252.977 139.16 255.057 139.8L257.997 140.64C260.837 141.48 262.877 142.68 264.117 144.24C265.357 145.8 265.977 147.7 265.977 149.94C265.977 153.1 264.757 155.56 262.317 157.32C259.917 159.04 256.597 159.9 252.357 159.9Z" fill="#FDF0DD"/>
</g>
<rect style="mix-blend-mode:hard-light" x="134" width="50" height="50" rx="25" fill="#FDF0DD"/>
<rect style="mix-blend-mode:hard-light" x="104" y="50" width="30" height="30" rx="15" fill="#FDF0DD"/>
<path d="M134 60C134 54.4772 138.477 50 144 50C149.523 50 154 54.4772 154 60C154 65.5228 149.523 70 144 70C138.477 70 134 65.5228 134 60Z" fill="#66B8FF"/>
<path d="M124 45C124 42.2386 126.239 40 129 40C131.761 40 134 42.2386 134 45C134 47.7614 131.761 50 129 50C126.239 50 124 47.7614 124 45Z" fill="#66B8FF"/>
<g style="mix-blend-mode:hard-light">
<rect x="84.5" y="0.5" width="99" height="99" rx="9.5" stroke="#FDF0DD" style="mix-blend-mode:hard-light"/>
</g>
</svg>
