<svg width="155" height="33" viewBox="0 0 155 33" fill="none" xmlns="http://www.w3.org/2000/svg">
<path d="M1.21 25C0.666 25 0.394 24.7847 0.394 24.354V24.218C0.394 23.946 0.620667 23.538 1.074 22.994C1.52733 22.4273 1.754 21.8607 1.754 21.294V4.566C1.754 3.99933 1.52733 3.444 1.074 2.9C0.620667 2.33333 0.394 1.914 0.394 1.642V1.506C0.394 1.07533 0.666 0.859999 1.21 0.859999H9.676C12.9627 0.859999 15.592 1.51733 17.564 2.832C19.536 4.14667 20.522 6.17533 20.522 8.918C20.522 11.4793 19.638 13.5307 17.87 15.072C16.102 16.5907 13.7447 17.35 10.798 17.35H7.976V21.294C7.976 21.8607 8.22533 22.4273 8.724 22.994C9.24533 23.538 9.506 23.946 9.506 24.218V24.354C9.506 24.7847 9.234 25 8.69 25H1.21ZM9.54 14.97H10.798C11.8633 14.97 12.6793 14.528 13.246 13.644C13.8353 12.76 14.13 11.6607 14.13 10.346C14.13 8.238 13.6653 6.52667 12.736 5.212C11.8293 3.87467 10.8093 3.206 9.676 3.206H9.2C8.384 3.206 7.976 3.75 7.976 4.838V13.338C7.976 14.426 8.49733 14.97 9.54 14.97ZM30.3156 25.34C27.6863 25.34 25.4536 24.5353 23.6176 22.926C21.8043 21.294 20.8976 19.254 20.8976 16.806C20.8976 14.358 21.8043 12.3407 23.6176 10.754C25.4309 9.14467 27.5843 8.34 30.0776 8.34C32.6616 8.34 34.8603 9.14467 36.6736 10.754C38.4869 12.3633 39.3936 14.4033 39.3936 16.874C39.3936 19.322 38.5096 21.3507 36.7416 22.96C34.9736 24.5467 32.8316 25.34 30.3156 25.34ZM31.0296 23.674C32.4803 23.674 33.2056 22.28 33.2056 19.492C33.2056 18.472 33.0583 17.2593 32.7636 15.854C32.4916 14.4487 32.0156 13.1227 31.3356 11.876C30.6783 10.6293 29.9416 10.006 29.1256 10.006C28.3323 10.006 27.7656 10.3573 27.4256 11.06C27.0856 11.7627 26.9156 12.828 26.9156 14.256C26.9156 15.004 27.0063 15.888 27.1876 16.908C27.3689 17.928 27.6183 18.9593 27.9356 20.002C28.2529 21.022 28.6836 21.8947 29.2276 22.62C29.7943 23.3227 30.3949 23.674 31.0296 23.674ZM48.4007 25.306C46.2247 25.306 44.434 24.9433 43.0287 24.218C41.6233 23.47 40.9207 22.5067 40.9207 21.328C40.9207 20.6027 41.136 20.0587 41.5667 19.696C42.02 19.3333 42.6093 19.152 43.3347 19.152C44.1053 19.152 44.7173 19.4013 45.1707 19.9C45.624 20.376 45.93 20.9087 46.0887 21.498C46.2473 22.0647 46.5193 22.5973 46.9047 23.096C47.29 23.572 47.7887 23.81 48.4007 23.81C49.6247 23.81 50.2367 23.1867 50.2367 21.94C50.2367 21.124 49.9193 20.478 49.2847 20.002C48.6727 19.526 47.9247 19.1633 47.0407 18.914C46.1567 18.6647 45.2727 18.3813 44.3887 18.064C43.5273 17.7467 42.7793 17.214 42.1447 16.466C41.5327 15.718 41.2267 14.732 41.2267 13.508C41.2267 11.9893 41.8953 10.754 43.2327 9.802C44.57 8.82733 46.2927 8.34 48.4007 8.34C50.5087 8.34 52.22 8.73667 53.5347 9.53C54.872 10.3233 55.5407 11.2867 55.5407 12.42C55.5407 13.0093 55.314 13.508 54.8607 13.916C54.43 14.3013 53.8973 14.494 53.2627 14.494C52.5147 14.494 51.9253 14.256 51.4947 13.78C51.064 13.304 50.7693 12.7827 50.6107 12.216C50.4747 11.6267 50.248 11.094 49.9307 10.618C49.636 10.142 49.228 9.904 48.7067 9.904C48.208 9.904 47.8113 10.0967 47.5167 10.482C47.2447 10.8673 47.1087 11.3207 47.1087 11.842C47.1087 12.6807 47.4033 13.3607 47.9927 13.882C48.6047 14.4033 49.33 14.8 50.1687 15.072C51.03 15.344 51.88 15.6387 52.7187 15.956C53.58 16.2733 54.3053 16.7947 54.8947 17.52C55.5067 18.2227 55.8127 19.152 55.8127 20.308C55.8127 21.7587 55.144 22.96 53.8067 23.912C52.492 24.8413 50.69 25.306 48.4007 25.306ZM64.4962 25.34C62.7736 25.34 61.4136 24.796 60.4162 23.708C59.4416 22.62 58.9542 21.0673 58.9542 19.05V10.992H57.6622C57.4356 10.992 57.2429 10.924 57.0842 10.788C56.9482 10.6293 56.8802 10.4367 56.8802 10.21V9.462C56.8802 8.94067 57.1409 8.68 57.6622 8.68H58.3082C59.3509 8.68 60.2462 8.374 60.9942 7.762C61.7422 7.12733 62.2296 6.28867 62.4562 5.246C62.5696 4.65667 62.8756 4.362 63.3742 4.362H64.1562C64.7682 4.362 65.0742 4.65667 65.0742 5.246V8.68H68.5762C68.8029 8.68 68.9842 8.75933 69.1202 8.918C69.2789 9.054 69.3582 9.23533 69.3582 9.462V10.21C69.3582 10.4367 69.2789 10.6293 69.1202 10.788C68.9842 10.924 68.8029 10.992 68.5762 10.992H65.0742V19.152C65.0742 19.7187 65.2216 20.172 65.5162 20.512C65.8109 20.8293 66.1736 20.988 66.6042 20.988C67.5789 20.988 68.3269 20.5687 68.8482 19.73C69.0069 19.526 69.1882 19.4127 69.3922 19.39C69.5962 19.3447 69.7662 19.3787 69.9022 19.492C70.0609 19.6053 70.1402 19.764 70.1402 19.968C70.1402 21.396 69.6302 22.654 68.6102 23.742C67.6129 24.8073 66.2416 25.34 64.4962 25.34ZM81.7111 8.34C83.8191 8.34 85.6778 9.06533 87.2871 10.516C88.9191 11.944 89.7351 13.9613 89.7351 16.568C89.7351 19.1747 88.9418 21.294 87.3551 22.926C85.7911 24.5353 83.9098 25.34 81.7111 25.34C80.3284 25.34 79.1724 25.0113 78.2431 24.354V28.468C78.2431 29.0347 78.4924 29.59 78.9911 30.134C79.5124 30.7007 79.7731 31.12 79.7731 31.392V31.528C79.7731 31.9587 79.5011 32.174 78.9571 32.174H71.7491C71.2051 32.174 70.9331 31.9587 70.9331 31.528V31.392C70.9331 31.12 71.1598 30.7007 71.6131 30.134C72.0664 29.59 72.2931 29.0347 72.2931 28.468V14.528C72.2931 14.0067 72.0211 13.5193 71.4771 13.066C70.9331 12.59 70.6611 12.2047 70.6611 11.91V11.74C70.6611 11.3773 70.9218 11.0487 71.4431 10.754L75.9311 8.544C76.4298 8.34 76.7924 8.306 77.0191 8.442C77.2458 8.578 77.3591 8.83867 77.3591 9.224V10.21C78.2431 8.96333 79.6938 8.34 81.7111 8.34ZM81.1671 23.674C82.8898 23.674 83.7511 22.246 83.7511 19.39C83.7511 18.03 83.6378 16.67 83.4111 15.31C83.2071 13.95 82.8218 12.726 82.2551 11.638C81.7111 10.55 81.0538 10.006 80.2831 10.006C79.6711 10.006 79.1724 10.2553 78.7871 10.754C78.4244 11.2527 78.2431 11.8987 78.2431 12.692V18.846C78.2431 20.2513 78.5378 21.4073 79.1271 22.314C79.7164 23.2207 80.3964 23.674 81.1671 23.674ZM102.748 8.34C103.722 8.34 104.493 8.65733 105.06 9.292C105.649 9.92667 105.944 10.7313 105.944 11.706C105.944 13.8367 105.071 14.902 103.326 14.902C102.623 14.902 102.09 14.7433 101.728 14.426C101.365 14.086 101.15 13.712 101.082 13.304C101.036 12.896 100.923 12.5333 100.742 12.216C100.56 11.876 100.288 11.706 99.9258 11.706C99.0871 11.706 98.6678 12.794 98.6678 14.97V21.294C98.6678 21.8607 98.9625 22.4273 99.5518 22.994C100.164 23.538 100.47 23.946 100.47 24.218V24.354C100.47 24.7847 100.198 25 99.6538 25H92.3438C91.7998 25 91.5278 24.7847 91.5278 24.354V24.218C91.5278 23.946 91.7545 23.538 92.2078 22.994C92.6611 22.4273 92.8878 21.8607 92.8878 21.294V14.528C92.8878 14.0747 92.7518 13.6893 92.4798 13.372C92.2078 13.0547 91.9358 12.7827 91.6638 12.556C91.3918 12.3293 91.2558 12.08 91.2558 11.808V11.706C91.2558 11.3207 91.5165 10.992 92.0378 10.72L96.8318 8.476C97.2851 8.31733 97.6025 8.306 97.7838 8.442C97.9651 8.578 98.0558 8.83867 98.0558 9.224V11.706C98.8265 9.462 100.39 8.34 102.748 8.34ZM120.538 19.628C120.787 19.3787 121.059 19.3107 121.354 19.424C121.671 19.5147 121.819 19.7413 121.796 20.104C121.751 21.2373 121.093 22.3933 119.824 23.572C118.555 24.7507 116.911 25.34 114.894 25.34C112.423 25.34 110.406 24.5467 108.842 22.96C107.278 21.3733 106.496 19.2993 106.496 16.738C106.496 14.29 107.312 12.284 108.944 10.72C110.599 9.13333 112.571 8.34 114.86 8.34C116.923 8.34 118.521 8.816 119.654 9.768C120.787 10.72 121.354 11.7967 121.354 12.998C121.354 13.95 120.912 14.6527 120.028 15.106L113.262 18.914C114.191 20.3873 115.483 21.124 117.138 21.124C117.841 21.124 118.498 20.988 119.11 20.716C119.745 20.4213 120.221 20.0587 120.538 19.628ZM114.248 10.006C113.568 10.006 113.013 10.346 112.582 11.026C112.174 11.706 111.97 12.556 111.97 13.576C111.97 14.936 112.14 16.126 112.48 17.146L115.642 15.242C116.231 14.834 116.526 14.256 116.526 13.508C116.526 12.76 116.333 11.9893 115.948 11.196C115.585 10.4027 115.019 10.006 114.248 10.006ZM130.645 25.306C128.469 25.306 126.678 24.9433 125.273 24.218C123.867 23.47 123.165 22.5067 123.165 21.328C123.165 20.6027 123.38 20.0587 123.811 19.696C124.264 19.3333 124.853 19.152 125.579 19.152C126.349 19.152 126.961 19.4013 127.415 19.9C127.868 20.376 128.174 20.9087 128.333 21.498C128.491 22.0647 128.763 22.5973 129.149 23.096C129.534 23.572 130.033 23.81 130.645 23.81C131.869 23.81 132.481 23.1867 132.481 21.94C132.481 21.124 132.163 20.478 131.529 20.002C130.917 19.526 130.169 19.1633 129.285 18.914C128.401 18.6647 127.517 18.3813 126.633 18.064C125.771 17.7467 125.023 17.214 124.389 16.466C123.777 15.718 123.471 14.732 123.471 13.508C123.471 11.9893 124.139 10.754 125.477 9.802C126.814 8.82733 128.537 8.34 130.645 8.34C132.753 8.34 134.464 8.73667 135.779 9.53C137.116 10.3233 137.785 11.2867 137.785 12.42C137.785 13.0093 137.558 13.508 137.105 13.916C136.674 14.3013 136.141 14.494 135.507 14.494C134.759 14.494 134.169 14.256 133.739 13.78C133.308 13.304 133.013 12.7827 132.855 12.216C132.719 11.6267 132.492 11.094 132.175 10.618C131.88 10.142 131.472 9.904 130.951 9.904C130.452 9.904 130.055 10.0967 129.761 10.482C129.489 10.8673 129.353 11.3207 129.353 11.842C129.353 12.6807 129.647 13.3607 130.237 13.882C130.849 14.4033 131.574 14.8 132.413 15.072C133.274 15.344 134.124 15.6387 134.963 15.956C135.824 16.2733 136.549 16.7947 137.139 17.52C137.751 18.2227 138.057 19.152 138.057 20.308C138.057 21.7587 137.388 22.96 136.051 23.912C134.736 24.8413 132.934 25.306 130.645 25.306ZM147.114 25.306C144.938 25.306 143.147 24.9433 141.742 24.218C140.336 23.47 139.634 22.5067 139.634 21.328C139.634 20.6027 139.849 20.0587 140.28 19.696C140.733 19.3333 141.322 19.152 142.048 19.152C142.818 19.152 143.43 19.4013 143.884 19.9C144.337 20.376 144.643 20.9087 144.802 21.498C144.96 22.0647 145.232 22.5973 145.618 23.096C146.003 23.572 146.502 23.81 147.114 23.81C148.338 23.81 148.95 23.1867 148.95 21.94C148.95 21.124 148.632 20.478 147.998 20.002C147.386 19.526 146.638 19.1633 145.754 18.914C144.87 18.6647 143.986 18.3813 143.102 18.064C142.24 17.7467 141.492 17.214 140.858 16.466C140.246 15.718 139.94 14.732 139.94 13.508C139.94 11.9893 140.608 10.754 141.946 9.802C143.283 8.82733 145.006 8.34 147.114 8.34C149.222 8.34 150.933 8.73667 152.248 9.53C153.585 10.3233 154.254 11.2867 154.254 12.42C154.254 13.0093 154.027 13.508 153.574 13.916C153.143 14.3013 152.61 14.494 151.976 14.494C151.228 14.494 150.638 14.256 150.208 13.78C149.777 13.304 149.482 12.7827 149.324 12.216C149.188 11.6267 148.961 11.094 148.644 10.618C148.349 10.142 147.941 9.904 147.42 9.904C146.921 9.904 146.524 10.0967 146.23 10.482C145.958 10.8673 145.822 11.3207 145.822 11.842C145.822 12.6807 146.116 13.3607 146.706 13.882C147.318 14.4033 148.043 14.8 148.882 15.072C149.743 15.344 150.593 15.6387 151.432 15.956C152.293 16.2733 153.018 16.7947 153.608 17.52C154.22 18.2227 154.526 19.152 154.526 20.308C154.526 21.7587 153.857 22.96 152.52 23.912C151.205 24.8413 149.403 25.306 147.114 25.306Z" fill="#66B8FF"/>
</svg>
