<svg width="900" height="2267" viewBox="0 0 900 2267" fill="none" xmlns="http://www.w3.org/2000/svg">
<circle cx="329" cy="2207" r="60" fill="url(#paint0_linear)"/>
<circle cx="580" cy="1937" r="90" fill="url(#paint1_linear)"/>
<path fill-rule="evenodd" clip-rule="evenodd" d="M900 1128.7C876.935 1123.01 852.819 1120 828 1120C662.315 1120 528 1254.31 528 1420C528 1585.69 662.315 1720 828 1720C852.819 1720 876.935 1716.99 900 1711.3V1128.7Z" fill="#FDF0DD"/>
<circle cx="221" cy="1554" r="130" fill="url(#paint2_linear)"/>
<path fill-rule="evenodd" clip-rule="evenodd" d="M0 1138.96C39.582 1158.21 84.0305 1169 131 1169C296.685 1169 431 1034.69 431 869C431 703.315 296.685 569 131 569C84.0305 569 39.582 579.794 0 599.037V1138.96Z" fill="#66B8FF"/>
<circle cx="204" cy="376" r="12" fill="#FDF0DD"/>
<path fill-rule="evenodd" clip-rule="evenodd" d="M900 131.326C883.481 124.043 865.213 120 846 120C771.994 120 712 179.994 712 254C712 328.006 771.994 388 846 388C865.213 388 883.481 383.957 900 376.674V131.326Z" fill="#66B8FF"/>
<path fill-rule="evenodd" clip-rule="evenodd" d="M0 0V234.876C15.5226 239.511 31.9706 242 49 242C143.441 242 220 165.441 220 71C220 45.6696 214.492 21.6255 204.609 0H0Z" fill="#FDF0DD"/>
<circle cx="400" cy="1192" r="63" fill="url(#paint3_linear)" style="mix-blend-mode:hard-light"/>
<circle cx="531" cy="1045" r="32" fill="url(#paint4_linear)" style="mix-blend-mode:hard-light"/>
<defs>
<linearGradient id="paint0_linear" x1="329" y1="2147" x2="329" y2="2267" gradientUnits="userSpaceOnUse">
<stop offset="0.266776" stop-color="#FDF0DD"/>
<stop offset="1" stop-color="#66B8FF"/>
</linearGradient>
<linearGradient id="paint1_linear" x1="670" y1="1847" x2="490" y2="2027" gradientUnits="userSpaceOnUse">
<stop offset="0.359817" stop-color="#FDF0DD"/>
<stop offset="0.82127" stop-color="#66B8FF"/>
</linearGradient>
<linearGradient id="paint2_linear" x1="351" y1="1424" x2="91" y2="1554" gradientUnits="userSpaceOnUse">
<stop offset="0.370915" stop-color="#FDF0DD"/>
<stop offset="0.921557" stop-color="#66B8FF"/>
</linearGradient>
<linearGradient id="paint3_linear" x1="463" y1="1255" x2="337" y2="1129" gradientUnits="userSpaceOnUse">
<stop stop-color="#66B8FF"/>
<stop offset="0.59595" stop-color="#FDF0DD"/>
</linearGradient>
<linearGradient id="paint4_linear" x1="499" y1="1077" x2="563" y2="1013" gradientUnits="userSpaceOnUse">
<stop stop-color="#66B8FF"/>
<stop offset="0.811669" stop-color="#FDF0DD"/>
</linearGradient>
</defs>
</svg>
