<svg width="64" height="64" viewBox="0 0 64 64" fill="none" xmlns="http://www.w3.org/2000/svg">
<path fill-rule="evenodd" clip-rule="evenodd" d="M32 64C49.6731 64 64 49.6731 64 32C64 14.3269 49.6731 0 32 0C14.3269 0 0 14.3269 0 32C0 49.6731 14.3269 64 32 64ZM46.0607 30.9393L36.5147 21.3934C35.9289 20.8076 34.9792 20.8076 34.3934 21.3934C33.8076 21.9792 33.8076 22.9289 34.3934 23.5147L41.3787 30.5H19V33.5H41.3787L34.3934 40.4853C33.8076 41.0711 33.8076 42.0208 34.3934 42.6066C34.9792 43.1924 35.9289 43.1924 36.5147 42.6066L46.0607 33.0607C46.6464 32.4749 46.6464 31.5251 46.0607 30.9393Z" fill="#040605"/>
</svg>
