<svg width="68" height="68" viewBox="0 0 68 68" fill="none" xmlns="http://www.w3.org/2000/svg">
<g filter="url(#filter0_d)">
<path fill-rule="evenodd" clip-rule="evenodd" d="M66 34C66 16.3269 51.6731 2 34 2C16.3269 2 2 16.3269 2 34C2 51.6731 16.3269 66 34 66C51.6731 66 66 51.6731 66 34ZM32.9393 19.9393L23.3934 29.4853C22.8076 30.0711 22.8076 31.0208 23.3934 31.6066C23.9792 32.1924 24.9289 32.1924 25.5147 31.6066L32.5 24.6213L32.5 47H35.5L35.5 24.6213L42.4853 31.6066C43.0711 32.1924 44.0208 32.1924 44.6066 31.6066C45.1924 31.0208 45.1924 30.0711 44.6066 29.4853L35.0607 19.9393C34.4749 19.3536 33.5251 19.3536 32.9393 19.9393Z" fill="#CC2A28"/>
</g>
<defs>
<filter id="filter0_d" x="0" y="0" width="68" height="68" filterUnits="userSpaceOnUse" color-interpolation-filters="sRGB">
<feFlood flood-opacity="0" result="BackgroundImageFix"/>
<feColorMatrix in="SourceAlpha" type="matrix" values="0 0 0 0 0 0 0 0 0 0 0 0 0 0 0 0 0 0 127 0"/>
<feOffset/>
<feGaussianBlur stdDeviation="1"/>
<feColorMatrix type="matrix" values="0 0 0 0 0 0 0 0 0 0 0 0 0 0 0 0 0 0 0.25 0"/>
<feBlend mode="normal" in2="BackgroundImageFix" result="effect1_dropShadow"/>
<feBlend mode="normal" in="SourceGraphic" in2="effect1_dropShadow" result="shape"/>
</filter>
</defs>
</svg>
