<svg width="64" height="64" viewBox="0 0 64 64" fill="none" xmlns="http://www.w3.org/2000/svg">
<path fill-rule="evenodd" clip-rule="evenodd" d="M64 32C64 14.3269 49.6731 0 32 0C14.3269 0 0 14.3269 0 32C0 49.6731 14.3269 64 32 64C49.6731 64 64 49.6731 64 32ZM30.9393 17.9393L21.3934 27.4853C20.8076 28.0711 20.8076 29.0208 21.3934 29.6066C21.9792 30.1924 22.9289 30.1924 23.5147 29.6066L30.5 22.6213L30.5 45H33.5L33.5 22.6213L40.4853 29.6066C41.0711 30.1924 42.0208 30.1924 42.6066 29.6066C43.1924 29.0208 43.1924 28.0711 42.6066 27.4853L33.0607 17.9393C32.4749 17.3536 31.5251 17.3536 30.9393 17.9393Z" fill="#CC2A28"/>
</svg>
