<svg width="48" height="16" viewBox="0 0 48 16" fill="none" xmlns="http://www.w3.org/2000/svg">
<path d="M47.6327 9.21148C47.6535 9.18054 47.6715 9.1482 47.6904 9.11632C47.7079 9.08707 47.7263 9.05876 47.7424 9.02857C47.76 8.99567 47.7748 8.9621 47.7906 8.92863C47.8053 8.89751 47.8208 8.86695 47.8339 8.83507C47.8476 8.80235 47.8584 8.76889 47.8703 8.7357C47.8824 8.70176 47.8956 8.66839 47.9061 8.6336C47.9163 8.60004 47.9237 8.56601 47.9322 8.53189C47.9411 8.49682 47.9509 8.46223 47.958 8.42642C47.9659 8.38686 47.9707 8.34683 47.9764 8.30689C47.9806 8.27633 47.9864 8.24623 47.9895 8.21539C48.0038 8.07195 48.0038 7.92758 47.9895 7.78414C47.9864 7.7533 47.9806 7.7232 47.9764 7.69264C47.9707 7.65261 47.9659 7.61276 47.958 7.57311C47.9509 7.5373 47.9411 7.50289 47.9322 7.46764C47.9236 7.4338 47.9164 7.39958 47.9061 7.36592C47.8956 7.33133 47.8825 7.29786 47.8703 7.26383C47.8584 7.23064 47.8476 7.19717 47.8339 7.16445C47.8208 7.13258 47.8052 7.10202 47.7906 7.07089C47.7748 7.03761 47.76 7.00386 47.7424 6.97114C47.7263 6.94105 47.7081 6.91264 47.6904 6.88339C47.6714 6.85152 47.6533 6.81927 47.6327 6.78824C47.6108 6.75533 47.5865 6.72449 47.5628 6.69308C47.5438 6.66758 47.5262 6.64161 47.5057 6.61668C47.46 6.56099 47.4117 6.50727 47.3608 6.45636L41.9066 1.0021C41.0545 0.150015 39.6731 0.150015 38.821 1.0021C37.9689 1.85419 37.9689 3.2356 38.821 4.08759L40.551 5.81765H2.18184C0.976871 5.81802 0 6.79489 0 7.99986C0 9.20482 0.976871 10.1817 2.18184 10.1817H40.5509L38.8209 11.9116C37.9688 12.7636 37.9688 14.1451 38.8209 14.997C39.2469 15.423 39.8053 15.6361 40.3635 15.6361C40.9219 15.6361 41.4804 15.4232 41.9064 14.997L47.3606 9.54298C47.4115 9.49207 47.4598 9.43835 47.5055 9.38257C47.526 9.35782 47.5435 9.33166 47.5627 9.30635C47.5863 9.27513 47.6108 9.24429 47.6327 9.21148Z" fill="url(#paint0_linear_118_190)"/>
<defs>
<linearGradient id="paint0_linear_118_190" x1="20" y1="8" x2="38" y2="8" gradientUnits="userSpaceOnUse">
<stop stop-color="#66B8FF"/>
<stop offset="1" stop-color="#66B8FF" stop-opacity="0.85"/>
</linearGradient>
</defs>
</svg>
