<svg width="24" height="24" viewBox="0 0 24 24" fill="none" xmlns="http://www.w3.org/2000/svg">
<path d="M12 2.16322C15.204 2.16322 15.584 2.17522 16.85 2.23322C20.102 2.38122 21.621 3.9242 21.769 7.15217C21.827 8.41716 21.838 8.79715 21.838 12.0011C21.838 15.2061 21.826 15.5851 21.769 16.8501C21.62 20.075 20.105 21.621 16.85 21.769C15.584 21.827 15.206 21.839 12 21.839C8.796 21.839 8.416 21.827 7.151 21.769C3.891 21.62 2.38 20.07 2.232 16.8491C2.174 15.5841 2.162 15.2051 2.162 12.0001C2.162 8.79615 2.175 8.41716 2.232 7.15117C2.381 3.9242 3.896 2.38022 7.151 2.23222C8.417 2.17522 8.796 2.16322 12 2.16322ZM12 0.000244141C8.741 0.000244141 8.333 0.014244 7.053 0.0722434C2.695 0.272241 0.273 2.69022 0.073 7.05217C0.014 8.33316 0 8.74115 0 12.0001C0 15.2591 0.014 15.6681 0.072 16.9481C0.272 21.306 2.69 23.728 7.052 23.928C8.333 23.986 8.741 24 12 24C15.259 24 15.668 23.986 16.948 23.928C21.302 23.728 23.73 21.31 23.927 16.9481C23.986 15.6681 24 15.2591 24 12.0001C24 8.74115 23.986 8.33316 23.928 7.05317C23.732 2.69922 21.311 0.273241 16.949 0.0732434C15.668 0.014244 15.259 0.000244141 12 0.000244141V0.000244141ZM12 5.83818C8.597 5.83818 5.838 8.59716 5.838 12.0001C5.838 15.4031 8.597 18.1631 12 18.1631C15.403 18.1631 18.162 15.4041 18.162 12.0001C18.162 8.59716 15.403 5.83818 12 5.83818ZM12 16.0001C9.791 16.0001 8 14.2101 8 12.0001C8 9.79114 9.791 8.00016 12 8.00016C14.209 8.00016 16 9.79114 16 12.0001C16 14.2101 14.209 16.0001 12 16.0001ZM18.406 4.1552C17.61 4.1552 16.965 4.8002 16.965 5.59519C16.965 6.39018 17.61 7.03517 18.406 7.03517C19.201 7.03517 19.845 6.39018 19.845 5.59519C19.845 4.8002 19.201 4.1552 18.406 4.1552Z" fill="#FDF0DD"/>
</svg>
