<?xml version="1.0" standalone="no"?>
<!DOCTYPE svg PUBLIC "-//W3C//DTD SVG 20010904//EN"
 "http://www.w3.org/TR/2001/REC-SVG-20010904/DTD/svg10.dtd">
<svg version="1.0" xmlns="http://www.w3.org/2000/svg"
 width="224.000000pt" height="224.000000pt" viewBox="0 0 224.000000 224.000000"
 preserveAspectRatio="xMidYMid meet">
<metadata>
Created by potrace 1.14, written by Peter Selinger 2001-2017
</metadata>
<g transform="translate(0.000000,224.000000) scale(0.100000,-0.100000)"
fill="#000000" stroke="none">
<path d="M915 2229 c-27 -6 -79 -19 -115 -31 -36 -12 -67 -23 -70 -23 -16 -3
-95 -45 -153 -83 -172 -112 -297 -284 -363 -497 -46 -152 -42 -364 11 -522 56
-166 190 -347 330 -443 119 -82 327 -159 423 -156 l37 1 -3 60 c-1 32 -4 61
-6 63 -2 2 -19 6 -38 8 -325 45 -593 299 -645 614 -10 57 -10 222 0 275 62
335 352 589 699 611 217 14 412 -61 573 -221 94 -94 145 -175 188 -300 26 -79
30 -104 31 -205 1 -137 -6 -189 -40 -278 -41 -107 -41 -103 17 -135 60 -33 56
-35 95 60 74 176 83 410 23 596 -94 288 -331 512 -624 589 -90 24 -285 32
-370 17z"/>
<path d="M1440 974 c-91 -24 -162 -64 -226 -129 -99 -98 -147 -213 -147 -350
1 -139 48 -252 147 -351 103 -103 246 -154 396 -140 246 21 440 234 442 486 2
137 -47 254 -145 354 -122 124 -302 174 -467 130z m294 -103 c209 -102 298
-345 203 -550 -11 -25 -23 -48 -26 -51 -4 -3 -19 -22 -35 -44 -37 -49 -132
-110 -204 -132 -41 -12 -80 -15 -139 -11 -355 21 -518 450 -267 703 88 89 174
123 310 120 81 -2 99 -6 158 -35z"/>
<path d="M1590 814 c-81 -83 -230 -166 -346 -193 l-50 -12 1 -62 c1 -73 2 -73
107 -45 85 23 165 59 248 113 68 44 190 153 190 170 0 9 -97 66 -110 65 -3 0
-21 -17 -40 -36z"/>
</g>
</svg>
