<svg width="380" height="380" viewBox="0 0 380 380" fill="none" xmlns="http://www.w3.org/2000/svg">
<rect width="380" height="380" fill="#040605"/>
<g filter="url(#filter0_d_501_1374)">
<path d="M138.583 203C137.983 203 137.683 202.748 137.683 202.244V202.1C137.683 201.788 137.923 201.308 138.403 200.66C138.907 199.988 139.159 199.328 139.159 198.68V181.76C139.159 181.112 138.907 180.464 138.403 179.816C137.923 179.144 137.683 178.652 137.683 178.34V178.196C137.683 177.692 137.983 177.44 138.583 177.44H148.159C151.687 177.44 154.483 178.148 156.547 179.564C158.635 180.98 159.679 183.14 159.679 186.044C159.679 188.732 158.731 190.904 156.835 192.56C154.963 194.216 152.491 195.044 149.419 195.044H146.647V198.68C146.647 199.328 146.923 199.988 147.475 200.66C148.027 201.308 148.303 201.788 148.303 202.1V202.244C148.303 202.748 148.003 203 147.403 203H138.583ZM148.411 192.272H149.419C150.283 192.272 150.919 191.84 151.327 190.976C151.759 190.088 151.975 189.02 151.975 187.772C151.975 185.612 151.567 183.812 150.751 182.372C149.959 180.932 149.095 180.212 148.159 180.212H148.051C147.115 180.212 146.647 180.836 146.647 182.084V190.4C146.647 191.648 147.235 192.272 148.411 192.272ZM170.365 203.36C167.653 203.36 165.301 202.52 163.309 200.84C161.317 199.136 160.321 196.976 160.321 194.36C160.321 191.744 161.317 189.596 163.309 187.916C165.301 186.212 167.653 185.36 170.365 185.36C173.101 185.36 175.453 186.212 177.421 187.916C179.389 189.596 180.373 191.744 180.373 194.36C180.373 196.976 179.389 199.136 177.421 200.84C175.453 202.52 173.101 203.36 170.365 203.36ZM171.229 201.416C171.901 201.416 172.345 201.116 172.561 200.516C172.777 199.892 172.885 198.932 172.885 197.636C172.885 196.772 172.765 195.596 172.525 194.108C172.309 192.596 171.889 191.084 171.265 189.572C170.665 188.06 169.957 187.304 169.141 187.304C168.493 187.304 168.061 187.604 167.845 188.204C167.629 188.804 167.521 189.788 167.521 191.156C167.521 192.116 167.629 193.352 167.845 194.864C168.085 196.352 168.505 197.816 169.105 199.256C169.729 200.696 170.437 201.416 171.229 201.416ZM190.373 203.324C188.045 203.324 186.113 202.952 184.577 202.208C183.065 201.44 182.309 200.396 182.309 199.076C182.309 198.212 182.573 197.576 183.101 197.168C183.629 196.736 184.313 196.52 185.153 196.52C186.041 196.52 186.749 196.784 187.277 197.312C187.829 197.84 188.177 198.428 188.321 199.076C188.489 199.7 188.729 200.276 189.041 200.804C189.377 201.332 189.821 201.596 190.373 201.596C191.309 201.596 191.777 201.044 191.777 199.94C191.777 199.1 191.453 198.428 190.805 197.924C190.181 197.396 189.425 197 188.537 196.736C187.649 196.448 186.749 196.136 185.837 195.8C184.949 195.44 184.181 194.864 183.533 194.072C182.909 193.28 182.597 192.248 182.597 190.976C182.597 189.32 183.317 187.976 184.757 186.944C186.197 185.888 188.081 185.36 190.409 185.36C192.689 185.36 194.549 185.78 195.989 186.62C197.429 187.436 198.149 188.468 198.149 189.716C198.149 190.388 197.885 190.964 197.357 191.444C196.829 191.924 196.181 192.164 195.413 192.164C194.693 192.164 194.105 191.996 193.649 191.66C193.193 191.3 192.869 190.88 192.677 190.4C192.485 189.92 192.317 189.44 192.173 188.96C192.029 188.456 191.849 188.036 191.633 187.7C191.441 187.34 191.165 187.16 190.805 187.16C190.037 187.16 189.653 187.748 189.653 188.924C189.653 189.836 189.953 190.58 190.553 191.156C191.153 191.708 191.873 192.14 192.713 192.452C193.577 192.74 194.429 193.052 195.269 193.388C196.133 193.724 196.865 194.276 197.465 195.044C198.065 195.788 198.365 196.748 198.365 197.924C198.365 199.508 197.657 200.804 196.241 201.812C194.825 202.82 192.869 203.324 190.373 203.324ZM208.238 203.36C206.342 203.36 204.83 202.76 203.702 201.56C202.598 200.336 202.046 198.608 202.046 196.376V188.42H200.966C200.702 188.42 200.486 188.336 200.318 188.168C200.15 187.976 200.066 187.76 200.066 187.52V186.62C200.066 186.02 200.366 185.72 200.966 185.72H201.47C202.646 185.72 203.678 185.384 204.566 184.712C205.454 184.04 206.03 183.152 206.294 182.048C206.462 181.376 206.822 181.04 207.374 181.04H208.346C208.658 181.04 208.91 181.136 209.102 181.328C209.294 181.496 209.39 181.736 209.39 182.048V185.72H212.774C213.038 185.72 213.254 185.804 213.422 185.972C213.59 186.14 213.674 186.356 213.674 186.62V187.52C213.674 187.76 213.59 187.976 213.422 188.168C213.254 188.336 213.038 188.42 212.774 188.42H209.39V196.52C209.39 197.024 209.522 197.432 209.786 197.744C210.074 198.032 210.434 198.176 210.866 198.176C211.73 198.176 212.486 197.792 213.134 197.024C213.422 196.712 213.734 196.604 214.07 196.7C214.406 196.772 214.574 196.988 214.574 197.348C214.574 198.932 214.01 200.336 212.882 201.56C211.754 202.76 210.206 203.36 208.238 203.36ZM227.607 185.36C228.999 185.36 230.319 185.66 231.567 186.26C232.839 186.836 233.919 187.808 234.807 189.176C235.695 190.544 236.139 192.176 236.139 194.072C236.139 196.856 235.299 199.1 233.619 200.804C231.939 202.508 229.935 203.36 227.607 203.36C226.311 203.36 225.231 203.108 224.367 202.604V206.132C224.367 206.78 224.643 207.428 225.195 208.076C225.747 208.748 226.023 209.24 226.023 209.552V209.696C226.023 210.2 225.723 210.452 225.123 210.452H216.663C216.063 210.452 215.763 210.2 215.763 209.696V209.552C215.763 209.24 216.003 208.748 216.483 208.076C216.987 207.428 217.239 206.78 217.239 206.132V192.56C217.239 191.96 216.927 191.396 216.303 190.868C215.703 190.34 215.403 189.908 215.403 189.572V189.356C215.403 188.924 215.703 188.552 216.303 188.24L221.631 185.612C222.231 185.372 222.651 185.336 222.891 185.504C223.155 185.648 223.287 185.936 223.287 186.368V187.088C224.175 185.936 225.615 185.36 227.607 185.36ZM226.995 201.452C228.339 201.452 229.011 200.204 229.011 197.708C229.011 196.34 228.927 194.924 228.759 193.46C228.615 191.996 228.291 190.604 227.787 189.284C227.283 187.94 226.659 187.268 225.915 187.268C224.883 187.268 224.367 188.06 224.367 189.644V196.34C224.367 197.876 224.631 199.112 225.159 200.048C225.687 200.984 226.299 201.452 226.995 201.452ZM251.064 185.36C252.096 185.36 252.912 185.72 253.512 186.44C254.136 187.136 254.448 188.036 254.448 189.14C254.448 191.684 253.416 192.956 251.352 192.956C250.512 192.956 249.876 192.776 249.444 192.416C249.036 192.032 248.796 191.612 248.724 191.156C248.676 190.7 248.568 190.292 248.4 189.932C248.232 189.548 247.968 189.356 247.608 189.356C247.032 189.356 246.744 190.1 246.744 191.588V198.68C246.744 199.184 246.912 199.64 247.248 200.048C247.584 200.456 247.92 200.828 248.256 201.164C248.592 201.5 248.76 201.812 248.76 202.1V202.244C248.76 202.748 248.46 203 247.86 203H239.256C238.656 203 238.356 202.748 238.356 202.244V202.1C238.356 201.788 238.596 201.308 239.076 200.66C239.58 199.988 239.832 199.328 239.832 198.68V192.524C239.832 192.02 239.676 191.6 239.364 191.264C239.076 190.904 238.776 190.592 238.464 190.328C238.152 190.04 237.996 189.752 237.996 189.464V189.32C237.996 188.888 238.296 188.516 238.896 188.204L244.62 185.504C245.124 185.312 245.472 185.3 245.664 185.468C245.88 185.636 245.988 185.936 245.988 186.368V188.996C246.78 186.572 248.472 185.36 251.064 185.36ZM270.388 197.168C270.652 196.88 270.952 196.796 271.288 196.916C271.624 197.036 271.792 197.3 271.792 197.708C271.792 198.908 271.108 200.156 269.74 201.452C268.396 202.724 266.644 203.36 264.484 203.36C261.796 203.36 259.612 202.52 257.932 200.84C256.276 199.16 255.448 196.964 255.448 194.252C255.448 191.636 256.324 189.5 258.076 187.844C259.852 186.188 261.952 185.36 264.376 185.36C266.584 185.36 268.288 185.852 269.488 186.836C270.712 187.82 271.324 188.924 271.324 190.148C271.324 191.036 270.916 191.744 270.1 192.272L263.584 196.52C264.52 197.72 265.72 198.32 267.184 198.32C268.552 198.32 269.62 197.936 270.388 197.168ZM263.8 187.304C263.224 187.304 262.756 187.592 262.396 188.168C262.06 188.744 261.892 189.428 261.892 190.22C261.892 191.852 262.108 193.28 262.54 194.504L264.844 192.812C265.468 192.356 265.78 191.696 265.78 190.832C265.78 190.52 265.756 190.196 265.708 189.86C265.66 189.5 265.564 189.116 265.42 188.708C265.3 188.3 265.096 187.964 264.808 187.7C264.52 187.436 264.184 187.304 263.8 187.304ZM281.667 203.324C279.339 203.324 277.407 202.952 275.871 202.208C274.359 201.44 273.603 200.396 273.603 199.076C273.603 198.212 273.867 197.576 274.395 197.168C274.923 196.736 275.607 196.52 276.447 196.52C277.335 196.52 278.043 196.784 278.571 197.312C279.123 197.84 279.471 198.428 279.615 199.076C279.783 199.7 280.023 200.276 280.335 200.804C280.671 201.332 281.115 201.596 281.667 201.596C282.603 201.596 283.071 201.044 283.071 199.94C283.071 199.1 282.747 198.428 282.099 197.924C281.475 197.396 280.719 197 279.831 196.736C278.943 196.448 278.043 196.136 277.131 195.8C276.243 195.44 275.475 194.864 274.827 194.072C274.203 193.28 273.891 192.248 273.891 190.976C273.891 189.32 274.611 187.976 276.051 186.944C277.491 185.888 279.375 185.36 281.703 185.36C283.983 185.36 285.843 185.78 287.283 186.62C288.723 187.436 289.443 188.468 289.443 189.716C289.443 190.388 289.179 190.964 288.651 191.444C288.123 191.924 287.475 192.164 286.707 192.164C285.987 192.164 285.399 191.996 284.943 191.66C284.487 191.3 284.163 190.88 283.971 190.4C283.779 189.92 283.611 189.44 283.467 188.96C283.323 188.456 283.143 188.036 282.927 187.7C282.735 187.34 282.459 187.16 282.099 187.16C281.331 187.16 280.947 187.748 280.947 188.924C280.947 189.836 281.247 190.58 281.847 191.156C282.447 191.708 283.167 192.14 284.007 192.452C284.871 192.74 285.723 193.052 286.563 193.388C287.427 193.724 288.159 194.276 288.759 195.044C289.359 195.788 289.659 196.748 289.659 197.924C289.659 199.508 288.951 200.804 287.535 201.812C286.119 202.82 284.163 203.324 281.667 203.324ZM299.82 203.324C297.492 203.324 295.56 202.952 294.024 202.208C292.512 201.44 291.756 200.396 291.756 199.076C291.756 198.212 292.02 197.576 292.548 197.168C293.076 196.736 293.76 196.52 294.6 196.52C295.488 196.52 296.196 196.784 296.724 197.312C297.276 197.84 297.624 198.428 297.768 199.076C297.936 199.7 298.176 200.276 298.488 200.804C298.824 201.332 299.268 201.596 299.82 201.596C300.756 201.596 301.224 201.044 301.224 199.94C301.224 199.1 300.9 198.428 300.252 197.924C299.628 197.396 298.872 197 297.984 196.736C297.096 196.448 296.196 196.136 295.284 195.8C294.396 195.44 293.628 194.864 292.98 194.072C292.356 193.28 292.044 192.248 292.044 190.976C292.044 189.32 292.764 187.976 294.204 186.944C295.644 185.888 297.528 185.36 299.856 185.36C302.136 185.36 303.996 185.78 305.436 186.62C306.876 187.436 307.596 188.468 307.596 189.716C307.596 190.388 307.332 190.964 306.804 191.444C306.276 191.924 305.628 192.164 304.86 192.164C304.14 192.164 303.552 191.996 303.096 191.66C302.64 191.3 302.316 190.88 302.124 190.4C301.932 189.92 301.764 189.44 301.62 188.96C301.476 188.456 301.296 188.036 301.08 187.7C300.888 187.34 300.612 187.16 300.252 187.16C299.484 187.16 299.1 187.748 299.1 188.924C299.1 189.836 299.4 190.58 300 191.156C300.6 191.708 301.32 192.14 302.16 192.452C303.024 192.74 303.876 193.052 304.716 193.388C305.58 193.724 306.312 194.276 306.912 195.044C307.512 195.788 307.812 196.748 307.812 197.924C307.812 199.508 307.104 200.804 305.688 201.812C304.272 202.82 302.316 203.324 299.82 203.324Z" fill="#FDF0DD"/>
</g>
<path fill-rule="evenodd" clip-rule="evenodd" d="M107.492 218C114.321 218 119.857 212.461 119.857 205.628C119.857 198.795 114.321 193.256 107.492 193.256C100.663 193.256 95.127 198.795 95.127 205.628C95.127 212.461 100.663 218 107.492 218ZM107.492 216.046C113.243 216.046 117.905 211.382 117.905 205.628C117.905 199.874 113.243 195.209 107.492 195.209C101.742 195.209 97.0797 199.874 97.0797 205.628C97.0797 211.382 101.742 216.046 107.492 216.046Z" fill="url(#paint0_linear_501_1374)"/>
<path fill-rule="evenodd" clip-rule="evenodd" d="M73 184.14C73 195.93 82.2112 205.568 93.8261 206.241V202.979C84.01 202.31 76.2548 194.131 76.2548 184.139C76.2548 173.71 84.7046 165.256 95.1279 165.256C105.551 165.256 114.001 173.71 114.001 184.139C114.001 187.347 113.202 190.368 111.791 193.014L114.66 194.551C116.316 191.447 117.254 187.903 117.254 184.14C117.254 171.912 107.348 162 95.1271 162C82.9067 162 73 171.912 73 184.14ZM98.39 202.742C102.682 201.994 106.475 199.795 109.248 196.669C109.257 196.671 109.266 196.673 109.275 196.674L112.19 198.236C108.785 202.358 103.917 205.225 98.3811 206.041V202.765L98.39 202.742Z" fill="url(#paint1_radial_501_1374)"/>
<defs>
<filter id="filter0_d_501_1374" x="129.683" y="170.44" width="186.129" height="49.0121" filterUnits="userSpaceOnUse" color-interpolation-filters="sRGB">
<feFlood flood-opacity="0" result="BackgroundImageFix"/>
<feColorMatrix in="SourceAlpha" type="matrix" values="0 0 0 0 0 0 0 0 0 0 0 0 0 0 0 0 0 0 127 0" result="hardAlpha"/>
<feOffset dy="1"/>
<feGaussianBlur stdDeviation="4"/>
<feComposite in2="hardAlpha" operator="out"/>
<feColorMatrix type="matrix" values="0 0 0 0 0 0 0 0 0 0 0 0 0 0 0 0 0 0 0.05 0"/>
<feBlend mode="normal" in2="BackgroundImageFix" result="effect1_dropShadow_501_1374"/>
<feBlend mode="normal" in="SourceGraphic" in2="effect1_dropShadow_501_1374" result="shape"/>
</filter>
<linearGradient id="paint0_linear_501_1374" x1="107.492" y1="193.256" x2="107.492" y2="218" gradientUnits="userSpaceOnUse">
<stop stop-color="#66B8FF"/>
<stop offset="1" stop-color="#0089FF"/>
</linearGradient>
<radialGradient id="paint1_radial_501_1374" cx="0" cy="0" r="1" gradientUnits="userSpaceOnUse" gradientTransform="translate(95.1271 184.121) rotate(90) scale(22.1207 22.1271)">
<stop offset="0.922553" stop-color="#FDF0DD"/>
<stop offset="1" stop-color="#FBDFB7"/>
</radialGradient>
</defs>
</svg>
