<svg width="47" height="56" viewBox="0 0 47 56" fill="none" xmlns="http://www.w3.org/2000/svg">
<path fill-rule="evenodd" clip-rule="evenodd" d="M34.4916 56C41.3207 56 46.8568 50.4609 46.8568 43.6279C46.8568 36.795 41.3207 31.2559 34.4916 31.2559C27.6625 31.2559 22.1265 36.795 22.1265 43.6279C22.1265 50.4609 27.6625 56 34.4916 56ZM34.4919 54.0465C40.2427 54.0465 44.9047 49.3819 44.9047 43.6279C44.9047 37.8739 40.2427 33.2093 34.4919 33.2093C28.7411 33.2093 24.0792 37.8739 24.0792 43.6279C24.0792 49.3819 28.7411 54.0465 34.4919 54.0465Z" fill="url(#paint0_linear_166:115)"/>
<path fill-rule="evenodd" clip-rule="evenodd" d="M0 22.1395C0 33.9299 9.2112 43.5676 20.8261 44.2414V40.979C11.01 40.3099 3.25476 32.1309 3.25476 22.1395C3.25476 11.7103 11.7046 3.25578 22.1279 3.25578C32.5513 3.25578 41.001 11.7103 41.001 22.1395C41.001 25.3474 40.2016 28.3684 38.7912 31.0141L41.66 32.5507C43.3157 29.4473 44.2543 25.9031 44.2543 22.1395C44.2543 9.9122 34.3476 0 22.1271 0C9.90665 0 0 9.9122 0 22.1395ZM25.39 40.7422C29.6816 39.994 33.4754 37.7953 36.2481 34.6694C36.257 34.671 36.2659 34.6727 36.2748 34.6743L39.1903 36.2359C35.785 40.3578 30.9166 43.2251 25.3811 44.0413V40.7652L25.39 40.7422Z" fill="url(#paint1_radial_166:115)"/>
<defs>
<linearGradient id="paint0_linear_166:115" x1="34.4916" y1="31.2559" x2="34.4916" y2="56" gradientUnits="userSpaceOnUse">
<stop stop-color="#66B8FF"/>
<stop offset="1" stop-color="#0089FF"/>
</linearGradient>
<radialGradient id="paint1_radial_166:115" cx="0" cy="0" r="1" gradientUnits="userSpaceOnUse" gradientTransform="translate(22.1271 22.1207) rotate(90) scale(22.1207 22.1271)">
<stop offset="0.922553" stop-color="#FDF0DD"/>
<stop offset="1" stop-color="#FBDFB7"/>
</radialGradient>
</defs>
</svg>
